G04 Layer_Physical_Order=1*
G04 Layer_Color=255*
%FSLAX25Y25*%
%MOIN*%
G70*
G01*
G75*
%ADD10R,0.01969X0.02362*%
%ADD11R,0.02362X0.01969*%
%ADD12R,0.09000X0.00900*%
%ADD13R,0.00900X0.09000*%
%ADD14R,0.01200X0.02800*%
%ADD15R,0.02800X0.01200*%
%ADD16R,0.08700X0.07100*%
%ADD17R,0.05100X0.02400*%
%ADD18R,0.03937X0.05118*%
G04:AMPARAMS|DCode=19|XSize=35.43mil|YSize=31.5mil|CornerRadius=7.87mil|HoleSize=0mil|Usage=FLASHONLY|Rotation=180.000|XOffset=0mil|YOffset=0mil|HoleType=Round|Shape=RoundedRectangle|*
%AMROUNDEDRECTD19*
21,1,0.03543,0.01575,0,0,180.0*
21,1,0.01969,0.03150,0,0,180.0*
1,1,0.01575,-0.00984,0.00787*
1,1,0.01575,0.00984,0.00787*
1,1,0.01575,0.00984,-0.00787*
1,1,0.01575,-0.00984,-0.00787*
%
%ADD19ROUNDEDRECTD19*%
%ADD20R,0.03543X0.03150*%
G04:AMPARAMS|DCode=21|XSize=39mil|YSize=12mil|CornerRadius=6mil|HoleSize=0mil|Usage=FLASHONLY|Rotation=90.000|XOffset=0mil|YOffset=0mil|HoleType=Round|Shape=RoundedRectangle|*
%AMROUNDEDRECTD21*
21,1,0.03900,0.00000,0,0,90.0*
21,1,0.02700,0.01200,0,0,90.0*
1,1,0.01200,0.00000,0.01350*
1,1,0.01200,0.00000,-0.01350*
1,1,0.01200,0.00000,-0.01350*
1,1,0.01200,0.00000,0.01350*
%
%ADD21ROUNDEDRECTD21*%
G04:AMPARAMS|DCode=22|XSize=39mil|YSize=12mil|CornerRadius=6mil|HoleSize=0mil|Usage=FLASHONLY|Rotation=0.000|XOffset=0mil|YOffset=0mil|HoleType=Round|Shape=RoundedRectangle|*
%AMROUNDEDRECTD22*
21,1,0.03900,0.00000,0,0,0.0*
21,1,0.02700,0.01200,0,0,0.0*
1,1,0.01200,0.01350,0.00000*
1,1,0.01200,-0.01350,0.00000*
1,1,0.01200,-0.01350,0.00000*
1,1,0.01200,0.01350,0.00000*
%
%ADD22ROUNDEDRECTD22*%
%ADD23R,0.04000X0.09646*%
%ADD24R,0.03937X0.02756*%
%ADD25R,0.03937X0.02559*%
%ADD26R,0.05118X0.03937*%
G04:AMPARAMS|DCode=27|XSize=27.56mil|YSize=78.74mil|CornerRadius=6.89mil|HoleSize=0mil|Usage=FLASHONLY|Rotation=0.000|XOffset=0mil|YOffset=0mil|HoleType=Round|Shape=RoundedRectangle|*
%AMROUNDEDRECTD27*
21,1,0.02756,0.06496,0,0,0.0*
21,1,0.01378,0.07874,0,0,0.0*
1,1,0.01378,0.00689,-0.03248*
1,1,0.01378,-0.00689,-0.03248*
1,1,0.01378,-0.00689,0.03248*
1,1,0.01378,0.00689,0.03248*
%
%ADD27ROUNDEDRECTD27*%
G04:AMPARAMS|DCode=28|XSize=27.56mil|YSize=27.56mil|CornerRadius=6.89mil|HoleSize=0mil|Usage=FLASHONLY|Rotation=0.000|XOffset=0mil|YOffset=0mil|HoleType=Round|Shape=RoundedRectangle|*
%AMROUNDEDRECTD28*
21,1,0.02756,0.01378,0,0,0.0*
21,1,0.01378,0.02756,0,0,0.0*
1,1,0.01378,0.00689,-0.00689*
1,1,0.01378,-0.00689,-0.00689*
1,1,0.01378,-0.00689,0.00689*
1,1,0.01378,0.00689,0.00689*
%
%ADD28ROUNDEDRECTD28*%
%ADD29R,0.04724X0.03150*%
%ADD30R,0.02362X0.03347*%
%ADD31R,0.08000X0.01700*%
%ADD32C,0.01100*%
%ADD33C,0.01000*%
%ADD34C,0.00787*%
%ADD35R,0.04724X0.10236*%
%ADD36C,0.01575*%
%ADD37C,0.03543*%
D10*
X145000Y48469D02*
D03*
Y44532D02*
D03*
Y56968D02*
D03*
Y53031D02*
D03*
X146000Y15531D02*
D03*
Y19468D02*
D03*
Y23531D02*
D03*
Y27468D02*
D03*
X113500Y13468D02*
D03*
Y9532D02*
D03*
X139469Y17531D02*
D03*
Y21468D02*
D03*
Y47032D02*
D03*
Y50968D02*
D03*
X29000Y84469D02*
D03*
Y80532D02*
D03*
X46500Y79532D02*
D03*
Y83469D02*
D03*
X60500Y83469D02*
D03*
Y79532D02*
D03*
X53500Y83469D02*
D03*
Y79532D02*
D03*
X50000Y83469D02*
D03*
Y79532D02*
D03*
X57000Y79532D02*
D03*
Y83469D02*
D03*
X79000Y57563D02*
D03*
Y61500D02*
D03*
X65500Y83563D02*
D03*
Y87500D02*
D03*
X93000Y71563D02*
D03*
Y75500D02*
D03*
X83000Y61500D02*
D03*
Y57563D02*
D03*
X96500Y79563D02*
D03*
Y83500D02*
D03*
X100000Y79563D02*
D03*
Y83500D02*
D03*
X93000Y79563D02*
D03*
Y83500D02*
D03*
X97000Y75500D02*
D03*
Y71563D02*
D03*
X107000Y89468D02*
D03*
Y85532D02*
D03*
X24000Y37500D02*
D03*
Y33563D02*
D03*
X27500Y37500D02*
D03*
Y33563D02*
D03*
X31000Y37500D02*
D03*
Y33563D02*
D03*
X34500Y37500D02*
D03*
Y33563D02*
D03*
X38000Y37500D02*
D03*
Y33563D02*
D03*
X63500Y11095D02*
D03*
Y15032D02*
D03*
X15000Y30095D02*
D03*
Y34032D02*
D03*
X11500Y30063D02*
D03*
Y34000D02*
D03*
X8000Y30063D02*
D03*
Y34000D02*
D03*
X19500Y33563D02*
D03*
Y37500D02*
D03*
X4500Y30063D02*
D03*
Y34000D02*
D03*
D11*
X119000Y59500D02*
D03*
X122937D02*
D03*
X135000D02*
D03*
X138937D02*
D03*
X130937Y59500D02*
D03*
X127000D02*
D03*
X129937Y13500D02*
D03*
X126000D02*
D03*
X139437D02*
D03*
X135500D02*
D03*
X117500Y13500D02*
D03*
X121437D02*
D03*
X117500Y10000D02*
D03*
X121437D02*
D03*
X93468Y47609D02*
D03*
X89531D02*
D03*
X81532Y47609D02*
D03*
X85469D02*
D03*
X40968Y48000D02*
D03*
X37031D02*
D03*
X32969D02*
D03*
X29032D02*
D03*
X32969Y44500D02*
D03*
X29032D02*
D03*
X73469Y87532D02*
D03*
X69532D02*
D03*
X81468D02*
D03*
X77531D02*
D03*
X85532Y87532D02*
D03*
X89468D02*
D03*
X87532Y57531D02*
D03*
X91469D02*
D03*
X87532Y61532D02*
D03*
X91469D02*
D03*
X87532Y65031D02*
D03*
X91469D02*
D03*
D12*
X132010Y29510D02*
D03*
Y31479D02*
D03*
Y33447D02*
D03*
Y35416D02*
D03*
Y37384D02*
D03*
Y39353D02*
D03*
Y41321D02*
D03*
Y43290D02*
D03*
X104210D02*
D03*
Y41321D02*
D03*
Y39353D02*
D03*
Y37384D02*
D03*
Y35416D02*
D03*
Y33447D02*
D03*
Y31479D02*
D03*
Y29510D02*
D03*
D13*
X125000Y50300D02*
D03*
X123031D02*
D03*
X121063D02*
D03*
X119095D02*
D03*
X117126D02*
D03*
X115157D02*
D03*
X113189D02*
D03*
X111221D02*
D03*
Y22500D02*
D03*
X113189D02*
D03*
X115157D02*
D03*
X117126D02*
D03*
X119095D02*
D03*
X121063D02*
D03*
X123031D02*
D03*
X125000D02*
D03*
D14*
X86953Y28609D02*
D03*
X84984D02*
D03*
X83016D02*
D03*
X81032D02*
D03*
X79031D02*
D03*
X77031D02*
D03*
Y43391D02*
D03*
X79031D02*
D03*
X81032D02*
D03*
X83016D02*
D03*
X84984D02*
D03*
X86953D02*
D03*
D15*
X74632Y31009D02*
D03*
Y33009D02*
D03*
Y35009D02*
D03*
Y36993D02*
D03*
Y38962D02*
D03*
Y40930D02*
D03*
X89413D02*
D03*
Y38962D02*
D03*
Y36993D02*
D03*
Y35009D02*
D03*
Y33009D02*
D03*
Y31009D02*
D03*
D16*
X15200Y84750D02*
D03*
Y44250D02*
D03*
D17*
X28000Y52689D02*
D03*
Y56626D02*
D03*
Y60563D02*
D03*
Y64500D02*
D03*
Y68437D02*
D03*
Y72374D02*
D03*
Y76311D02*
D03*
D18*
X33626Y81500D02*
D03*
X41500D02*
D03*
D19*
X73500Y61532D02*
D03*
D20*
X67988D02*
D03*
Y57201D02*
D03*
X73500D02*
D03*
D21*
X75107Y83222D02*
D03*
X77048D02*
D03*
X78990D02*
D03*
X80990D02*
D03*
X75107Y66841D02*
D03*
X77049D02*
D03*
X78990D02*
D03*
X80990D02*
D03*
X82890D02*
D03*
Y83222D02*
D03*
D22*
X70810Y78922D02*
D03*
Y77022D02*
D03*
Y75022D02*
D03*
Y73080D02*
D03*
Y71139D02*
D03*
X87190Y71139D02*
D03*
Y73080D02*
D03*
Y75022D02*
D03*
Y77022D02*
D03*
Y78922D02*
D03*
D23*
X116500Y89500D02*
D03*
D24*
X56000Y44532D02*
D03*
Y37051D02*
D03*
Y32032D02*
D03*
Y24551D02*
D03*
D25*
X65449Y40791D02*
D03*
Y44532D02*
D03*
Y37051D02*
D03*
Y28291D02*
D03*
Y32032D02*
D03*
Y24551D02*
D03*
D26*
X56500Y11157D02*
D03*
Y19031D02*
D03*
D27*
X39500Y26587D02*
D03*
X45500D02*
D03*
X27500D02*
D03*
D28*
X22000Y15563D02*
D03*
Y23563D02*
D03*
X51000D02*
D03*
Y15563D02*
D03*
D29*
X17390Y10780D02*
D03*
X3610D02*
D03*
D30*
X12862Y25642D02*
D03*
X8138D02*
D03*
D31*
X85450Y11839D02*
D03*
Y9279D02*
D03*
Y6720D02*
D03*
Y4161D02*
D03*
X102550D02*
D03*
Y6720D02*
D03*
Y9279D02*
D03*
Y11839D02*
D03*
D32*
X50906Y57126D02*
D03*
X48937D02*
D03*
X46968D02*
D03*
X43031D02*
D03*
X41063D02*
D03*
X39094D02*
D03*
X37126D02*
D03*
X52874Y59095D02*
D03*
X50906D02*
D03*
X48937D02*
D03*
X46968D02*
D03*
X45000D02*
D03*
X43031D02*
D03*
X41063D02*
D03*
X37126D02*
D03*
X52874Y61063D02*
D03*
X50906D02*
D03*
X48937D02*
D03*
X45000D02*
D03*
X43031D02*
D03*
X39094D02*
D03*
X52874Y63032D02*
D03*
X39094D02*
D03*
X52874Y65000D02*
D03*
X48937D02*
D03*
X39094D02*
D03*
X37126D02*
D03*
X52874Y66969D02*
D03*
X50906D02*
D03*
X48937D02*
D03*
X52874Y68937D02*
D03*
X50906D02*
D03*
X52874Y70906D02*
D03*
X50906D02*
D03*
X48937D02*
D03*
X46968D02*
D03*
X45000D02*
D03*
X43031D02*
D03*
X52874Y72874D02*
D03*
X48937D02*
D03*
X46968D02*
D03*
X45000D02*
D03*
X43031D02*
D03*
X39094D02*
D03*
D33*
X44475Y73399D02*
Y74318D01*
X43556D02*
X44475D01*
Y73399D02*
X45000Y72874D01*
X40374Y77500D02*
X43556Y74318D01*
X31835Y77500D02*
X40374D01*
X38000Y37500D02*
X48968D01*
X61000Y28291D02*
X61000Y28291D01*
Y34500D01*
X54000Y28000D02*
X56000Y26000D01*
Y24551D02*
Y26000D01*
X81468Y87532D02*
Y89531D01*
X81000Y90000D02*
X81468Y89531D01*
X74000Y90000D02*
X81000D01*
X73469Y89468D02*
X74000Y90000D01*
X73469Y87532D02*
Y89468D01*
X69532Y84531D02*
Y87532D01*
X76500Y78000D02*
X81000D01*
X76000Y77500D02*
X76500Y78000D01*
X76000Y75000D02*
Y77500D01*
X78990Y79510D02*
Y82622D01*
Y79510D02*
X79000Y79500D01*
X75500D02*
X79000D01*
X74500Y78500D02*
X75500Y79500D01*
X74500Y74000D02*
Y78500D01*
X90500Y75500D02*
X93000D01*
X90022Y75022D02*
X90500Y75500D01*
X86590Y75022D02*
X90022D01*
X86590Y73080D02*
X89420D01*
X65500Y87500D02*
X65531Y87532D01*
X69532D01*
X73469Y86532D02*
Y87532D01*
Y86532D02*
X75107Y84893D01*
Y82622D02*
Y84893D01*
X77531Y86032D02*
Y87532D01*
X77048Y85548D02*
X77531Y86032D01*
X77048Y82622D02*
Y85548D01*
X80990Y82622D02*
Y85490D01*
X81468Y85969D01*
Y87532D01*
X89468Y85532D02*
Y87532D01*
Y85532D02*
X89500Y85500D01*
X84000D02*
X89500D01*
X82890Y84390D02*
X84000Y85500D01*
X82890Y82622D02*
Y84390D01*
X81468Y87532D02*
X85532D01*
X96500Y79563D02*
X100000D01*
X93000D02*
X96500D01*
X90563D02*
X93000D01*
X90500Y79500D02*
X90563Y79563D01*
X90500Y78500D02*
Y79500D01*
X89022Y77022D02*
X90500Y78500D01*
X86590Y77022D02*
X89022D01*
X96500Y83500D02*
X100000D01*
X93000D02*
X96500D01*
X91000D02*
X93000D01*
X89000Y81500D02*
X91000Y83500D01*
X89000Y79500D02*
Y81500D01*
X88422Y78922D02*
X89000Y79500D01*
X86590Y78922D02*
X88422D01*
X80990Y80010D02*
Y82622D01*
X87532Y57531D02*
Y61532D01*
X68468Y61532D02*
X72799Y57201D01*
X73500D01*
X67988Y61532D02*
X68020Y61500D01*
X51500Y34500D02*
X61000D01*
X48500Y31500D02*
X51500Y34500D01*
X45500Y12531D02*
Y26587D01*
X28000Y11032D02*
Y16532D01*
X25500Y19031D02*
X28000Y16532D01*
X8138Y19894D02*
X9000Y19031D01*
X8138Y19894D02*
Y25642D01*
X61209Y28291D02*
X65449D01*
X46000Y31532D02*
X48500D01*
X46000Y27087D02*
Y31532D01*
X45500Y26587D02*
X46000Y27087D01*
X52260Y40791D02*
X65449D01*
X51520Y37051D02*
X56000D01*
X48031Y33563D02*
X51520Y37051D01*
X69000Y36531D02*
Y44032D01*
X68500Y44532D02*
X69000Y44032D01*
X68500Y37031D02*
X69000Y36531D01*
X65469Y37031D02*
X68500D01*
X65449Y37051D02*
X65469Y37031D01*
X65449Y24551D02*
X68520D01*
X69000Y25032D01*
Y31532D01*
X65449Y32032D02*
X68500D01*
X56000Y19532D02*
Y24551D01*
X56500Y11157D02*
X63437D01*
X39500Y23031D02*
Y26587D01*
X18555D02*
X27500D01*
X17610Y25642D02*
X18555Y26587D01*
X12862Y25642D02*
X17610D01*
X69000Y32256D02*
Y36531D01*
X68500Y32032D02*
X68638Y31894D01*
X69000Y32256D01*
X65449Y44532D02*
X68500D01*
X48968Y37500D02*
X52260Y40791D01*
X44000Y11032D02*
X45500Y12531D01*
X36000Y19532D02*
X39500Y23031D01*
X28000Y11032D02*
X44000D01*
X36000Y19532D02*
X36000Y19532D01*
Y14000D02*
Y19532D01*
X68000Y24032D02*
X69000Y25032D01*
X68000Y12500D02*
Y24032D01*
X37126Y48094D02*
Y57126D01*
X115157Y48800D02*
Y56343D01*
X114500Y57000D02*
X115157Y56343D01*
X114500Y57000D02*
Y64000D01*
X111221Y48800D02*
Y54280D01*
X109500Y56000D02*
X111221Y54280D01*
X109500Y56000D02*
Y59500D01*
X97510Y29510D02*
X105710D01*
X97000Y29000D02*
X97510Y29510D01*
X29000Y80335D02*
X31835Y77500D01*
X21531Y80532D02*
X29000D01*
X21531Y87032D02*
X25000Y90500D01*
X63500Y90000D02*
X74000D01*
X63000Y90500D02*
X63500Y90000D01*
X50000Y83469D02*
Y90500D01*
X29032Y41032D02*
Y44500D01*
Y41032D02*
X29063Y41000D01*
X37000D01*
Y47969D01*
X145000Y44532D02*
X145031Y44500D01*
X38000Y33563D02*
X48031D01*
X27937Y60500D02*
X28000Y60563D01*
X14500Y60500D02*
X27937D01*
X100000Y83500D02*
Y87000D01*
X93468Y47609D02*
Y51032D01*
X87500Y53500D02*
X91000D01*
X87500D02*
Y57500D01*
X87532Y57531D01*
X87201Y57201D02*
X87500Y57500D01*
X73500Y57201D02*
X87201D01*
X91000Y53500D02*
X93468Y51032D01*
X74641Y33000D02*
X79500D01*
X74500Y74000D02*
X77049Y71451D01*
X83978Y77022D02*
X86590D01*
X76000Y75000D02*
X78990Y72010D01*
X89420Y73080D02*
X90937Y71563D01*
X93000D01*
X83080Y73080D02*
X86590D01*
X82500Y72500D02*
X83080Y73080D01*
X79500Y74000D02*
X80990Y72510D01*
X78990Y67441D02*
Y72010D01*
X82500Y71500D02*
Y72500D01*
Y71500D02*
X86500Y67500D01*
X87500D01*
X87532Y67469D01*
Y65031D02*
Y67469D01*
X80990Y67441D02*
Y72510D01*
X77049Y67441D02*
Y71451D01*
X80990Y80010D02*
X83978Y77022D01*
X25000Y90500D02*
X50000D01*
X63000D01*
X85950Y9279D02*
Y11839D01*
X102050Y6720D02*
Y9279D01*
X97839Y4161D02*
X102050D01*
X92721Y9279D02*
X97839Y4161D01*
X85950Y9279D02*
X92721D01*
X67839Y4161D02*
X85950D01*
X96720Y9279D02*
X102050D01*
X93500Y12500D02*
X96720Y9279D01*
X93500Y12500D02*
Y17500D01*
X96000Y89500D02*
X106968D01*
X107000D02*
X116500D01*
X145000Y53031D02*
Y53043D01*
X50906Y70906D02*
X52874D01*
X51756Y65000D02*
X52874D01*
Y63032D02*
X53031D01*
X55000Y65000D01*
X39094Y63032D02*
X49787D01*
X51756Y65000D01*
X27874Y56500D02*
X28000Y56626D01*
X5500Y56500D02*
X27874D01*
X96500Y31479D02*
X105710D01*
X81000Y78000D02*
X82000Y79000D01*
X145031Y44500D02*
X150000D01*
X142000Y53043D02*
X145000D01*
X142000D02*
Y68000D01*
X94500D02*
X142000D01*
X63500Y15032D02*
Y19000D01*
X61000Y21500D02*
X63500Y19000D01*
X61000Y21500D02*
Y28291D01*
X85000Y16500D02*
X88000Y19500D01*
X96000D01*
Y15500D02*
Y19500D01*
Y15500D02*
X97500Y14000D01*
X102000D01*
X102050Y13950D01*
Y11839D02*
Y13950D01*
X89413Y33009D02*
X89423Y33000D01*
X92500D01*
X93000Y32500D01*
Y25500D02*
Y32500D01*
X21531Y80532D02*
Y87032D01*
X6311Y52689D02*
X28000D01*
X6000Y53000D02*
X6311Y52689D01*
X4500Y34000D02*
Y51500D01*
X2000Y54000D02*
X4500Y51500D01*
X2000Y54000D02*
Y60500D01*
X2000Y60500D01*
X14500D01*
X97000Y25500D02*
Y26500D01*
Y29000D01*
X93000Y25500D02*
X97000D01*
X9000Y19031D02*
X25500D01*
X12000Y6000D02*
X15000D01*
D34*
X40500Y42000D02*
X41500D01*
X46500Y47000D01*
Y50000D01*
X137553Y33447D02*
X141500Y29500D01*
X114500Y35000D02*
X121063Y28437D01*
Y24000D02*
Y28437D01*
X97000Y71563D02*
X100563D01*
X70500Y40500D02*
X72038Y38962D01*
X74632D01*
X72570Y40930D02*
X74632D01*
X77031Y25500D02*
Y28609D01*
X65500Y81000D02*
Y83563D01*
X93000Y75500D02*
X97000D01*
X79000Y61500D02*
X82890Y65390D01*
Y67441D01*
X86590Y71139D02*
X88861D01*
X91469Y61532D02*
Y65031D01*
Y57531D02*
Y61532D01*
X73532Y61500D02*
X79000D01*
X73500Y61532D02*
X73532Y61500D01*
X14031Y37500D02*
X19500D01*
X8000Y25780D02*
Y30063D01*
X34500Y33563D02*
X38000D01*
X31000D02*
X34500D01*
X27500D02*
X31000D01*
X34500Y37500D02*
X38000D01*
X31000D02*
X34500D01*
X27500D02*
X31000D01*
X24000D02*
X27500D01*
X21500Y35531D02*
X23469Y33563D01*
X21500Y35531D02*
Y37031D01*
X21032Y37500D02*
X21500Y37031D01*
X19500Y37500D02*
X21032D01*
X19500Y31532D02*
Y33563D01*
X18063Y30095D02*
X19500Y31532D01*
X15000Y30095D02*
X18063D01*
X11500Y34000D02*
X14968D01*
X8000D02*
X11500D01*
X4500D02*
X8000D01*
X11500Y30063D02*
X14968D01*
X8000D02*
X11500D01*
X4500D02*
X8000D01*
X124589Y40911D02*
X126147Y39353D01*
X123031Y42469D02*
X124589Y40911D01*
X135000Y18000D02*
X139437Y13563D01*
X135000Y18000D02*
Y19500D01*
X119095Y35405D02*
X135000Y19500D01*
X119095Y35405D02*
Y48800D01*
X126500Y61500D02*
X127000Y61000D01*
X116000Y61000D02*
X116500Y61500D01*
X116000Y57500D02*
Y61000D01*
Y57500D02*
X117126Y56374D01*
Y48800D02*
Y56374D01*
X130510Y37384D02*
Y39353D01*
X126147D02*
X130510D01*
X123031Y42469D02*
Y48800D01*
X138937Y59500D02*
Y61063D01*
X127000Y59500D02*
Y61000D01*
X139469Y47032D02*
X139500Y47000D01*
Y43500D02*
Y47000D01*
X137321Y41321D02*
X139500Y43500D01*
X130510Y41321D02*
X137321D01*
X137469Y50968D02*
X139469D01*
X137000Y50500D02*
X137469Y50968D01*
X137000Y44000D02*
Y50500D01*
X136290Y43290D02*
X137000Y44000D01*
X130510Y43290D02*
X136290D01*
X130510Y33447D02*
X137553D01*
X139469Y21468D02*
Y23031D01*
X137681Y24819D02*
X139469Y23031D01*
X137681Y24819D02*
Y30819D01*
X137021Y31479D02*
X137681Y30819D01*
X130510Y31479D02*
X137021D01*
X137469Y17531D02*
X139469D01*
X136500Y18500D02*
X137469Y17531D01*
X136500Y18500D02*
Y29000D01*
X135990Y29510D02*
X136500Y29000D01*
X130510Y29510D02*
X135990D01*
X139437Y11937D02*
Y13500D01*
X139000Y11500D02*
X139437Y11937D01*
X130500Y11500D02*
X139000D01*
X129937Y12063D02*
X130500Y11500D01*
X129937Y12063D02*
Y13500D01*
X135500D02*
Y15500D01*
X133500Y17500D02*
X135500Y15500D01*
X125500Y17500D02*
X133500D01*
X125000Y18000D02*
X125500Y17500D01*
X125000Y18000D02*
Y24000D01*
X123031Y15969D02*
X125500Y13500D01*
X123031Y15969D02*
Y24000D01*
X121500Y10063D02*
Y16000D01*
X121063Y16437D02*
X121500Y16000D01*
X121063Y16437D02*
Y24000D01*
X117500Y10000D02*
Y13500D01*
Y15500D01*
X117126Y15874D02*
X117500Y15500D01*
X117126Y15874D02*
Y24000D01*
X113500Y16000D02*
X115157Y17658D01*
Y24000D01*
X130937Y59500D02*
X135000D01*
X123126D02*
X127000D01*
X130937Y57437D02*
Y59500D01*
X130500Y57000D02*
X130937Y57437D01*
X126500Y57000D02*
X130500D01*
X125000Y55500D02*
X126500Y57000D01*
X125000Y48800D02*
Y55500D01*
X123031Y48800D02*
Y59405D01*
X119000Y57000D02*
Y59500D01*
Y57000D02*
X121063Y54937D01*
Y48800D02*
Y54937D01*
X28000Y60563D02*
X32437D01*
X74632Y35009D02*
Y36993D01*
Y33009D02*
Y35009D01*
X83016Y28609D02*
X84984D01*
X89413Y38962D02*
Y40930D01*
Y36993D02*
Y38962D01*
Y35009D02*
Y36993D01*
Y33009D02*
Y35009D01*
X93468Y45078D02*
Y47609D01*
X93000Y44609D02*
X93468Y45078D01*
X90500Y44609D02*
X93000D01*
X89413Y43523D02*
X90500Y44609D01*
X89413Y40930D02*
Y43523D01*
X89500Y45609D02*
Y47578D01*
X87500Y45609D02*
X89500D01*
X86953Y45062D02*
X87500Y45609D01*
X86953Y43391D02*
Y45062D01*
X85469Y47609D02*
X85500Y47578D01*
Y46109D02*
Y47578D01*
X84984Y45593D02*
X85500Y46109D01*
X84984Y43391D02*
Y45593D01*
X81532Y46078D02*
Y47609D01*
Y46078D02*
X83016Y44593D01*
Y43391D02*
Y44593D01*
X46968Y74468D02*
X48500Y76000D01*
X46968Y72874D02*
Y74468D01*
X48937Y72874D02*
Y73937D01*
X28000Y72374D02*
X31374D01*
X40968Y48000D02*
Y49531D01*
X39094Y51406D02*
X40968Y49531D01*
X39094Y51406D02*
Y57126D01*
X32969Y48000D02*
Y49468D01*
X35000Y51500D01*
Y58000D01*
X36094Y59095D01*
X29032Y48000D02*
Y49968D01*
X28000Y51000D02*
X29032Y49968D01*
X28000Y51000D02*
Y52689D01*
X29032Y44500D02*
Y48000D01*
X32969Y44500D02*
Y48000D01*
X33626Y81500D02*
Y82811D01*
X31969Y84469D02*
X33626Y82811D01*
X29000Y84469D02*
X31969D01*
X32437Y60563D02*
X35000Y58000D01*
X67022Y75022D02*
X71410D01*
X68080Y73080D02*
X71410D01*
X62000Y67000D02*
X68080Y73080D01*
X69139Y71139D02*
X71410D01*
X75107Y65607D02*
Y67441D01*
X74500Y65000D02*
X75107Y65607D01*
X66500Y68500D02*
X69139Y71139D01*
X77000Y25500D02*
X77031Y25469D01*
X79031Y24532D02*
Y28609D01*
X81000Y24000D02*
X81032D01*
Y28609D01*
X79000Y52500D02*
X81500D01*
X79031Y43391D02*
Y52500D01*
X77000D02*
X77031Y52469D01*
Y43391D02*
Y52469D01*
X75000Y16000D02*
Y18000D01*
X81000Y24000D01*
X73000Y18000D02*
Y18500D01*
X79031Y24532D01*
X70000Y18500D02*
X77000Y25500D01*
X41457Y81543D02*
Y86457D01*
X36094Y59095D02*
X37126D01*
X113189Y48800D02*
Y55811D01*
X112000Y57000D02*
X113189Y55811D01*
X112000Y57000D02*
Y61500D01*
X99710Y43290D02*
X105710D01*
X99000Y44000D02*
X99710Y43290D01*
X99000Y44000D02*
Y48500D01*
X99179Y41321D02*
X105710D01*
X97000Y43500D02*
X99179Y41321D01*
X97000Y43500D02*
Y50000D01*
Y57000D01*
X85750Y22250D02*
X86250D01*
X86500Y22000D01*
X84984Y23016D02*
X85750Y22250D01*
X84984Y23016D02*
Y28609D01*
X86953Y24547D02*
Y28609D01*
Y24547D02*
X87500Y24000D01*
X95000Y39353D02*
X105710D01*
Y33447D02*
X110053D01*
X112000Y31500D01*
X114500D01*
X31374Y72374D02*
X33319Y74319D01*
X28000Y76311D02*
X28811Y75500D01*
X31189Y76311D02*
X32000Y75500D01*
X28000Y76311D02*
X31189D01*
X33319Y74319D02*
X38984D01*
X32000Y75500D02*
X40405D01*
X44969Y79532D02*
X46500D01*
X60500Y83469D02*
Y87000D01*
X46500Y83469D02*
X50000D01*
X57000D01*
X67022Y77022D02*
X71410D01*
X63575Y73575D02*
X67022Y77022D01*
X63000Y75500D02*
X66422Y78922D01*
X71410D01*
X139437Y11937D02*
X139874Y11500D01*
X145000D01*
X116000Y7500D02*
X130000D01*
Y11000D01*
X130500Y11500D01*
X145000D02*
X146000Y12500D01*
Y15531D01*
X130510Y39353D02*
X151647D01*
X152500Y38500D01*
Y28000D02*
Y38500D01*
X151969Y27468D02*
X152500Y28000D01*
X146000Y27468D02*
X151969D01*
X145000Y48469D02*
Y53031D01*
X146000Y19468D02*
Y23531D01*
X100563Y71563D02*
X103500Y74500D01*
X74632Y31009D02*
Y33009D01*
X88861Y71139D02*
X91469Y68532D01*
Y65031D02*
Y68532D01*
X113500Y13468D02*
Y16000D01*
X74721Y6720D02*
X85950D01*
X115000Y6500D02*
X116000Y7500D01*
X109500Y6500D02*
X115000D01*
X108500Y7500D02*
X109500Y6500D01*
X102050Y11839D02*
X108339D01*
X108500Y7500D02*
Y11677D01*
X108339Y11839D02*
X108500Y11677D01*
X105500Y20000D02*
X107500D01*
X110000Y17500D01*
Y10000D02*
Y17500D01*
Y10000D02*
X110468Y9532D01*
X113500D01*
X103500Y74500D02*
X107000Y78000D01*
Y85532D01*
X43031Y50468D02*
X44000Y49500D01*
X43031Y50468D02*
Y57126D01*
X47000Y52000D02*
X49000Y50000D01*
X63000D01*
X64075Y51075D01*
X66500Y65000D02*
X74500D01*
X64075Y62575D02*
X66500Y65000D01*
X64075Y51075D02*
Y62575D01*
X64000Y72000D02*
X67022Y75022D01*
X38984Y72984D02*
X39094Y72874D01*
X38984Y72984D02*
Y74319D01*
X48937Y52063D02*
Y57126D01*
X44500Y54658D02*
X46968Y57126D01*
X44500Y52000D02*
Y54658D01*
Y52000D02*
X46500Y50000D01*
X40626Y72874D02*
X43031D01*
X40432Y73068D02*
X40626Y72874D01*
X40432Y73068D02*
Y73454D01*
X40405Y73481D02*
X40432Y73454D01*
X40405Y73481D02*
Y75500D01*
X44500Y80000D02*
X44969Y79532D01*
X44500Y80000D02*
Y85000D01*
X46000Y86500D01*
X48937Y73937D02*
X49500Y74500D01*
X48500Y67405D02*
X48937Y66969D01*
X52874D02*
X53133D01*
X48000Y65000D02*
X48937D01*
X47000Y66000D02*
X48000Y65000D01*
X53133Y66969D02*
X55500Y69336D01*
Y71000D01*
X47000Y66000D02*
Y67500D01*
X48500Y67405D02*
Y69000D01*
X31000Y68500D02*
X31500Y69000D01*
X41000D02*
X48500D01*
X36862Y73138D02*
X41000Y69000D01*
X33808Y73138D02*
X36862D01*
X31863Y71193D02*
X33808Y73138D01*
X31693Y71193D02*
X31863D01*
X31500Y71000D02*
X31693Y71193D01*
X31500Y69000D02*
Y71000D01*
X27937Y68500D02*
X31000D01*
X40000Y67500D02*
X47000D01*
X37000Y70500D02*
X40000Y67500D01*
X34500Y70500D02*
X37000D01*
X48937Y52063D02*
X49500Y51500D01*
X62394D01*
Y62606D01*
X49500Y74500D02*
X53000D01*
X57000Y78500D01*
Y79532D01*
X48500Y76000D02*
X52830D01*
X53500Y76670D01*
Y79532D01*
X52874Y72874D02*
X53843D01*
X60500Y79532D01*
X55500Y71000D02*
X57500D01*
X50906Y57126D02*
X59075D01*
Y71925D02*
X60724Y73575D01*
X63575D01*
X60425Y64575D02*
Y70500D01*
X61500D01*
X57500Y60000D02*
Y71000D01*
X59075Y57126D02*
Y71925D01*
X60425Y64575D02*
X62394Y62606D01*
X5000Y64500D02*
X28000D01*
X32500Y65000D02*
X37126D01*
X70500Y40500D02*
Y45500D01*
X69000Y47000D02*
X70500Y45500D01*
X51000Y47000D02*
X69000D01*
X47500Y43500D02*
X51000Y47000D01*
X47500Y42000D02*
Y43500D01*
X72570Y40930D02*
Y45430D01*
X69500Y48500D02*
X72570Y45430D01*
X50500Y48500D02*
X69500D01*
X44500Y42500D02*
X50500Y48500D01*
X44500Y40500D02*
Y42500D01*
X98116Y37384D02*
X105710D01*
X105626Y35500D02*
X105710Y35416D01*
X98000Y35500D02*
X105626D01*
X145000Y56968D02*
X145031Y57000D01*
X149500D01*
X146031Y19500D02*
X146031Y19500D01*
X150500D01*
X116500Y61500D02*
X138500D01*
X138937Y61063D01*
X130510Y35416D02*
X150000D01*
X94925Y39278D02*
X95000Y39353D01*
X94925Y29000D02*
Y39278D01*
X2063Y30063D02*
X4500D01*
D35*
X142484Y89500D02*
D03*
D36*
X40500Y42000D02*
D03*
X141500Y29500D02*
D03*
X114500Y35000D02*
D03*
X54000Y28000D02*
D03*
X68000Y57000D02*
D03*
X83000Y61500D02*
D03*
X65500Y81000D02*
D03*
X69532Y84531D02*
D03*
X73500Y61532D02*
D03*
X14031Y37500D02*
D03*
X124589Y40911D02*
D03*
X99000Y48500D02*
D03*
X43031Y70906D02*
D03*
X39094Y65000D02*
D03*
X41063Y59095D02*
D03*
X43031D02*
D03*
X39094Y63032D02*
D03*
Y61063D02*
D03*
X62000Y67000D02*
D03*
X66500Y68500D02*
D03*
X46968Y59095D02*
D03*
X81500Y52500D02*
D03*
X77000D02*
D03*
X44000Y49500D02*
D03*
X75000Y16000D02*
D03*
X73000Y18000D02*
D03*
X36000Y14000D02*
D03*
X70000Y18500D02*
D03*
X68000Y12000D02*
D03*
X41457Y86457D02*
D03*
X114500Y64000D02*
D03*
X112000Y61500D02*
D03*
X109500Y59500D02*
D03*
X97000Y57000D02*
D03*
X114500Y31500D02*
D03*
X86500Y22000D02*
D03*
X87500Y24000D02*
D03*
X60500Y87000D02*
D03*
X57000Y79500D02*
D03*
X41063Y57126D02*
D03*
X37126Y59095D02*
D03*
X63000Y75500D02*
D03*
X45000Y37500D02*
D03*
X42500Y33500D02*
D03*
X100000Y87000D02*
D03*
X79500Y33000D02*
D03*
X96500Y31500D02*
D03*
X79500Y74000D02*
D03*
X79000Y83000D02*
D03*
X93500Y17500D02*
D03*
X67500Y4500D02*
D03*
X74500Y6500D02*
D03*
X105500Y20000D02*
D03*
X96000Y89500D02*
D03*
X45000Y59095D02*
D03*
X48937D02*
D03*
X47000Y52000D02*
D03*
X64000Y72000D02*
D03*
X52874Y59095D02*
D03*
X45000Y71000D02*
D03*
X47000D02*
D03*
X50000Y79500D02*
D03*
X46000Y86500D02*
D03*
X50000Y87500D02*
D03*
X51000Y71000D02*
D03*
X49000D02*
D03*
X48937Y61063D02*
D03*
X50906Y68968D02*
D03*
X57500Y60000D02*
D03*
X55000Y65000D02*
D03*
X52874Y68937D02*
D03*
X51000Y67000D02*
D03*
Y61000D02*
D03*
X50906Y59031D02*
D03*
X52969Y61063D02*
D03*
X43031Y61063D02*
D03*
X45000D02*
D03*
X34500Y70500D02*
D03*
X61500D02*
D03*
X13000Y19000D02*
D03*
X5000Y64500D02*
D03*
X5500Y56500D02*
D03*
X32500Y65000D02*
D03*
X47500Y42000D02*
D03*
X44500Y40500D02*
D03*
X98000Y37500D02*
D03*
Y35500D02*
D03*
X149500Y57000D02*
D03*
X150000Y44500D02*
D03*
X150500Y19500D02*
D03*
X150000Y35500D02*
D03*
X94500Y68000D02*
D03*
X85000Y16500D02*
D03*
X95000Y29000D02*
D03*
X21500Y87000D02*
D03*
X6000Y53000D02*
D03*
X2000Y30000D02*
D03*
Y60500D02*
D03*
X97000Y26500D02*
D03*
X15000Y6000D02*
D03*
X12000D02*
D03*
D37*
X30500Y19563D02*
D03*
X42500D02*
D03*
M02*
