G04 Layer_Physical_Order=2*
G04 Layer_Color=36540*
%FSLAX25Y25*%
%MOIN*%
G70*
G01*
G75*
%ADD33C,0.01000*%
%ADD34C,0.00787*%
%ADD36C,0.01575*%
D33*
X45000Y35000D02*
Y37500D01*
X68000Y57000D02*
X74000D01*
X81000Y64000D01*
X69532Y83969D02*
Y84531D01*
X14031Y32262D02*
X32262Y14031D01*
X14031Y32262D02*
Y37500D01*
X32262Y14031D02*
X36000D01*
X38032Y12000D01*
X68000D01*
X39094Y61063D02*
X39503D01*
X34595Y59095D02*
X37126D01*
X110000Y18000D02*
X133500Y41500D01*
X81000Y64000D02*
Y72500D01*
X69532Y83969D02*
X79500Y74000D01*
X81000Y72500D01*
X94000Y18000D02*
X110000D01*
X93500Y17500D02*
X94000Y18000D01*
X67500Y4500D02*
X80000Y17000D01*
X83000Y61500D02*
Y76000D01*
X93500Y86500D01*
Y88500D01*
X94500Y89500D01*
X96000D01*
X41150Y80500D02*
X42000D01*
X41150D02*
Y84500D01*
X47000D01*
X50000Y87500D01*
X42000Y80500D02*
X51000Y71500D01*
Y71000D02*
Y71500D01*
X39503Y61063D02*
X40819Y62379D01*
Y67500D01*
X34500Y59000D02*
X34595Y59095D01*
X34500Y59000D02*
Y61000D01*
X36531Y63032D01*
X39094D01*
X32000Y67500D02*
X40819D01*
X8000Y43500D02*
X32000Y67500D01*
X93000Y33000D02*
X94500Y31500D01*
X96500D01*
X79000Y83000D02*
Y85500D01*
X85500Y92000D01*
X100000D01*
Y87000D02*
Y92000D01*
X133500Y41500D02*
X150000D01*
Y44500D01*
X54000Y28000D02*
Y33000D01*
X79500D01*
X42500Y31000D02*
Y33500D01*
X80000Y14500D02*
X83000D01*
X85000Y16500D01*
X21500Y84031D02*
Y87000D01*
X6000Y53000D02*
Y54000D01*
X6500Y54500D01*
X8500D01*
X8000Y30000D02*
Y43500D01*
X2000Y30000D02*
X8000D01*
X2000D02*
Y39500D01*
X4000Y41500D01*
Y51000D01*
X6000Y53000D01*
X11000Y64000D02*
Y73500D01*
X5500Y58500D02*
X11000Y64000D01*
X5500Y56500D02*
Y58500D01*
X68821Y92000D02*
X85500D01*
X67533Y93287D02*
X68821Y92000D01*
X7787Y93287D02*
X67533D01*
X2000Y87500D02*
X7787Y93287D01*
X2000Y60500D02*
Y87500D01*
X97000Y24500D02*
Y26500D01*
X79500Y33000D02*
X93000D01*
X15000Y6000D02*
X19500D01*
D34*
X65000Y55000D02*
X80500D01*
X65000D02*
Y56500D01*
X74500Y66000D01*
X71000Y66670D02*
Y72500D01*
X64830Y60500D02*
X71000Y66670D01*
X63500Y60500D02*
X64830D01*
X73000Y67000D02*
Y73000D01*
X61500Y55500D02*
X73000Y67000D01*
X61500Y53500D02*
Y55500D01*
X69500Y67000D02*
Y70000D01*
X69000Y66500D02*
X69500Y67000D01*
X64000Y66500D02*
X69000D01*
X61500Y53500D02*
X73000D01*
X59500Y52500D02*
Y62000D01*
X64000Y66500D01*
X57063Y50063D02*
X59500Y52500D01*
X60575Y43575D02*
X63000Y46000D01*
X43425Y43575D02*
X60575D01*
X60275Y44945D02*
X63011Y47681D01*
X71808D01*
X87500Y46000D02*
X95500Y54000D01*
X63000Y46000D02*
X87500D01*
X73500Y61532D02*
X75532D01*
X65500Y81000D02*
X70000D01*
X17000Y33000D02*
Y48000D01*
X32000Y63000D01*
Y64500D01*
X67500Y72000D02*
X69500Y70000D01*
X81500Y52500D02*
Y54000D01*
X80500Y55000D02*
X81500Y54000D01*
X74000Y52500D02*
X77000D01*
X73000Y53500D02*
X74000Y52500D01*
X73575Y50925D02*
X82152D01*
X95227Y64000D01*
X114500D01*
X48937Y50063D02*
X57063D01*
X72819Y51681D02*
X73575Y50925D01*
X44000Y49500D02*
X46193Y47307D01*
X57807D01*
X61000Y50500D01*
X72330D01*
X73086Y49744D01*
X83244D01*
X95000Y61500D01*
X112000D01*
X44374Y46126D02*
X58296D01*
X61489Y49319D01*
X71841D01*
X72596Y48563D01*
X84563D01*
X95500Y59500D01*
X109500D01*
X43885Y44945D02*
X60275D01*
X71808Y47681D02*
X72107Y47382D01*
X85882D01*
X95500Y57000D01*
X97000D01*
X41000Y47830D02*
X43885Y44945D01*
X36500Y65000D02*
X39094D01*
X19000Y34000D02*
Y47500D01*
X95500Y54000D02*
X107500D01*
X111000Y50500D01*
Y35000D02*
Y50500D01*
Y35000D02*
X114500Y31500D01*
X69000Y79000D02*
X74500Y73500D01*
X43031Y70906D02*
Y71469D01*
X41000Y47830D02*
X41063Y47893D01*
Y57126D01*
X39425Y57715D02*
X40804Y59095D01*
X42425Y50925D02*
X43031Y51531D01*
X42425Y48075D02*
Y50925D01*
Y48075D02*
X44374Y46126D01*
X39425Y47575D02*
Y57715D01*
X40804Y59095D02*
X41063D01*
X74500Y66000D02*
Y73500D01*
X61500Y77500D02*
X68500D01*
X73000Y73000D01*
X64727Y75000D02*
X68500D01*
X71000Y72500D01*
X112000Y6500D02*
X125000Y19500D01*
X150500D01*
X70000Y81000D02*
X79000Y72000D01*
X75532Y61532D02*
X79000Y65000D01*
Y72000D01*
X19000Y34000D02*
X26500Y26500D01*
X45000D01*
X48000Y29500D01*
X17000Y33000D02*
X25500Y24500D01*
X46727D01*
X51000Y28773D01*
X107500Y20000D02*
X124589Y37089D01*
Y40911D01*
X74500Y6500D02*
X112000D01*
X80000Y17000D02*
X83000Y20000D01*
X105500D01*
X107500D01*
X39425Y47575D02*
X43425Y43575D01*
X43031Y51531D02*
Y59095D01*
X46968D02*
X47000Y59063D01*
Y52000D02*
Y59063D01*
X45000Y51500D02*
Y59095D01*
Y51500D02*
X48012Y48488D01*
X57158D01*
X64000Y72000D02*
X67500D01*
X58500Y67500D02*
X60273D01*
X61348Y68575D01*
X66425D01*
X48000Y29500D02*
Y39500D01*
X51000Y28773D02*
Y42000D01*
X41457Y86457D02*
X41500Y86500D01*
X55000Y79500D02*
X57000D01*
X41500Y86500D02*
X44000D01*
X39500Y75000D02*
X43031Y71469D01*
X36000Y75000D02*
X39500D01*
X63500Y79000D02*
X69000D01*
X63500D02*
Y82500D01*
X67000Y86000D01*
X61500Y77500D02*
Y82500D01*
X65500Y86500D01*
Y90500D01*
X36000Y75000D02*
Y92000D01*
X67000D01*
Y86000D02*
Y92000D01*
X37500Y90500D02*
X65500D01*
X37500Y76500D02*
Y90500D01*
Y76500D02*
X40000D01*
X45000Y71500D01*
Y71000D02*
Y71500D01*
X47000Y71000D02*
Y71227D01*
X40546Y77681D02*
X47000Y71227D01*
X38681Y77681D02*
X40546D01*
X38681D02*
Y88681D01*
X41365Y78862D02*
X49000Y71227D01*
X39862Y78862D02*
X41365D01*
X39862D02*
Y87500D01*
X40500Y88138D01*
X46000D01*
Y86500D02*
Y88138D01*
X48000Y79500D02*
X50000D01*
X38681Y88681D02*
X39319Y89319D01*
X47000D01*
X48000Y88319D01*
Y88000D02*
Y88319D01*
X48937Y50063D02*
Y59095D01*
X49000Y71000D02*
Y71227D01*
X60351Y51681D02*
X72819D01*
X57158Y48488D02*
X60351Y51681D01*
X50906Y55094D02*
X51000Y55000D01*
X48874Y61000D02*
X48937Y61063D01*
X51000Y67000D02*
X51181Y67181D01*
X55319D02*
X55500Y67000D01*
X51181Y67181D02*
X55319D01*
X54500Y65000D02*
X55000D01*
X54075Y65425D02*
X54500Y65000D01*
X50348Y65425D02*
X54075D01*
X48374Y61500D02*
X48874Y61000D01*
X47000Y61500D02*
X48374D01*
X54196Y60000D02*
X55000D01*
X55273D01*
X59500Y65000D02*
X60000D01*
X62000Y67000D01*
X57500Y54000D02*
Y60000D01*
X52874Y59095D02*
X53000Y58969D01*
Y55000D02*
Y58969D01*
X53133Y61063D02*
X54196Y60000D01*
X50906Y55094D02*
X50906Y55094D01*
Y59031D01*
X53133Y61063D02*
X53133Y61063D01*
X52969Y61063D02*
X53133D01*
X51000Y61000D02*
Y61500D01*
X42500Y61594D02*
X43031Y61063D01*
X40500Y71210D02*
X42773Y68937D01*
X42804Y68968D01*
X50906D01*
X42500Y61594D02*
Y66000D01*
X40819Y67500D02*
X40894Y67575D01*
X48198D01*
X50348Y65425D01*
X45000Y61063D02*
Y61500D01*
X44500Y62000D02*
X45000Y61500D01*
X44500Y62000D02*
Y66000D01*
X49250Y63250D02*
X51000Y61500D01*
X47750Y63250D02*
X49250D01*
X46500Y64500D02*
X47750Y63250D01*
X63652Y73925D02*
X64727Y75000D01*
X52874Y68937D02*
X57862Y73925D01*
X63652D01*
X59000Y75500D02*
X63000D01*
X61500Y70500D02*
Y71500D01*
X61000Y72000D02*
X61500Y71500D01*
X59150Y72000D02*
X61000D01*
X59075Y71925D02*
X59150Y72000D01*
X141500Y24000D02*
Y29500D01*
X19000Y47500D02*
X36500Y65000D01*
X29500Y70500D02*
X34500D01*
X6000Y47000D02*
X29500Y70500D01*
X6000Y41500D02*
Y47000D01*
X47500Y42000D02*
X51000D01*
X47075Y40425D02*
X48000Y39500D01*
X44500Y40500D02*
X44575Y40425D01*
X47075D01*
X95000Y37500D02*
X98000D01*
X95000Y35500D02*
X98000D01*
X114500Y35000D02*
Y39000D01*
X118500Y43000D01*
X145000D01*
X149500Y47500D01*
Y57000D01*
X73000Y14000D02*
X75000Y16000D01*
X71000D02*
X73000Y18000D01*
X66500Y18500D02*
X70000D01*
X95000Y24000D02*
Y29000D01*
X93500Y22500D02*
X95000Y24000D01*
X82500D02*
X87500D01*
X86500Y22000D02*
X88500D01*
X90000Y23500D01*
Y26000D01*
X9000Y68500D02*
Y71000D01*
X7000Y66500D02*
X9000Y68500D01*
X5000Y66500D02*
X7000D01*
X5000Y64500D02*
Y66500D01*
D36*
X40500Y42000D02*
D03*
X141500Y29500D02*
D03*
X114500Y35000D02*
D03*
X54000Y28000D02*
D03*
X68000Y57000D02*
D03*
X83000Y61500D02*
D03*
X65500Y81000D02*
D03*
X69532Y84531D02*
D03*
X73500Y61532D02*
D03*
X14031Y37500D02*
D03*
X124589Y40911D02*
D03*
X99000Y48500D02*
D03*
X43031Y70906D02*
D03*
X39094Y65000D02*
D03*
X41063Y59095D02*
D03*
X43031D02*
D03*
X39094Y63032D02*
D03*
Y61063D02*
D03*
X62000Y67000D02*
D03*
X66500Y68500D02*
D03*
X46968Y59095D02*
D03*
X81500Y52500D02*
D03*
X77000D02*
D03*
X44000Y49500D02*
D03*
X75000Y16000D02*
D03*
X73000Y18000D02*
D03*
X36000Y14000D02*
D03*
X70000Y18500D02*
D03*
X68000Y12000D02*
D03*
X41457Y86457D02*
D03*
X114500Y64000D02*
D03*
X112000Y61500D02*
D03*
X109500Y59500D02*
D03*
X97000Y57000D02*
D03*
X114500Y31500D02*
D03*
X86500Y22000D02*
D03*
X87500Y24000D02*
D03*
X60500Y87000D02*
D03*
X57000Y79500D02*
D03*
X41063Y57126D02*
D03*
X37126Y59095D02*
D03*
X63000Y75500D02*
D03*
X45000Y37500D02*
D03*
X42500Y33500D02*
D03*
X100000Y87000D02*
D03*
X79500Y33000D02*
D03*
X96500Y31500D02*
D03*
X79500Y74000D02*
D03*
X79000Y83000D02*
D03*
X93500Y17500D02*
D03*
X67500Y4500D02*
D03*
X74500Y6500D02*
D03*
X105500Y20000D02*
D03*
X96000Y89500D02*
D03*
X45000Y59095D02*
D03*
X48937D02*
D03*
X47000Y52000D02*
D03*
X64000Y72000D02*
D03*
X52874Y59095D02*
D03*
X40500Y71500D02*
D03*
X55000Y79500D02*
D03*
X44000Y86500D02*
D03*
X45000Y71000D02*
D03*
X47000D02*
D03*
X50000Y79500D02*
D03*
X46000Y86500D02*
D03*
X48000Y79500D02*
D03*
X47905Y88095D02*
D03*
X50000Y87500D02*
D03*
X51000Y71000D02*
D03*
X49000D02*
D03*
X48937Y61063D02*
D03*
X50906Y68968D02*
D03*
X57500Y60000D02*
D03*
X55405Y67094D02*
D03*
X63500Y60500D02*
D03*
X55000Y65000D02*
D03*
X51000Y55000D02*
D03*
X52874Y68937D02*
D03*
X51000Y67000D02*
D03*
X47000Y61500D02*
D03*
X58500Y67500D02*
D03*
X55000Y60000D02*
D03*
X59500Y65000D02*
D03*
X57500Y54000D02*
D03*
X53000Y55000D02*
D03*
X51000Y61000D02*
D03*
X50906Y59031D02*
D03*
X52969Y61063D02*
D03*
X43031Y61063D02*
D03*
X45000D02*
D03*
X46500Y64500D02*
D03*
X42500Y66000D02*
D03*
X44500D02*
D03*
X34500Y70500D02*
D03*
X61500D02*
D03*
X59075Y71925D02*
D03*
X59000Y75500D02*
D03*
X141500Y24000D02*
D03*
X13000Y19000D02*
D03*
X5000Y64500D02*
D03*
X9000Y71000D02*
D03*
X11000Y73500D02*
D03*
X5500Y56500D02*
D03*
X32500Y65000D02*
D03*
X6000Y41500D02*
D03*
X47500Y42000D02*
D03*
X44500Y40500D02*
D03*
X98000Y37500D02*
D03*
X95000D02*
D03*
X98000Y35500D02*
D03*
X95000D02*
D03*
X149500Y57000D02*
D03*
X150000Y44500D02*
D03*
X150500Y19500D02*
D03*
X73000Y14000D02*
D03*
X71000Y16000D02*
D03*
X66500Y18500D02*
D03*
X42500Y31000D02*
D03*
X85000Y16500D02*
D03*
X80000Y14500D02*
D03*
X95000Y29000D02*
D03*
X93500Y22500D02*
D03*
X82500Y24000D02*
D03*
X90000Y26000D02*
D03*
X45000Y35000D02*
D03*
X80000Y17000D02*
D03*
X21531Y84000D02*
D03*
X21500Y87000D02*
D03*
X8500Y54500D02*
D03*
X6000Y53000D02*
D03*
X2000Y30000D02*
D03*
Y60500D02*
D03*
X97000Y26500D02*
D03*
Y24500D02*
D03*
X83500Y33000D02*
D03*
X100000Y92000D02*
D03*
X19500Y6000D02*
D03*
X15000D02*
D03*
M02*
