G04 Layer_Color=65535*
%FSLAX25Y25*%
%MOIN*%
G70*
G01*
G75*
%ADD34C,0.01000*%
%ADD44C,0.00600*%
%ADD45C,0.00197*%
%ADD46C,0.00800*%
%ADD47C,0.00591*%
%ADD48C,0.00500*%
%ADD49C,0.00200*%
%ADD50C,0.00300*%
G36*
X126360Y8400D02*
X124860D01*
Y9400D01*
X126360D01*
Y8400D01*
D02*
G37*
G36*
X103110Y29150D02*
X102110D01*
Y30650D01*
X103110D01*
Y29150D01*
D02*
G37*
G36*
X128360Y48400D02*
X126860D01*
Y49400D01*
X128360D01*
Y48400D01*
D02*
G37*
D34*
X117063Y89874D02*
X150528D01*
Y74126D02*
Y89874D01*
X117063Y74126D02*
X150528D01*
X117063D02*
Y89874D01*
X86600Y16098D02*
Y11100D01*
X87600Y10100D01*
X89599D01*
X90599Y11100D01*
Y16098D01*
X92598Y10100D02*
X94597D01*
X93598D01*
Y16098D01*
X92598Y15098D01*
X97596Y10100D02*
X99596D01*
X98596D01*
Y16098D01*
X97596Y15098D01*
X59100Y47830D02*
Y42831D01*
X60100Y41831D01*
X62099D01*
X63099Y42831D01*
Y47830D01*
X68097Y41831D02*
Y47830D01*
X65098Y44831D01*
X69097D01*
X75095Y41831D02*
X71096D01*
X75095Y45830D01*
Y46830D01*
X74095Y47830D01*
X72096D01*
X71096Y46830D01*
X59100Y35298D02*
Y30300D01*
X60100Y29300D01*
X62099D01*
X63099Y30300D01*
Y35298D01*
X68097Y29300D02*
Y35298D01*
X65098Y32299D01*
X69097D01*
X71096Y29300D02*
X73096D01*
X72096D01*
Y35298D01*
X71096Y34298D01*
X103100Y58398D02*
Y53400D01*
X104100Y52400D01*
X106099D01*
X107099Y53400D01*
Y58398D01*
X113097D02*
X109098D01*
Y55399D01*
X111097Y56399D01*
X112097D01*
X113097Y55399D01*
Y53400D01*
X112097Y52400D01*
X110098D01*
X109098Y53400D01*
X78313Y46728D02*
Y41730D01*
X79313Y40730D01*
X81312D01*
X82312Y41730D01*
Y46728D01*
X87310Y40730D02*
Y46728D01*
X84311Y43729D01*
X88310D01*
X70400Y65729D02*
Y60731D01*
X71400Y59732D01*
X73399D01*
X74399Y60731D01*
Y65729D01*
X76398Y64730D02*
X77398Y65729D01*
X79397D01*
X80397Y64730D01*
Y63730D01*
X79397Y62730D01*
X78397D01*
X79397D01*
X80397Y61731D01*
Y60731D01*
X79397Y59732D01*
X77398D01*
X76398Y60731D01*
X74000Y102561D02*
Y97563D01*
X75000Y96563D01*
X76999D01*
X77999Y97563D01*
Y102561D01*
X83997Y96563D02*
X79998D01*
X83997Y100562D01*
Y101561D01*
X82997Y102561D01*
X80998D01*
X79998Y101561D01*
X38150Y77948D02*
Y72950D01*
X39150Y71950D01*
X41149D01*
X42149Y72950D01*
Y77948D01*
X44148Y71950D02*
X46147D01*
X45148D01*
Y77948D01*
X44148Y76948D01*
X29699Y31430D02*
X28699Y32430D01*
X26700D01*
X25700Y31430D01*
Y30430D01*
X26700Y29430D01*
X28699D01*
X29699Y28431D01*
Y27431D01*
X28699Y26432D01*
X26700D01*
X25700Y27431D01*
X31698Y26432D02*
X33697D01*
X32698D01*
Y32430D01*
X31698Y31430D01*
X121200Y10600D02*
Y16598D01*
X124199D01*
X125199Y15598D01*
Y13599D01*
X124199Y12599D01*
X121200D01*
X123199D02*
X125199Y10600D01*
X131197Y16598D02*
X127198D01*
Y13599D01*
X129197Y14599D01*
X130197D01*
X131197Y13599D01*
Y11600D01*
X130197Y10600D01*
X128198D01*
X127198Y11600D01*
X133196Y15598D02*
X134196Y16598D01*
X136195D01*
X137195Y15598D01*
Y14599D01*
X136195Y13599D01*
X135196D01*
X136195D01*
X137195Y12599D01*
Y11600D01*
X136195Y10600D01*
X134196D01*
X133196Y11600D01*
X139200Y10600D02*
Y16598D01*
X142199D01*
X143199Y15598D01*
Y13599D01*
X142199Y12599D01*
X139200D01*
X141199D02*
X143199Y10600D01*
X149197Y16598D02*
X145198D01*
Y13599D01*
X147197Y14599D01*
X148197D01*
X149197Y13599D01*
Y11600D01*
X148197Y10600D01*
X146198D01*
X145198Y11600D01*
X155195Y10600D02*
X151196D01*
X155195Y14599D01*
Y15598D01*
X154195Y16598D01*
X152196D01*
X151196Y15598D01*
X129700Y10600D02*
Y16598D01*
X132699D01*
X133699Y15598D01*
Y13599D01*
X132699Y12599D01*
X129700D01*
X131699D02*
X133699Y10600D01*
X139697Y16598D02*
X135698D01*
Y13599D01*
X137697Y14599D01*
X138697D01*
X139697Y13599D01*
Y11600D01*
X138697Y10600D01*
X136698D01*
X135698Y11600D01*
X141696Y10600D02*
X143695D01*
X142696D01*
Y16598D01*
X141696Y15598D01*
X67400Y12331D02*
Y18330D01*
X70399D01*
X71399Y17330D01*
Y15330D01*
X70399Y14331D01*
X67400D01*
X69399D02*
X71399Y12331D01*
X76397D02*
Y18330D01*
X73398Y15330D01*
X77397D01*
X79396Y12331D02*
X81396D01*
X80396D01*
Y18330D01*
X79396Y17330D01*
X69400Y84732D02*
Y90729D01*
X72399D01*
X73399Y89730D01*
Y87730D01*
X72399Y86731D01*
X69400D01*
X71399D02*
X73399Y84732D01*
X75398D02*
X77397D01*
X76398D01*
Y90729D01*
X75398Y89730D01*
X84395Y84732D02*
X80396D01*
X84395Y88730D01*
Y89730D01*
X83395Y90729D01*
X81396D01*
X80396Y89730D01*
X89300Y84632D02*
Y90630D01*
X92299D01*
X93299Y89630D01*
Y87630D01*
X92299Y86631D01*
X89300D01*
X91299D02*
X93299Y84632D01*
X95298D02*
X97297D01*
X96298D01*
Y90630D01*
X95298Y89630D01*
X100296Y84632D02*
X102296D01*
X101296D01*
Y90630D01*
X100296Y89630D01*
X32900Y81700D02*
Y87698D01*
X35899D01*
X36899Y86698D01*
Y84699D01*
X35899Y83699D01*
X32900D01*
X34899D02*
X36899Y81700D01*
X42897Y87698D02*
X38898D01*
Y84699D01*
X40897Y85699D01*
X41897D01*
X42897Y84699D01*
Y82700D01*
X41897Y81700D01*
X39898D01*
X38898Y82700D01*
X50400Y80700D02*
Y86698D01*
X53399D01*
X54399Y85698D01*
Y83699D01*
X53399Y82699D01*
X50400D01*
X52399D02*
X54399Y80700D01*
X60397D02*
X56398D01*
X60397Y84699D01*
Y85698D01*
X59397Y86698D01*
X57398D01*
X56398Y85698D01*
X64400Y80700D02*
Y86698D01*
X67399D01*
X68399Y85698D01*
Y83699D01*
X67399Y82699D01*
X64400D01*
X66399D02*
X68399Y80700D01*
X70398D02*
X72397D01*
X71398D01*
Y86698D01*
X70398Y85698D01*
X91300Y68129D02*
Y62132D01*
X95299D01*
X97298Y67130D02*
X98298Y68129D01*
X100297D01*
X101297Y67130D01*
Y66130D01*
X100297Y65131D01*
X99297D01*
X100297D01*
X101297Y64131D01*
Y63131D01*
X100297Y62132D01*
X98298D01*
X97298Y63131D01*
X96900Y78761D02*
Y72763D01*
X100899D01*
X106897D02*
X102898D01*
X106897Y76762D01*
Y77761D01*
X105897Y78761D01*
X103898D01*
X102898Y77761D01*
X100900Y78761D02*
Y72763D01*
X104899D01*
X106898D02*
X108897D01*
X107898D01*
Y78761D01*
X106898Y77761D01*
X10099Y29530D02*
X8099D01*
X9099D01*
Y24531D01*
X8099Y23531D01*
X7100D01*
X6100Y24531D01*
X15097Y23531D02*
Y29530D01*
X12098Y26531D01*
X16097D01*
X18096Y23531D02*
X20096D01*
X19096D01*
Y29530D01*
X18096Y28530D01*
X11999Y92098D02*
X9999D01*
X10999D01*
Y87100D01*
X9999Y86100D01*
X9000D01*
X8000Y87100D01*
X13998Y86100D02*
X15997D01*
X14998D01*
Y92098D01*
X13998Y91098D01*
X121599Y99330D02*
X117600D01*
Y93331D01*
X121599D01*
X117600Y96330D02*
X119599D01*
X123598Y93331D02*
X125597D01*
X124598D01*
Y99330D01*
X123598Y98330D01*
X59000Y22898D02*
Y16900D01*
X61999D01*
X62999Y17900D01*
Y21898D01*
X61999Y22898D01*
X59000D01*
X67997Y16900D02*
Y22898D01*
X64998Y19899D01*
X68997D01*
X70996Y16900D02*
X72996D01*
X71996D01*
Y22898D01*
X70996Y21898D01*
X36800Y85998D02*
Y80000D01*
X39799D01*
X40799Y81000D01*
Y84998D01*
X39799Y85998D01*
X36800D01*
X42798Y80000D02*
X44797D01*
X43798D01*
Y85998D01*
X42798Y84998D01*
X31899Y39798D02*
X30899Y40798D01*
X28900D01*
X27900Y39798D01*
Y35800D01*
X28900Y34800D01*
X30899D01*
X31899Y35800D01*
X36897Y34800D02*
Y40798D01*
X33898Y37799D01*
X37897D01*
X39896Y34800D02*
X41895D01*
X40896D01*
Y40798D01*
X39896Y39798D01*
X44894D02*
X45894Y40798D01*
X47894D01*
X48893Y39798D01*
Y35800D01*
X47894Y34800D01*
X45894D01*
X44894Y35800D01*
Y39798D01*
X125199Y12098D02*
X124199Y13098D01*
X122200D01*
X121200Y12098D01*
Y8100D01*
X122200Y7100D01*
X124199D01*
X125199Y8100D01*
X131197Y13098D02*
X127198D01*
Y10099D01*
X129197Y11099D01*
X130197D01*
X131197Y10099D01*
Y8100D01*
X130197Y7100D01*
X128198D01*
X127198Y8100D01*
X133196Y13098D02*
X137195D01*
Y12098D01*
X133196Y8100D01*
Y7100D01*
X121399Y15698D02*
X120399Y16698D01*
X118400D01*
X117400Y15698D01*
Y11700D01*
X118400Y10700D01*
X120399D01*
X121399Y11700D01*
X127397Y16698D02*
X123398D01*
Y13699D01*
X125397Y14699D01*
X126397D01*
X127397Y13699D01*
Y11700D01*
X126397Y10700D01*
X124398D01*
X123398Y11700D01*
X133395Y16698D02*
X131395Y15698D01*
X129396Y13699D01*
Y11700D01*
X130396Y10700D01*
X132395D01*
X133395Y11700D01*
Y12699D01*
X132395Y13699D01*
X129396D01*
X126699Y61598D02*
X125699Y62598D01*
X123700D01*
X122700Y61598D01*
Y57600D01*
X123700Y56600D01*
X125699D01*
X126699Y57600D01*
X132697Y62598D02*
X128698D01*
Y59599D01*
X130697Y60599D01*
X131697D01*
X132697Y59599D01*
Y57600D01*
X131697Y56600D01*
X129698D01*
X128698Y57600D01*
X138695Y62598D02*
X134696D01*
Y59599D01*
X136696Y60599D01*
X137695D01*
X138695Y59599D01*
Y57600D01*
X137695Y56600D01*
X135696D01*
X134696Y57600D01*
X134699Y61598D02*
X133699Y62598D01*
X131700D01*
X130700Y61598D01*
Y57600D01*
X131700Y56600D01*
X133699D01*
X134699Y57600D01*
X140697Y62598D02*
X136698D01*
Y59599D01*
X138697Y60599D01*
X139697D01*
X140697Y59599D01*
Y57600D01*
X139697Y56600D01*
X137698D01*
X136698Y57600D01*
X145695Y56600D02*
Y62598D01*
X142696Y59599D01*
X146695D01*
X142699Y61598D02*
X141699Y62598D01*
X139700D01*
X138700Y61598D01*
Y57600D01*
X139700Y56600D01*
X141699D01*
X142699Y57600D01*
X148697Y62598D02*
X144698D01*
Y59599D01*
X146697Y60599D01*
X147697D01*
X148697Y59599D01*
Y57600D01*
X147697Y56600D01*
X145698D01*
X144698Y57600D01*
X150696Y61598D02*
X151696Y62598D01*
X153695D01*
X154695Y61598D01*
Y60599D01*
X153695Y59599D01*
X152696D01*
X153695D01*
X154695Y58599D01*
Y57600D01*
X153695Y56600D01*
X151696D01*
X150696Y57600D01*
X147399Y53198D02*
X146399Y54198D01*
X144400D01*
X143400Y53198D01*
Y49200D01*
X144400Y48200D01*
X146399D01*
X147399Y49200D01*
X153397Y54198D02*
X149398D01*
Y51199D01*
X151397Y52199D01*
X152397D01*
X153397Y51199D01*
Y49200D01*
X152397Y48200D01*
X150398D01*
X149398Y49200D01*
X159395Y48200D02*
X155396D01*
X159395Y52199D01*
Y53198D01*
X158395Y54198D01*
X156396D01*
X155396Y53198D01*
X147399Y23698D02*
X146399Y24698D01*
X144400D01*
X143400Y23698D01*
Y19700D01*
X144400Y18700D01*
X146399D01*
X147399Y19700D01*
X153397Y24698D02*
X149398D01*
Y21699D01*
X151397Y22699D01*
X152397D01*
X153397Y21699D01*
Y19700D01*
X152397Y18700D01*
X150398D01*
X149398Y19700D01*
X155396Y18700D02*
X157396D01*
X156396D01*
Y24698D01*
X155396Y23698D01*
X35399Y39798D02*
X34399Y40798D01*
X32400D01*
X31400Y39798D01*
Y35800D01*
X32400Y34800D01*
X34399D01*
X35399Y35800D01*
X40397Y34800D02*
Y40798D01*
X37398Y37799D01*
X41397D01*
X43396Y35800D02*
X44396Y34800D01*
X46395D01*
X47395Y35800D01*
Y39798D01*
X46395Y40798D01*
X44396D01*
X43396Y39798D01*
Y38799D01*
X44396Y37799D01*
X47395D01*
X45899Y39798D02*
X44899Y40798D01*
X42900D01*
X41900Y39798D01*
Y35800D01*
X42900Y34800D01*
X44899D01*
X45899Y35800D01*
X50897Y34800D02*
Y40798D01*
X47898Y37799D01*
X51897D01*
X53896Y39798D02*
X54896Y40798D01*
X56895D01*
X57895Y39798D01*
Y38799D01*
X56895Y37799D01*
X57895Y36799D01*
Y35800D01*
X56895Y34800D01*
X54896D01*
X53896Y35800D01*
Y36799D01*
X54896Y37799D01*
X53896Y38799D01*
Y39798D01*
X54896Y37799D02*
X56895D01*
X42399Y39798D02*
X41399Y40798D01*
X39400D01*
X38400Y39798D01*
Y35800D01*
X39400Y34800D01*
X41399D01*
X42399Y35800D01*
X47397Y34800D02*
Y40798D01*
X44398Y37799D01*
X48397D01*
X50396Y40798D02*
X54395D01*
Y39798D01*
X50396Y35800D01*
Y34800D01*
X38899Y39798D02*
X37899Y40798D01*
X35900D01*
X34900Y39798D01*
Y35800D01*
X35900Y34800D01*
X37899D01*
X38899Y35800D01*
X43897Y34800D02*
Y40798D01*
X40898Y37799D01*
X44897D01*
X50895Y40798D02*
X48895Y39798D01*
X46896Y37799D01*
Y35800D01*
X47896Y34800D01*
X49895D01*
X50895Y35800D01*
Y36799D01*
X49895Y37799D01*
X46896D01*
X15899Y36298D02*
X14899Y37298D01*
X12900D01*
X11900Y36298D01*
Y32300D01*
X12900Y31300D01*
X14899D01*
X15899Y32300D01*
X20897Y31300D02*
Y37298D01*
X17898Y34299D01*
X21897D01*
X27895Y37298D02*
X23896D01*
Y34299D01*
X25895Y35299D01*
X26895D01*
X27895Y34299D01*
Y32300D01*
X26895Y31300D01*
X24896D01*
X23896Y32300D01*
X19399Y36298D02*
X18399Y37298D01*
X16400D01*
X15400Y36298D01*
Y32300D01*
X16400Y31300D01*
X18399D01*
X19399Y32300D01*
X24397Y31300D02*
Y37298D01*
X21398Y34299D01*
X25397D01*
X30395Y31300D02*
Y37298D01*
X27396Y34299D01*
X31395D01*
X22899Y36330D02*
X21899Y37330D01*
X19900D01*
X18900Y36330D01*
Y32331D01*
X19900Y31332D01*
X21899D01*
X22899Y32331D01*
X27897Y31332D02*
Y37330D01*
X24898Y34330D01*
X28897D01*
X30896Y36330D02*
X31896Y37330D01*
X33895D01*
X34895Y36330D01*
Y35330D01*
X33895Y34330D01*
X32895D01*
X33895D01*
X34895Y33331D01*
Y32331D01*
X33895Y31332D01*
X31896D01*
X30896Y32331D01*
X12399Y36298D02*
X11399Y37298D01*
X9400D01*
X8400Y36298D01*
Y32300D01*
X9400Y31300D01*
X11399D01*
X12399Y32300D01*
X17397Y31300D02*
Y37298D01*
X14398Y34299D01*
X18397D01*
X24395Y31300D02*
X20396D01*
X24395Y35299D01*
Y36298D01*
X23395Y37298D01*
X21396D01*
X20396Y36298D01*
X27399Y39730D02*
X26399Y40730D01*
X24400D01*
X23400Y39730D01*
Y35731D01*
X24400Y34732D01*
X26399D01*
X27399Y35731D01*
X32397Y34732D02*
Y40730D01*
X29398Y37731D01*
X33397D01*
X35396Y34732D02*
X37396D01*
X36396D01*
Y40730D01*
X35396Y39730D01*
X97258Y49638D02*
X96258Y50638D01*
X94259D01*
X93260Y49638D01*
Y45639D01*
X94259Y44639D01*
X96258D01*
X97258Y45639D01*
X103256Y44639D02*
X99257D01*
X103256Y48638D01*
Y49638D01*
X102257Y50638D01*
X100257D01*
X99257Y49638D01*
X109254Y44639D02*
X105256D01*
X109254Y48638D01*
Y49638D01*
X108255Y50638D01*
X106255D01*
X105256Y49638D01*
X89299Y49707D02*
X88299Y50707D01*
X86300D01*
X85300Y49707D01*
Y45709D01*
X86300Y44709D01*
X88299D01*
X89299Y45709D01*
X95297Y44709D02*
X91298D01*
X95297Y48708D01*
Y49707D01*
X94297Y50707D01*
X92298D01*
X91298Y49707D01*
X97296Y44709D02*
X99296D01*
X98296D01*
Y50707D01*
X97296Y49707D01*
X114899Y91698D02*
X113899Y92698D01*
X111900D01*
X110900Y91698D01*
Y87700D01*
X111900Y86700D01*
X113899D01*
X114899Y87700D01*
X116898Y86700D02*
X118897D01*
X117898D01*
Y92698D01*
X116898Y91698D01*
X121896Y87700D02*
X122896Y86700D01*
X124896D01*
X125895Y87700D01*
Y91698D01*
X124896Y92698D01*
X122896D01*
X121896Y91698D01*
Y90699D01*
X122896Y89699D01*
X125895D01*
X95299Y63630D02*
X94299Y64630D01*
X92300D01*
X91300Y63630D01*
Y59631D01*
X92300Y58631D01*
X94299D01*
X95299Y59631D01*
X97298Y58631D02*
X99297D01*
X98298D01*
Y64630D01*
X97298Y63630D01*
X102296D02*
X103296Y64630D01*
X105296D01*
X106295Y63630D01*
Y62630D01*
X105296Y61630D01*
X106295Y60631D01*
Y59631D01*
X105296Y58631D01*
X103296D01*
X102296Y59631D01*
Y60631D01*
X103296Y61630D01*
X102296Y62630D01*
Y63630D01*
X103296Y61630D02*
X105296D01*
X95299Y59630D02*
X94299Y60629D01*
X92300D01*
X91300Y59630D01*
Y55631D01*
X92300Y54632D01*
X94299D01*
X95299Y55631D01*
X97298Y54632D02*
X99297D01*
X98298D01*
Y60629D01*
X97298Y59630D01*
X102296Y60629D02*
X106295D01*
Y59630D01*
X102296Y55631D01*
Y54632D01*
X86899Y63730D02*
X85899Y64729D01*
X83900D01*
X82900Y63730D01*
Y59731D01*
X83900Y58732D01*
X85899D01*
X86899Y59731D01*
X88898Y58732D02*
X90897D01*
X89898D01*
Y64729D01*
X88898Y63730D01*
X97895Y64729D02*
X95896Y63730D01*
X93897Y61730D01*
Y59731D01*
X94896Y58732D01*
X96895D01*
X97895Y59731D01*
Y60731D01*
X96895Y61730D01*
X93897D01*
X77299Y89630D02*
X76299Y90630D01*
X74300D01*
X73300Y89630D01*
Y85631D01*
X74300Y84632D01*
X76299D01*
X77299Y85631D01*
X79298Y84632D02*
X81297D01*
X80298D01*
Y90630D01*
X79298Y89630D01*
X88295Y90630D02*
X84297D01*
Y87630D01*
X86296Y88630D01*
X87296D01*
X88295Y87630D01*
Y85631D01*
X87296Y84632D01*
X85296D01*
X84297Y85631D01*
X85299Y89630D02*
X84299Y90630D01*
X82300D01*
X81300Y89630D01*
Y85631D01*
X82300Y84632D01*
X84299D01*
X85299Y85631D01*
X87298Y84632D02*
X89297D01*
X88298D01*
Y90630D01*
X87298Y89630D01*
X95296Y84632D02*
Y90630D01*
X92296Y87630D01*
X96295D01*
X100899Y85730D02*
X99899Y86730D01*
X97900D01*
X96900Y85730D01*
Y81731D01*
X97900Y80731D01*
X99899D01*
X100899Y81731D01*
X102898Y80731D02*
X104897D01*
X103898D01*
Y86730D01*
X102898Y85730D01*
X107896D02*
X108896Y86730D01*
X110896D01*
X111895Y85730D01*
Y84730D01*
X110896Y83731D01*
X109896D01*
X110896D01*
X111895Y82731D01*
Y81731D01*
X110896Y80731D01*
X108896D01*
X107896Y81731D01*
X107899Y85730D02*
X106899Y86730D01*
X104900D01*
X103900Y85730D01*
Y81731D01*
X104900Y80731D01*
X106899D01*
X107899Y81731D01*
X109898Y80731D02*
X111897D01*
X110898D01*
Y86730D01*
X109898Y85730D01*
X118895Y80731D02*
X114897D01*
X118895Y84730D01*
Y85730D01*
X117895Y86730D01*
X115896D01*
X114897Y85730D01*
X104399D02*
X103399Y86730D01*
X101400D01*
X100400Y85730D01*
Y81731D01*
X101400Y80731D01*
X103399D01*
X104399Y81731D01*
X106398Y80731D02*
X108397D01*
X107398D01*
Y86730D01*
X106398Y85730D01*
X111397Y80731D02*
X113396D01*
X112396D01*
Y86730D01*
X111397Y85730D01*
X90899Y63730D02*
X89899Y64729D01*
X87900D01*
X86900Y63730D01*
Y59731D01*
X87900Y58732D01*
X89899D01*
X90899Y59731D01*
X92898Y58732D02*
X94897D01*
X93898D01*
Y64729D01*
X92898Y63730D01*
X97896D02*
X98896Y64729D01*
X100896D01*
X101895Y63730D01*
Y59731D01*
X100896Y58732D01*
X98896D01*
X97896Y59731D01*
Y63730D01*
X61399Y85698D02*
X60399Y86698D01*
X58400D01*
X57400Y85698D01*
Y81700D01*
X58400Y80700D01*
X60399D01*
X61399Y81700D01*
X67397Y86698D02*
X65397Y85698D01*
X63398Y83699D01*
Y81700D01*
X64398Y80700D01*
X66397D01*
X67397Y81700D01*
Y82699D01*
X66397Y83699D01*
X63398D01*
X57899Y85698D02*
X56899Y86698D01*
X54900D01*
X53900Y85698D01*
Y81700D01*
X54900Y80700D01*
X56899D01*
X57899Y81700D01*
X63897Y86698D02*
X59898D01*
Y83699D01*
X61897Y84699D01*
X62897D01*
X63897Y83699D01*
Y81700D01*
X62897Y80700D01*
X60898D01*
X59898Y81700D01*
X64899Y85698D02*
X63899Y86698D01*
X61900D01*
X60900Y85698D01*
Y81700D01*
X61900Y80700D01*
X63899D01*
X64899Y81700D01*
X69897Y80700D02*
Y86698D01*
X66898Y83699D01*
X70897D01*
X44799Y50098D02*
X43799Y51098D01*
X41800D01*
X40800Y50098D01*
Y46100D01*
X41800Y45100D01*
X43799D01*
X44799Y46100D01*
X46798Y50098D02*
X47798Y51098D01*
X49797D01*
X50797Y50098D01*
Y49099D01*
X49797Y48099D01*
X48797D01*
X49797D01*
X50797Y47099D01*
Y46100D01*
X49797Y45100D01*
X47798D01*
X46798Y46100D01*
X36799Y46598D02*
X35799Y47598D01*
X33800D01*
X32800Y46598D01*
Y42600D01*
X33800Y41600D01*
X35799D01*
X36799Y42600D01*
X42797Y41600D02*
X38798D01*
X42797Y45599D01*
Y46598D01*
X41797Y47598D01*
X39798D01*
X38798Y46598D01*
X36799Y50098D02*
X35799Y51098D01*
X33800D01*
X32800Y50098D01*
Y46100D01*
X33800Y45100D01*
X35799D01*
X36799Y46100D01*
X38798Y45100D02*
X40797D01*
X39798D01*
Y51098D01*
X38798Y50098D01*
X149900Y16700D02*
Y22698D01*
X152899D01*
X153899Y21698D01*
Y19699D01*
X152899Y18699D01*
X149900D01*
X151899D02*
X153899Y16700D01*
X159897Y22698D02*
X155898D01*
Y19699D01*
X157897Y20699D01*
X158897D01*
X159897Y19699D01*
Y17700D01*
X158897Y16700D01*
X156898D01*
X155898Y17700D01*
X165895Y22698D02*
X163895Y21698D01*
X161896Y19699D01*
Y17700D01*
X162896Y16700D01*
X164895D01*
X165895Y17700D01*
Y18699D01*
X164895Y19699D01*
X161896D01*
X149900Y24700D02*
Y30698D01*
X152899D01*
X153899Y29698D01*
Y27699D01*
X152899Y26699D01*
X149900D01*
X151899D02*
X153899Y24700D01*
X159897Y30698D02*
X155898D01*
Y27699D01*
X157897Y28699D01*
X158897D01*
X159897Y27699D01*
Y25700D01*
X158897Y24700D01*
X156898D01*
X155898Y25700D01*
X161896Y30698D02*
X165895D01*
Y29698D01*
X161896Y25700D01*
Y24700D01*
X148900Y45700D02*
Y51698D01*
X151899D01*
X152899Y50698D01*
Y48699D01*
X151899Y47699D01*
X148900D01*
X150899D02*
X152899Y45700D01*
X158897Y51698D02*
X154898D01*
Y48699D01*
X156897Y49699D01*
X157897D01*
X158897Y48699D01*
Y46700D01*
X157897Y45700D01*
X155898D01*
X154898Y46700D01*
X160896Y50698D02*
X161896Y51698D01*
X163895D01*
X164895Y50698D01*
Y49699D01*
X163895Y48699D01*
X164895Y47699D01*
Y46700D01*
X163895Y45700D01*
X161896D01*
X160896Y46700D01*
Y47699D01*
X161896Y48699D01*
X160896Y49699D01*
Y50698D01*
X161896Y48699D02*
X163895D01*
X148900Y54200D02*
Y60198D01*
X151899D01*
X152899Y59198D01*
Y57199D01*
X151899Y56199D01*
X148900D01*
X150899D02*
X152899Y54200D01*
X158897Y60198D02*
X154898D01*
Y57199D01*
X156897Y58199D01*
X157897D01*
X158897Y57199D01*
Y55200D01*
X157897Y54200D01*
X155898D01*
X154898Y55200D01*
X160896D02*
X161896Y54200D01*
X163895D01*
X164895Y55200D01*
Y59198D01*
X163895Y60198D01*
X161896D01*
X160896Y59198D01*
Y58199D01*
X161896Y57199D01*
X164895D01*
D44*
X97300Y6800D02*
G03*
X99700Y6800I1200J0D01*
G01*
X92200D02*
X104800D01*
X92200Y-5800D02*
X104800D01*
X39450Y47450D02*
Y67550D01*
X59550D01*
Y47450D02*
Y67550D01*
X39450Y47450D02*
X59550D01*
X39450Y66566D02*
X40434Y67550D01*
X49500Y46450D02*
Y47450D01*
Y67550D02*
Y68550D01*
X59550Y57500D02*
X60550D01*
X38450D02*
X39450D01*
X7500Y78350D02*
X14040D01*
X25360Y35650D02*
X30500D01*
Y42679D01*
X25360Y78350D02*
X30500D01*
X7500Y35650D02*
Y78350D01*
Y35650D02*
X14040D01*
X30500Y71321D02*
Y78350D01*
X112660Y38850D02*
X113961D01*
X132560Y37550D02*
Y38850D01*
Y18950D02*
Y20250D01*
X112660Y18950D02*
X113961D01*
X112660Y37550D02*
Y38850D01*
X131260D02*
X132560D01*
X129420Y20810D02*
X130700Y22090D01*
X112660Y18950D02*
Y20250D01*
X131260Y18950D02*
X132560D01*
D45*
X5158Y1114D02*
X24843D01*
X5158D02*
Y20405D01*
X24843D01*
Y1114D02*
Y20405D01*
D46*
X75616Y73522D02*
X77585Y75422D01*
D47*
X69732Y56394D02*
X79673D01*
X69732Y47339D02*
Y56394D01*
Y47339D02*
X80756D01*
Y55311D01*
X79673Y56394D02*
X80756Y55311D01*
D48*
X94406Y34808D02*
Y36383D01*
X92831D02*
X94406D01*
X78632Y34808D02*
Y36383D01*
X80231D01*
X78632Y20609D02*
Y22209D01*
Y20609D02*
X80231D01*
X92831D02*
X94406Y22209D01*
D49*
X90500Y6833D02*
X91166Y6167D01*
X90500D02*
X91166Y6833D01*
X90500Y6500D02*
X91166D01*
X90833Y6167D02*
Y6833D01*
D50*
X60000Y65167D02*
X60167Y65000D01*
X60500D01*
X60666Y65167D01*
Y65833D01*
X60500Y66000D01*
X60167D01*
X60000Y65833D01*
Y65666D01*
X60167Y65500D01*
X60666D01*
X38500Y65000D02*
X38833D01*
X38667D01*
Y66000D01*
X38500Y65833D01*
X38166Y50000D02*
X37833D01*
X38000D01*
Y49167D01*
X37833Y49000D01*
X37667D01*
X37500Y49167D01*
Y65000D02*
Y65666D01*
X37833Y66000D01*
X38166Y65666D01*
Y65000D01*
Y65500D01*
X37500D01*
X38500Y49000D02*
X38833D01*
X38667D01*
Y50000D01*
X38500Y49833D01*
X20167Y81500D02*
X20500Y81833D01*
Y82500D01*
X20167Y82833D01*
X18834D01*
X18501Y82500D01*
Y81833D01*
X18834Y81500D01*
X19167D01*
X19500Y81833D01*
Y82833D01*
X35000Y71500D02*
Y72166D01*
Y71833D01*
X33001D01*
X33334Y71500D01*
X140510Y15361D02*
X137178Y18693D01*
X140510D02*
X137178Y15361D01*
X140510Y17027D02*
X137178D01*
X138844Y18693D02*
Y15361D01*
M02*
