M48
;Layer_Color=9474304
;FILE_FORMAT=2:5
INCH,LZ
;TYPE=PLATED
T1F00S00C0.00787
%
T01
X00675Y00045
X0068Y0012
X00745Y00065
X0015Y0006
X0013Y0019
X0014031Y00375
X0002Y003
X0006Y0053
X00055Y00565
X0002Y00605
X0005Y00645
X00325Y0065
X0039094
Y0063032
Y0061063
X0041063Y0059095
X0043031
X0045
X0046968
X0048937
Y0061063
X0051Y0061
X0052969Y0061063
X0052874Y0059095
X0050906Y0059031
X00575Y006
X0055Y0065
X0051Y0067
X0050906Y0068968
X0052874Y0068937
X0051Y0071
X0049
X0047
X0045
X0043031Y0070906
X00345Y00705
X0037126Y0059095
X0041063Y0057126
X0043031Y0061063
X0045
X0047Y0052
X0044Y00495
X00445Y00405
X0045Y00375
X00425Y00335
X00405Y0042
X00475
X0054Y0028
X0036Y0014
X0041457Y0086457
X0046Y00865
X005Y00875
Y00795
X0057
X0063Y00755
X0064Y0072
X00615Y00705
X0062Y0067
X00605Y0087
X00215
X00655Y0081
X0069532Y0084531
X0079Y0083
X00795Y0074
X0083Y00615
X00735Y0061532
X0068Y0057
X00665Y00685
X0077Y00525
X00815
X0097Y0057
X0099Y00485
X0098Y00375
Y00355
X00965Y00315
X0095Y0029
X0097Y00265
X00875Y0024
X00865Y0022
X0085Y00165
X00935Y00175
X01055Y002
X01145Y00315
Y0035
X0124589Y0040911
X01415Y00295
X01505Y00195
X015Y00445
X01495Y0057
X01145Y0064
X0112Y00615
X01095Y00595
X01Y0087
X0096Y00895
X00795Y0033
X0075Y0016
X0073Y0018
X007Y00185
M30
