G04 Layer_Color=8421504*
%FSLAX25Y25*%
%MOIN*%
G70*
G01*
G75*
%ADD10R,0.08000X0.01700*%
%ADD11R,0.02362X0.03347*%
%ADD12R,0.04724X0.03150*%
G04:AMPARAMS|DCode=13|XSize=27.56mil|YSize=27.56mil|CornerRadius=6.89mil|HoleSize=0mil|Usage=FLASHONLY|Rotation=0.000|XOffset=0mil|YOffset=0mil|HoleType=Round|Shape=RoundedRectangle|*
%AMROUNDEDRECTD13*
21,1,0.02756,0.01378,0,0,0.0*
21,1,0.01378,0.02756,0,0,0.0*
1,1,0.01378,0.00689,-0.00689*
1,1,0.01378,-0.00689,-0.00689*
1,1,0.01378,-0.00689,0.00689*
1,1,0.01378,0.00689,0.00689*
%
%ADD13ROUNDEDRECTD13*%
G04:AMPARAMS|DCode=14|XSize=27.56mil|YSize=78.74mil|CornerRadius=6.89mil|HoleSize=0mil|Usage=FLASHONLY|Rotation=0.000|XOffset=0mil|YOffset=0mil|HoleType=Round|Shape=RoundedRectangle|*
%AMROUNDEDRECTD14*
21,1,0.02756,0.06496,0,0,0.0*
21,1,0.01378,0.07874,0,0,0.0*
1,1,0.01378,0.00689,-0.03248*
1,1,0.01378,-0.00689,-0.03248*
1,1,0.01378,-0.00689,0.03248*
1,1,0.01378,0.00689,0.03248*
%
%ADD14ROUNDEDRECTD14*%
%ADD15R,0.03937X0.02559*%
%ADD16R,0.03937X0.02756*%
%ADD17R,0.01969X0.02362*%
%ADD18R,0.05118X0.03937*%
%ADD19R,0.04000X0.09646*%
G04:AMPARAMS|DCode=20|XSize=39mil|YSize=12mil|CornerRadius=6mil|HoleSize=0mil|Usage=FLASHONLY|Rotation=90.000|XOffset=0mil|YOffset=0mil|HoleType=Round|Shape=RoundedRectangle|*
%AMROUNDEDRECTD20*
21,1,0.03900,0.00000,0,0,90.0*
21,1,0.02700,0.01200,0,0,90.0*
1,1,0.01200,0.00000,0.01350*
1,1,0.01200,0.00000,-0.01350*
1,1,0.01200,0.00000,-0.01350*
1,1,0.01200,0.00000,0.01350*
%
%ADD20ROUNDEDRECTD20*%
G04:AMPARAMS|DCode=21|XSize=39mil|YSize=12mil|CornerRadius=6mil|HoleSize=0mil|Usage=FLASHONLY|Rotation=0.000|XOffset=0mil|YOffset=0mil|HoleType=Round|Shape=RoundedRectangle|*
%AMROUNDEDRECTD21*
21,1,0.03900,0.00000,0,0,0.0*
21,1,0.02700,0.01200,0,0,0.0*
1,1,0.01200,0.01350,0.00000*
1,1,0.01200,-0.01350,0.00000*
1,1,0.01200,-0.01350,0.00000*
1,1,0.01200,0.01350,0.00000*
%
%ADD21ROUNDEDRECTD21*%
%ADD22R,0.02362X0.01969*%
%ADD23R,0.03543X0.03150*%
G04:AMPARAMS|DCode=24|XSize=35.43mil|YSize=31.5mil|CornerRadius=7.87mil|HoleSize=0mil|Usage=FLASHONLY|Rotation=180.000|XOffset=0mil|YOffset=0mil|HoleType=Round|Shape=RoundedRectangle|*
%AMROUNDEDRECTD24*
21,1,0.03543,0.01575,0,0,180.0*
21,1,0.01969,0.03150,0,0,180.0*
1,1,0.01575,-0.00984,0.00787*
1,1,0.01575,0.00984,0.00787*
1,1,0.01575,0.00984,-0.00787*
1,1,0.01575,-0.00984,-0.00787*
%
%ADD24ROUNDEDRECTD24*%
%ADD25C,0.01100*%
%ADD26R,0.03937X0.05118*%
%ADD27R,0.05100X0.02400*%
%ADD28R,0.08700X0.07100*%
%ADD29R,0.02800X0.01200*%
%ADD30R,0.01200X0.02800*%
%ADD31R,0.00900X0.09000*%
%ADD32R,0.09000X0.00900*%
%ADD44R,0.04200X0.04200*%
D10*
X102550Y11839D02*
D03*
Y9279D02*
D03*
Y6720D02*
D03*
Y4161D02*
D03*
X85450D02*
D03*
Y6720D02*
D03*
Y9279D02*
D03*
Y11839D02*
D03*
D11*
X8138Y25642D02*
D03*
X12862D02*
D03*
D12*
X3610Y10780D02*
D03*
X17390D02*
D03*
D13*
X51000Y15563D02*
D03*
Y23563D02*
D03*
X22000D02*
D03*
Y15563D02*
D03*
D14*
X27500Y26587D02*
D03*
X45500D02*
D03*
X39500D02*
D03*
D15*
X65449Y24551D02*
D03*
Y32032D02*
D03*
Y28291D02*
D03*
Y37051D02*
D03*
Y44532D02*
D03*
Y40791D02*
D03*
D16*
X56000Y24551D02*
D03*
Y32032D02*
D03*
Y37051D02*
D03*
Y44532D02*
D03*
D17*
X4500Y34000D02*
D03*
Y30063D02*
D03*
X19500Y37500D02*
D03*
Y33563D02*
D03*
X8000Y34000D02*
D03*
Y30063D02*
D03*
X11500Y34000D02*
D03*
Y30063D02*
D03*
X15000Y34032D02*
D03*
Y30095D02*
D03*
X63500Y15032D02*
D03*
Y11095D02*
D03*
X38000Y33563D02*
D03*
Y37500D02*
D03*
X34500Y33563D02*
D03*
Y37500D02*
D03*
X31000Y33563D02*
D03*
Y37500D02*
D03*
X27500Y33563D02*
D03*
Y37500D02*
D03*
X24000Y33563D02*
D03*
Y37500D02*
D03*
X107000Y85532D02*
D03*
Y89468D02*
D03*
X97000Y71563D02*
D03*
Y75500D02*
D03*
X93000Y83500D02*
D03*
Y79563D02*
D03*
X100000Y83500D02*
D03*
Y79563D02*
D03*
X96500Y83500D02*
D03*
Y79563D02*
D03*
X83000Y57563D02*
D03*
Y61500D02*
D03*
X93000Y75500D02*
D03*
Y71563D02*
D03*
X65500Y87500D02*
D03*
Y83563D02*
D03*
X79000Y61500D02*
D03*
Y57563D02*
D03*
X57000Y83469D02*
D03*
Y79532D02*
D03*
X50000Y79532D02*
D03*
Y83469D02*
D03*
X53500Y79532D02*
D03*
Y83469D02*
D03*
X60500Y79532D02*
D03*
Y83469D02*
D03*
X46500Y83469D02*
D03*
Y79532D02*
D03*
X29000Y80532D02*
D03*
Y84469D02*
D03*
X139469Y50968D02*
D03*
Y47032D02*
D03*
Y21468D02*
D03*
Y17531D02*
D03*
X113500Y9532D02*
D03*
Y13468D02*
D03*
X146000Y27468D02*
D03*
Y23531D02*
D03*
Y19468D02*
D03*
Y15531D02*
D03*
X145000Y53031D02*
D03*
Y56968D02*
D03*
Y44532D02*
D03*
Y48469D02*
D03*
D18*
X56500Y19031D02*
D03*
Y11157D02*
D03*
D19*
X116500Y89500D02*
D03*
D20*
X82890Y83222D02*
D03*
Y66841D02*
D03*
X80990D02*
D03*
X78990D02*
D03*
X77049D02*
D03*
X75107D02*
D03*
X80990Y83222D02*
D03*
X78990D02*
D03*
X77048D02*
D03*
X75107D02*
D03*
D21*
X87190Y78922D02*
D03*
Y77022D02*
D03*
Y75022D02*
D03*
Y73080D02*
D03*
Y71139D02*
D03*
X70810Y71139D02*
D03*
Y73080D02*
D03*
Y75022D02*
D03*
Y77022D02*
D03*
Y78922D02*
D03*
D22*
X91469Y65031D02*
D03*
X87532D02*
D03*
X91469Y61532D02*
D03*
X87532D02*
D03*
X91469Y57531D02*
D03*
X87532D02*
D03*
X89468Y87532D02*
D03*
X85532D02*
D03*
X77531Y87532D02*
D03*
X81468D02*
D03*
X69532D02*
D03*
X73469D02*
D03*
X29032Y44500D02*
D03*
X32969D02*
D03*
X29032Y48000D02*
D03*
X32969D02*
D03*
X37031D02*
D03*
X40968D02*
D03*
X85469Y47609D02*
D03*
X81532D02*
D03*
X89531Y47609D02*
D03*
X93468D02*
D03*
X121437Y10000D02*
D03*
X117500D02*
D03*
X121437Y13500D02*
D03*
X117500D02*
D03*
X135500Y13500D02*
D03*
X139437D02*
D03*
X126000D02*
D03*
X129937D02*
D03*
X127000Y59500D02*
D03*
X130937D02*
D03*
X138937Y59500D02*
D03*
X135000D02*
D03*
X122937D02*
D03*
X119000D02*
D03*
D23*
X73500Y57201D02*
D03*
X67988D02*
D03*
Y61532D02*
D03*
D24*
X73500D02*
D03*
D25*
X52874Y57126D02*
D03*
X50906D02*
D03*
X48937D02*
D03*
X46968D02*
D03*
X45000D02*
D03*
X43031D02*
D03*
X41063D02*
D03*
X39094D02*
D03*
X37126D02*
D03*
X52874Y59095D02*
D03*
X50906D02*
D03*
X48937D02*
D03*
X46968D02*
D03*
X45000D02*
D03*
X43031D02*
D03*
X41063D02*
D03*
X39094D02*
D03*
X37126D02*
D03*
X52874Y61063D02*
D03*
X50906D02*
D03*
X48937D02*
D03*
X46968D02*
D03*
X45000D02*
D03*
X43031D02*
D03*
X41063D02*
D03*
X39094D02*
D03*
X37126D02*
D03*
X52874Y63032D02*
D03*
X50906D02*
D03*
X48937D02*
D03*
X46968D02*
D03*
X45000D02*
D03*
X43031D02*
D03*
X41063D02*
D03*
X39094D02*
D03*
X37126D02*
D03*
X52874Y65000D02*
D03*
X50906D02*
D03*
X48937D02*
D03*
X46968D02*
D03*
X45000D02*
D03*
X43031D02*
D03*
X41063D02*
D03*
X39094D02*
D03*
X37126D02*
D03*
X52874Y66969D02*
D03*
X50906D02*
D03*
X48937D02*
D03*
X46968D02*
D03*
X45000D02*
D03*
X43031D02*
D03*
X41063D02*
D03*
X39094D02*
D03*
X37126D02*
D03*
X52874Y68937D02*
D03*
X50906D02*
D03*
X48937D02*
D03*
X46968D02*
D03*
X45000D02*
D03*
X43031D02*
D03*
X39094D02*
D03*
X37126D02*
D03*
X52874Y70906D02*
D03*
X50906D02*
D03*
X48937D02*
D03*
X46968D02*
D03*
X45000D02*
D03*
X43031D02*
D03*
X41063D02*
D03*
X39094D02*
D03*
X37126D02*
D03*
X52874Y72874D02*
D03*
X50906D02*
D03*
X48937D02*
D03*
X46968D02*
D03*
X45000D02*
D03*
X43031D02*
D03*
X41063D02*
D03*
X39094D02*
D03*
X37126D02*
D03*
D26*
X41500Y81500D02*
D03*
X33626D02*
D03*
D27*
X28000Y76311D02*
D03*
Y72374D02*
D03*
Y68437D02*
D03*
Y64500D02*
D03*
Y60563D02*
D03*
Y56626D02*
D03*
Y52689D02*
D03*
D28*
X15200Y44250D02*
D03*
Y84750D02*
D03*
D29*
X89413Y31009D02*
D03*
Y33009D02*
D03*
Y35009D02*
D03*
Y36993D02*
D03*
Y38962D02*
D03*
Y40930D02*
D03*
X74632D02*
D03*
Y38962D02*
D03*
Y36993D02*
D03*
Y35009D02*
D03*
Y33009D02*
D03*
Y31009D02*
D03*
D30*
X86953Y43391D02*
D03*
X84984D02*
D03*
X83016D02*
D03*
X81032D02*
D03*
X79031D02*
D03*
X77031D02*
D03*
Y28609D02*
D03*
X79031D02*
D03*
X81032D02*
D03*
X83016D02*
D03*
X84984D02*
D03*
X86953D02*
D03*
D31*
X125000Y22500D02*
D03*
X123031D02*
D03*
X121063D02*
D03*
X119095D02*
D03*
X117126D02*
D03*
X115157D02*
D03*
X113189D02*
D03*
X111221D02*
D03*
Y50300D02*
D03*
X113189D02*
D03*
X115157D02*
D03*
X117126D02*
D03*
X119095D02*
D03*
X121063D02*
D03*
X123031D02*
D03*
X125000D02*
D03*
D32*
X104210Y29510D02*
D03*
Y31479D02*
D03*
Y33447D02*
D03*
Y35416D02*
D03*
Y37384D02*
D03*
Y39353D02*
D03*
Y41321D02*
D03*
Y43290D02*
D03*
X132010D02*
D03*
Y41321D02*
D03*
Y39353D02*
D03*
Y37384D02*
D03*
Y35416D02*
D03*
Y33447D02*
D03*
Y31479D02*
D03*
Y29510D02*
D03*
D44*
X78990Y75021D02*
D03*
M02*
