M48
;Layer_Color=9474304
;FILE_FORMAT=2:5
INCH,LZ
;TYPE=PLATED
T1F00S00C0.00787
%
T01
X00195Y0006
X00425Y0031
X0045Y0035
X0051Y0055
X0053
X00575Y0054
X0055Y006
X0055405Y0067094
X00585Y00675
X00595Y0065
X0059075Y0071925
X0059Y00755
X0055Y00795
X0048
X0047905Y0088095
X0044Y00865
X00405Y00715
X00425Y0066
X00445
X00465Y00645
X0047Y00615
X00635Y00605
X00085Y00545
X0006Y00415
X0009Y0071
X0011Y00735
X0021531Y0084
X01Y0092
X0095Y00375
Y00355
X0097Y00245
X00935Y00225
X009Y0026
X00825Y0024
X008Y0017
Y00145
X0073Y0014
X0071Y0016
X00665Y00185
X00835Y0033
X01415Y0024
M30
