G04 Layer_Color=8388736*
%FSLAX25Y25*%
%MOIN*%
G70*
G01*
G75*
%ADD39R,0.05315X0.10827*%
%ADD40R,0.02769X0.03162*%
%ADD41R,0.03162X0.02769*%
%ADD42R,0.09800X0.01700*%
%ADD43R,0.01700X0.09800*%
%ADD44R,0.02000X0.03600*%
%ADD45R,0.03600X0.02000*%
%ADD46R,0.09500X0.07900*%
%ADD47R,0.05900X0.03200*%
%ADD48R,0.04737X0.05918*%
G04:AMPARAMS|DCode=49|XSize=43.43mil|YSize=39.5mil|CornerRadius=11.87mil|HoleSize=0mil|Usage=FLASHONLY|Rotation=180.000|XOffset=0mil|YOffset=0mil|HoleType=Round|Shape=RoundedRectangle|*
%AMROUNDEDRECTD49*
21,1,0.04343,0.01575,0,0,180.0*
21,1,0.01969,0.03950,0,0,180.0*
1,1,0.02375,-0.00984,0.00787*
1,1,0.02375,0.00984,0.00787*
1,1,0.02375,0.00984,-0.00787*
1,1,0.02375,-0.00984,-0.00787*
%
%ADD49ROUNDEDRECTD49*%
%ADD50R,0.04343X0.03950*%
G04:AMPARAMS|DCode=51|XSize=47mil|YSize=20mil|CornerRadius=10mil|HoleSize=0mil|Usage=FLASHONLY|Rotation=90.000|XOffset=0mil|YOffset=0mil|HoleType=Round|Shape=RoundedRectangle|*
%AMROUNDEDRECTD51*
21,1,0.04700,0.00000,0,0,90.0*
21,1,0.02700,0.02000,0,0,90.0*
1,1,0.02000,0.00000,0.01350*
1,1,0.02000,0.00000,-0.01350*
1,1,0.02000,0.00000,-0.01350*
1,1,0.02000,0.00000,0.01350*
%
%ADD51ROUNDEDRECTD51*%
G04:AMPARAMS|DCode=52|XSize=47mil|YSize=20mil|CornerRadius=10mil|HoleSize=0mil|Usage=FLASHONLY|Rotation=0.000|XOffset=0mil|YOffset=0mil|HoleType=Round|Shape=RoundedRectangle|*
%AMROUNDEDRECTD52*
21,1,0.04700,0.00000,0,0,0.0*
21,1,0.02700,0.02000,0,0,0.0*
1,1,0.02000,0.01350,0.00000*
1,1,0.02000,-0.01350,0.00000*
1,1,0.02000,-0.01350,0.00000*
1,1,0.02000,0.01350,0.00000*
%
%ADD52ROUNDEDRECTD52*%
%ADD53R,0.04800X0.10446*%
%ADD54R,0.04737X0.03556*%
%ADD55R,0.04737X0.03359*%
%ADD56R,0.05918X0.04737*%
G04:AMPARAMS|DCode=57|XSize=35.56mil|YSize=86.74mil|CornerRadius=10.89mil|HoleSize=0mil|Usage=FLASHONLY|Rotation=0.000|XOffset=0mil|YOffset=0mil|HoleType=Round|Shape=RoundedRectangle|*
%AMROUNDEDRECTD57*
21,1,0.03556,0.06496,0,0,0.0*
21,1,0.01378,0.08674,0,0,0.0*
1,1,0.02178,0.00689,-0.03248*
1,1,0.02178,-0.00689,-0.03248*
1,1,0.02178,-0.00689,0.03248*
1,1,0.02178,0.00689,0.03248*
%
%ADD57ROUNDEDRECTD57*%
G04:AMPARAMS|DCode=58|XSize=35.56mil|YSize=35.56mil|CornerRadius=10.89mil|HoleSize=0mil|Usage=FLASHONLY|Rotation=0.000|XOffset=0mil|YOffset=0mil|HoleType=Round|Shape=RoundedRectangle|*
%AMROUNDEDRECTD58*
21,1,0.03556,0.01378,0,0,0.0*
21,1,0.01378,0.03556,0,0,0.0*
1,1,0.02178,0.00689,-0.00689*
1,1,0.02178,-0.00689,-0.00689*
1,1,0.02178,-0.00689,0.00689*
1,1,0.02178,0.00689,0.00689*
%
%ADD58ROUNDEDRECTD58*%
%ADD59R,0.05354X0.03780*%
%ADD60R,0.02992X0.03976*%
%ADD61R,0.08800X0.02500*%
%ADD62C,0.01900*%
%ADD63C,0.02375*%
%ADD64C,0.04343*%
D39*
X142484Y89500D02*
D03*
D40*
X145000Y48469D02*
D03*
Y44532D02*
D03*
Y56968D02*
D03*
Y53031D02*
D03*
X146000Y15531D02*
D03*
Y19468D02*
D03*
Y23531D02*
D03*
Y27468D02*
D03*
X113500Y13468D02*
D03*
Y9532D02*
D03*
X139469Y17531D02*
D03*
Y21468D02*
D03*
Y47032D02*
D03*
Y50968D02*
D03*
X29000Y84469D02*
D03*
Y80532D02*
D03*
X46500Y79532D02*
D03*
Y83469D02*
D03*
X60500Y83469D02*
D03*
Y79532D02*
D03*
X53500Y83469D02*
D03*
Y79532D02*
D03*
X50000Y83469D02*
D03*
Y79532D02*
D03*
X57000Y79532D02*
D03*
Y83469D02*
D03*
X79000Y57563D02*
D03*
Y61500D02*
D03*
X65500Y83563D02*
D03*
Y87500D02*
D03*
X93000Y71563D02*
D03*
Y75500D02*
D03*
X83000Y61500D02*
D03*
Y57563D02*
D03*
X96500Y79563D02*
D03*
Y83500D02*
D03*
X100000Y79563D02*
D03*
Y83500D02*
D03*
X93000Y79563D02*
D03*
Y83500D02*
D03*
X97000Y75500D02*
D03*
Y71563D02*
D03*
X107000Y89468D02*
D03*
Y85532D02*
D03*
X24000Y37500D02*
D03*
Y33563D02*
D03*
X27500Y37500D02*
D03*
Y33563D02*
D03*
X31000Y37500D02*
D03*
Y33563D02*
D03*
X34500Y37500D02*
D03*
Y33563D02*
D03*
X38000Y37500D02*
D03*
Y33563D02*
D03*
X63500Y11095D02*
D03*
Y15032D02*
D03*
X15000Y30095D02*
D03*
Y34032D02*
D03*
X11500Y30063D02*
D03*
Y34000D02*
D03*
X8000Y30063D02*
D03*
Y34000D02*
D03*
X19500Y33563D02*
D03*
Y37500D02*
D03*
X4500Y30063D02*
D03*
Y34000D02*
D03*
D41*
X119000Y59500D02*
D03*
X122937D02*
D03*
X135000D02*
D03*
X138937D02*
D03*
X130937Y59500D02*
D03*
X127000D02*
D03*
X129937Y13500D02*
D03*
X126000D02*
D03*
X139437D02*
D03*
X135500D02*
D03*
X117500Y13500D02*
D03*
X121437D02*
D03*
X117500Y10000D02*
D03*
X121437D02*
D03*
X93468Y47609D02*
D03*
X89531D02*
D03*
X81532Y47609D02*
D03*
X85469D02*
D03*
X40968Y48000D02*
D03*
X37031D02*
D03*
X32969D02*
D03*
X29032D02*
D03*
X32969Y44500D02*
D03*
X29032D02*
D03*
X73469Y87532D02*
D03*
X69532D02*
D03*
X81468D02*
D03*
X77531D02*
D03*
X85532Y87532D02*
D03*
X89468D02*
D03*
X87532Y57531D02*
D03*
X91469D02*
D03*
X87532Y61532D02*
D03*
X91469D02*
D03*
X87532Y65031D02*
D03*
X91469D02*
D03*
D42*
X132010Y29510D02*
D03*
Y31479D02*
D03*
Y33447D02*
D03*
Y35416D02*
D03*
Y37384D02*
D03*
Y39353D02*
D03*
Y41321D02*
D03*
Y43290D02*
D03*
X104210D02*
D03*
Y41321D02*
D03*
Y39353D02*
D03*
Y37384D02*
D03*
Y35416D02*
D03*
Y33447D02*
D03*
Y31479D02*
D03*
Y29510D02*
D03*
D43*
X125000Y50300D02*
D03*
X123031D02*
D03*
X121063D02*
D03*
X119095D02*
D03*
X117126D02*
D03*
X115157D02*
D03*
X113189D02*
D03*
X111221D02*
D03*
Y22500D02*
D03*
X113189D02*
D03*
X115157D02*
D03*
X117126D02*
D03*
X119095D02*
D03*
X121063D02*
D03*
X123031D02*
D03*
X125000D02*
D03*
D44*
X86953Y28609D02*
D03*
X84984D02*
D03*
X83016D02*
D03*
X81032D02*
D03*
X79031D02*
D03*
X77031D02*
D03*
Y43391D02*
D03*
X79031D02*
D03*
X81032D02*
D03*
X83016D02*
D03*
X84984D02*
D03*
X86953D02*
D03*
D45*
X74632Y31009D02*
D03*
Y33009D02*
D03*
Y35009D02*
D03*
Y36993D02*
D03*
Y38962D02*
D03*
Y40930D02*
D03*
X89413D02*
D03*
Y38962D02*
D03*
Y36993D02*
D03*
Y35009D02*
D03*
Y33009D02*
D03*
Y31009D02*
D03*
D46*
X15200Y84750D02*
D03*
Y44250D02*
D03*
D47*
X28000Y52689D02*
D03*
Y56626D02*
D03*
Y60563D02*
D03*
Y64500D02*
D03*
Y68437D02*
D03*
Y72374D02*
D03*
Y76311D02*
D03*
D48*
X33626Y81500D02*
D03*
X41500D02*
D03*
D49*
X73500Y61532D02*
D03*
D50*
X67988D02*
D03*
Y57201D02*
D03*
X73500D02*
D03*
D51*
X75107Y83222D02*
D03*
X77048D02*
D03*
X78990D02*
D03*
X80990D02*
D03*
X75107Y66841D02*
D03*
X77049D02*
D03*
X78990D02*
D03*
X80990D02*
D03*
X82890D02*
D03*
Y83222D02*
D03*
D52*
X70810Y78922D02*
D03*
Y77022D02*
D03*
Y75022D02*
D03*
Y73080D02*
D03*
Y71139D02*
D03*
X87190Y71139D02*
D03*
Y73080D02*
D03*
Y75022D02*
D03*
Y77022D02*
D03*
Y78922D02*
D03*
D53*
X116500Y89500D02*
D03*
D54*
X56000Y44532D02*
D03*
Y37051D02*
D03*
Y32032D02*
D03*
Y24551D02*
D03*
D55*
X65449Y40791D02*
D03*
Y44532D02*
D03*
Y37051D02*
D03*
Y28291D02*
D03*
Y32032D02*
D03*
Y24551D02*
D03*
D56*
X56500Y11157D02*
D03*
Y19031D02*
D03*
D57*
X39500Y26587D02*
D03*
X45500D02*
D03*
X27500D02*
D03*
D58*
X22000Y15563D02*
D03*
Y23563D02*
D03*
X51000D02*
D03*
Y15563D02*
D03*
D59*
X17390Y10780D02*
D03*
X3610D02*
D03*
D60*
X12862Y25642D02*
D03*
X8138D02*
D03*
D61*
X85450Y11839D02*
D03*
Y9279D02*
D03*
Y6720D02*
D03*
Y4161D02*
D03*
X102550D02*
D03*
Y6720D02*
D03*
Y9279D02*
D03*
Y11839D02*
D03*
D62*
X50906Y57126D02*
D03*
X48937D02*
D03*
X46968D02*
D03*
X43031D02*
D03*
X41063D02*
D03*
X39094D02*
D03*
X37126D02*
D03*
X52874Y59095D02*
D03*
X50906D02*
D03*
X48937D02*
D03*
X46968D02*
D03*
X45000D02*
D03*
X43031D02*
D03*
X41063D02*
D03*
X37126D02*
D03*
X52874Y61063D02*
D03*
X50906D02*
D03*
X48937D02*
D03*
X45000D02*
D03*
X43031D02*
D03*
X39094D02*
D03*
X52874Y63032D02*
D03*
X39094D02*
D03*
X52874Y65000D02*
D03*
X48937D02*
D03*
X39094D02*
D03*
X37126D02*
D03*
X52874Y66969D02*
D03*
X50906D02*
D03*
X48937D02*
D03*
X52874Y68937D02*
D03*
X50906D02*
D03*
X52874Y70906D02*
D03*
X50906D02*
D03*
X48937D02*
D03*
X46968D02*
D03*
X45000D02*
D03*
X43031D02*
D03*
X52874Y72874D02*
D03*
X48937D02*
D03*
X46968D02*
D03*
X45000D02*
D03*
X43031D02*
D03*
X39094D02*
D03*
D63*
X40500Y42000D02*
D03*
X141500Y29500D02*
D03*
X114500Y35000D02*
D03*
X54000Y28000D02*
D03*
X68000Y57000D02*
D03*
X83000Y61500D02*
D03*
X65500Y81000D02*
D03*
X69532Y84531D02*
D03*
X73500Y61532D02*
D03*
X14031Y37500D02*
D03*
X124589Y40911D02*
D03*
X99000Y48500D02*
D03*
X43031Y70906D02*
D03*
X39094Y65000D02*
D03*
X41063Y59095D02*
D03*
X43031D02*
D03*
X39094Y63032D02*
D03*
Y61063D02*
D03*
X62000Y67000D02*
D03*
X66500Y68500D02*
D03*
X46968Y59095D02*
D03*
X81500Y52500D02*
D03*
X77000D02*
D03*
X44000Y49500D02*
D03*
X75000Y16000D02*
D03*
X73000Y18000D02*
D03*
X36000Y14000D02*
D03*
X70000Y18500D02*
D03*
X68000Y12000D02*
D03*
X41457Y86457D02*
D03*
X114500Y64000D02*
D03*
X112000Y61500D02*
D03*
X109500Y59500D02*
D03*
X97000Y57000D02*
D03*
X114500Y31500D02*
D03*
X86500Y22000D02*
D03*
X87500Y24000D02*
D03*
X60500Y87000D02*
D03*
X57000Y79500D02*
D03*
X41063Y57126D02*
D03*
X37126Y59095D02*
D03*
X63000Y75500D02*
D03*
X45000Y37500D02*
D03*
X42500Y33500D02*
D03*
X100000Y87000D02*
D03*
X79500Y33000D02*
D03*
X96500Y31500D02*
D03*
X79500Y74000D02*
D03*
X79000Y83000D02*
D03*
X93500Y17500D02*
D03*
X67500Y4500D02*
D03*
X74500Y6500D02*
D03*
X105500Y20000D02*
D03*
X96000Y89500D02*
D03*
X45000Y59095D02*
D03*
X48937D02*
D03*
X47000Y52000D02*
D03*
X64000Y72000D02*
D03*
X52874Y59095D02*
D03*
X45000Y71000D02*
D03*
X47000D02*
D03*
X50000Y79500D02*
D03*
X46000Y86500D02*
D03*
X50000Y87500D02*
D03*
X51000Y71000D02*
D03*
X49000D02*
D03*
X48937Y61063D02*
D03*
X50906Y68968D02*
D03*
X57500Y60000D02*
D03*
X55000Y65000D02*
D03*
X52874Y68937D02*
D03*
X51000Y67000D02*
D03*
Y61000D02*
D03*
X50906Y59031D02*
D03*
X52969Y61063D02*
D03*
X43031Y61063D02*
D03*
X45000D02*
D03*
X34500Y70500D02*
D03*
X61500D02*
D03*
X13000Y19000D02*
D03*
X5000Y64500D02*
D03*
X5500Y56500D02*
D03*
X32500Y65000D02*
D03*
X47500Y42000D02*
D03*
X44500Y40500D02*
D03*
X98000Y37500D02*
D03*
Y35500D02*
D03*
X149500Y57000D02*
D03*
X150000Y44500D02*
D03*
X150500Y19500D02*
D03*
X150000Y35500D02*
D03*
X94500Y68000D02*
D03*
X85000Y16500D02*
D03*
X95000Y29000D02*
D03*
X21500Y87000D02*
D03*
X6000Y53000D02*
D03*
X2000Y30000D02*
D03*
Y60500D02*
D03*
X97000Y26500D02*
D03*
X15000Y6000D02*
D03*
X12000D02*
D03*
D64*
X30500Y19563D02*
D03*
X42500D02*
D03*
M02*
