G04 Layer_Color=128*
%FSLAX25Y25*%
%MOIN*%
G70*
G01*
G75*
%ADD67C,0.00200*%
D67*
X40106Y42000D02*
X40894D01*
X40500Y41606D02*
Y42394D01*
X141106Y29500D02*
X141894D01*
X141500Y29106D02*
Y29894D01*
X114106Y35000D02*
X114894D01*
X114500Y34606D02*
Y35394D01*
X53606Y28000D02*
X54394D01*
X54000Y27606D02*
Y28394D01*
X67606Y57000D02*
X68394D01*
X68000Y56606D02*
Y57394D01*
X82606Y61500D02*
X83394D01*
X83000Y61106D02*
Y61894D01*
X65106Y81000D02*
X65894D01*
X65500Y80606D02*
Y81394D01*
X69138Y84531D02*
X69925D01*
X69532Y84138D02*
Y84925D01*
X73106Y61532D02*
X73894D01*
X73500Y61138D02*
Y61925D01*
X13638Y37500D02*
X14425D01*
X14031Y37106D02*
Y37894D01*
X124196Y40911D02*
X124983D01*
X124589Y40517D02*
Y41304D01*
X98606Y48500D02*
X99394D01*
X99000Y48106D02*
Y48894D01*
X42638Y70906D02*
X43425D01*
X43031Y70512D02*
Y71299D01*
X38701Y65000D02*
X39488D01*
X39094Y64606D02*
Y65394D01*
X40669Y59095D02*
X41457D01*
X41063Y58701D02*
Y59488D01*
X42638Y59095D02*
X43425D01*
X43031Y58701D02*
Y59488D01*
X38701Y63032D02*
X39488D01*
X39094Y62638D02*
Y63425D01*
X38701Y61063D02*
X39488D01*
X39094Y60669D02*
Y61457D01*
X61606Y67000D02*
X62394D01*
X62000Y66606D02*
Y67394D01*
X66106Y68500D02*
X66894D01*
X66500Y68106D02*
Y68894D01*
X46575Y59095D02*
X47362D01*
X46968Y58701D02*
Y59488D01*
X81106Y52500D02*
X81894D01*
X81500Y52106D02*
Y52894D01*
X76606Y52500D02*
X77394D01*
X77000Y52106D02*
Y52894D01*
X43606Y49500D02*
X44394D01*
X44000Y49106D02*
Y49894D01*
X74606Y16000D02*
X75394D01*
X75000Y15606D02*
Y16394D01*
X72606Y18000D02*
X73394D01*
X73000Y17606D02*
Y18394D01*
X35606Y14000D02*
X36394D01*
X36000Y13606D02*
Y14394D01*
X69606Y18500D02*
X70394D01*
X70000Y18106D02*
Y18894D01*
X67606Y12000D02*
X68394D01*
X68000Y11606D02*
Y12394D01*
X41063Y86457D02*
X41850D01*
X41457Y86063D02*
Y86850D01*
X114106Y64000D02*
X114894D01*
X114500Y63606D02*
Y64394D01*
X111606Y61500D02*
X112394D01*
X112000Y61106D02*
Y61894D01*
X109106Y59500D02*
X109894D01*
X109500Y59106D02*
Y59894D01*
X96606Y57000D02*
X97394D01*
X97000Y56606D02*
Y57394D01*
X114106Y31500D02*
X114894D01*
X114500Y31106D02*
Y31894D01*
X86106Y22000D02*
X86894D01*
X86500Y21606D02*
Y22394D01*
X87106Y24000D02*
X87894D01*
X87500Y23606D02*
Y24394D01*
X60106Y87000D02*
X60894D01*
X60500Y86606D02*
Y87394D01*
X56606Y79500D02*
X57394D01*
X57000Y79106D02*
Y79894D01*
X40669Y57126D02*
X41457D01*
X41063Y56732D02*
Y57520D01*
X36732Y59095D02*
X37520D01*
X37126Y58701D02*
Y59488D01*
X62606Y75500D02*
X63394D01*
X63000Y75106D02*
Y75894D01*
X44606Y37500D02*
X45394D01*
X45000Y37106D02*
Y37894D01*
X42106Y33500D02*
X42894D01*
X42500Y33106D02*
Y33894D01*
X99606Y87000D02*
X100394D01*
X100000Y86606D02*
Y87394D01*
X79106Y33000D02*
X79894D01*
X79500Y32606D02*
Y33394D01*
X96106Y31500D02*
X96894D01*
X96500Y31106D02*
Y31894D01*
X79106Y74000D02*
X79894D01*
X79500Y73606D02*
Y74394D01*
X78606Y83000D02*
X79394D01*
X79000Y82606D02*
Y83394D01*
X93106Y17500D02*
X93894D01*
X93500Y17106D02*
Y17894D01*
X67106Y4500D02*
X67894D01*
X67500Y4106D02*
Y4894D01*
X74106Y6500D02*
X74894D01*
X74500Y6106D02*
Y6894D01*
X105106Y20000D02*
X105894D01*
X105500Y19606D02*
Y20394D01*
X95606Y89500D02*
X96394D01*
X96000Y89106D02*
Y89894D01*
X44606Y59095D02*
X45394D01*
X45000Y58701D02*
Y59488D01*
X48543Y59095D02*
X49331D01*
X48937Y58701D02*
Y59488D01*
X46606Y52000D02*
X47394D01*
X47000Y51606D02*
Y52394D01*
X63606Y72000D02*
X64394D01*
X64000Y71606D02*
Y72394D01*
X52480Y59095D02*
X53268D01*
X52874Y58701D02*
Y59488D01*
X44606Y71000D02*
X45394D01*
X45000Y70606D02*
Y71394D01*
X46606Y71000D02*
X47394D01*
X47000Y70606D02*
Y71394D01*
X49606Y79500D02*
X50394D01*
X50000Y79106D02*
Y79894D01*
X45606Y86500D02*
X46394D01*
X46000Y86106D02*
Y86894D01*
X49606Y87500D02*
X50394D01*
X50000Y87106D02*
Y87894D01*
X50606Y71000D02*
X51394D01*
X51000Y70606D02*
Y71394D01*
X48606Y71000D02*
X49394D01*
X49000Y70606D02*
Y71394D01*
X48543Y61063D02*
X49331D01*
X48937Y60669D02*
Y61457D01*
X50512Y68968D02*
X51299D01*
X50906Y68575D02*
Y69362D01*
X57106Y60000D02*
X57894D01*
X57500Y59606D02*
Y60394D01*
X54606Y65000D02*
X55394D01*
X55000Y64606D02*
Y65394D01*
X52480Y68937D02*
X53268D01*
X52874Y68543D02*
Y69331D01*
X50606Y67000D02*
X51394D01*
X51000Y66606D02*
Y67394D01*
X50606Y61000D02*
X51394D01*
X51000Y60606D02*
Y61394D01*
X50512Y59031D02*
X51299D01*
X50906Y58638D02*
Y59425D01*
X52575Y61063D02*
X53362D01*
X52969Y60669D02*
Y61457D01*
X42638Y61063D02*
X43425D01*
X43031Y60669D02*
Y61457D01*
X44606Y61063D02*
X45394D01*
X45000Y60669D02*
Y61457D01*
X34106Y70500D02*
X34894D01*
X34500Y70106D02*
Y70894D01*
X61106Y70500D02*
X61894D01*
X61500Y70106D02*
Y70894D01*
X12606Y19000D02*
X13394D01*
X13000Y18606D02*
Y19394D01*
X4606Y64500D02*
X5394D01*
X5000Y64106D02*
Y64894D01*
X5106Y56500D02*
X5894D01*
X5500Y56106D02*
Y56894D01*
X32106Y65000D02*
X32894D01*
X32500Y64606D02*
Y65394D01*
X47106Y42000D02*
X47894D01*
X47500Y41606D02*
Y42394D01*
X44106Y40500D02*
X44894D01*
X44500Y40106D02*
Y40894D01*
X97606Y37500D02*
X98394D01*
X98000Y37106D02*
Y37894D01*
X97606Y35500D02*
X98394D01*
X98000Y35106D02*
Y35894D01*
X149106Y57000D02*
X149894D01*
X149500Y56606D02*
Y57394D01*
X149606Y44500D02*
X150394D01*
X150000Y44106D02*
Y44894D01*
X150106Y19500D02*
X150894D01*
X150500Y19106D02*
Y19894D01*
X84606Y16500D02*
X85394D01*
X85000Y16106D02*
Y16894D01*
X94606Y29000D02*
X95394D01*
X95000Y28606D02*
Y29394D01*
X21106Y87000D02*
X21894D01*
X21500Y86606D02*
Y87394D01*
X5606Y53000D02*
X6394D01*
X6000Y52606D02*
Y53394D01*
X1606Y30000D02*
X2394D01*
X2000Y29606D02*
Y30394D01*
X1606Y60500D02*
X2394D01*
X2000Y60106D02*
Y60894D01*
X96606Y26500D02*
X97394D01*
X97000Y26106D02*
Y26894D01*
X14606Y6000D02*
X15394D01*
X15000Y5606D02*
Y6394D01*
M02*
