G04 Layer_Color=128*
%FSLAX25Y25*%
%MOIN*%
G70*
G01*
G75*
%ADD67C,0.00200*%
D67*
X40106Y71500D02*
X40894D01*
X40500Y71106D02*
Y71894D01*
X54606Y79500D02*
X55394D01*
X55000Y79106D02*
Y79894D01*
X43606Y86500D02*
X44394D01*
X44000Y86106D02*
Y86894D01*
X47606Y79500D02*
X48394D01*
X48000Y79106D02*
Y79894D01*
X47512Y88095D02*
X48299D01*
X47905Y87701D02*
Y88488D01*
X55012Y67094D02*
X55799D01*
X55405Y66701D02*
Y67488D01*
X63106Y60500D02*
X63894D01*
X63500Y60106D02*
Y60894D01*
X50606Y55000D02*
X51394D01*
X51000Y54606D02*
Y55394D01*
X46606Y61500D02*
X47394D01*
X47000Y61106D02*
Y61894D01*
X58106Y67500D02*
X58894D01*
X58500Y67106D02*
Y67894D01*
X54606Y60000D02*
X55394D01*
X55000Y59606D02*
Y60394D01*
X59106Y65000D02*
X59894D01*
X59500Y64606D02*
Y65394D01*
X57106Y54000D02*
X57894D01*
X57500Y53606D02*
Y54394D01*
X52606Y55000D02*
X53394D01*
X53000Y54606D02*
Y55394D01*
X46106Y64500D02*
X46894D01*
X46500Y64106D02*
Y64894D01*
X42106Y66000D02*
X42894D01*
X42500Y65606D02*
Y66394D01*
X44106Y66000D02*
X44894D01*
X44500Y65606D02*
Y66394D01*
X58681Y71925D02*
X59469D01*
X59075Y71531D02*
Y72319D01*
X58606Y75500D02*
X59394D01*
X59000Y75106D02*
Y75894D01*
X141106Y24000D02*
X141894D01*
X141500Y23606D02*
Y24394D01*
X8606Y71000D02*
X9394D01*
X9000Y70606D02*
Y71394D01*
X10606Y73500D02*
X11394D01*
X11000Y73106D02*
Y73894D01*
X5606Y41500D02*
X6394D01*
X6000Y41106D02*
Y41894D01*
X94606Y37500D02*
X95394D01*
X95000Y37106D02*
Y37894D01*
X94606Y35500D02*
X95394D01*
X95000Y35106D02*
Y35894D01*
X72606Y14000D02*
X73394D01*
X73000Y13606D02*
Y14394D01*
X70606Y16000D02*
X71394D01*
X71000Y15606D02*
Y16394D01*
X66106Y18500D02*
X66894D01*
X66500Y18106D02*
Y18894D01*
X42106Y31000D02*
X42894D01*
X42500Y30606D02*
Y31394D01*
X79606Y14500D02*
X80394D01*
X80000Y14106D02*
Y14894D01*
X93106Y22500D02*
X93894D01*
X93500Y22106D02*
Y22894D01*
X82106Y24000D02*
X82894D01*
X82500Y23606D02*
Y24394D01*
X89606Y26000D02*
X90394D01*
X90000Y25606D02*
Y26394D01*
X44606Y35000D02*
X45394D01*
X45000Y34606D02*
Y35394D01*
X79606Y17000D02*
X80394D01*
X80000Y16606D02*
Y17394D01*
X21138Y84000D02*
X21925D01*
X21531Y83606D02*
Y84394D01*
X8106Y54500D02*
X8894D01*
X8500Y54106D02*
Y54894D01*
X96606Y24500D02*
X97394D01*
X97000Y24106D02*
Y24894D01*
X83106Y33000D02*
X83894D01*
X83500Y32606D02*
Y33394D01*
X99606Y92000D02*
X100394D01*
X100000Y91606D02*
Y92394D01*
X19106Y6000D02*
X19894D01*
X19500Y5606D02*
Y6394D01*
M02*
