G04 Layer_Physical_Order=3*
G04 Layer_Color=6736896*
%FSLAX25Y25*%
%MOIN*%
G70*
G01*
G75*
%ADD33C,0.01000*%
%ADD34C,0.00787*%
%ADD36C,0.01575*%
D33*
X55000Y79500D02*
Y90000D01*
X11000Y87000D02*
X14000Y90000D01*
X55000D01*
X11000Y73500D02*
Y87000D01*
X141500Y6000D02*
Y24000D01*
X42500Y29000D02*
Y31000D01*
Y29000D02*
X51000Y20500D01*
X76000D02*
X78000Y18500D01*
Y14500D02*
Y18500D01*
Y14500D02*
X80000D01*
X51000Y20500D02*
X76000D01*
X45000Y35000D02*
X47500D01*
X48500Y34000D01*
Y27500D02*
Y34000D01*
Y27500D02*
X53500Y22500D01*
X80000D01*
Y17000D02*
Y22500D01*
X21531Y56032D02*
Y84000D01*
X20000Y54500D02*
X21531Y56032D01*
X8500Y54500D02*
X20000D01*
X97000Y23000D02*
Y24500D01*
X82000Y8000D02*
X97000Y23000D01*
X32500Y8000D02*
X82000D01*
X3500Y37000D02*
X32500Y8000D01*
X3500Y37000D02*
Y54500D01*
X8500D01*
X100000Y92000D02*
X105500D01*
Y37000D02*
Y92000D01*
X101500Y33000D02*
X105500Y37000D01*
X83500Y33000D02*
X101500D01*
X19500Y6000D02*
X141500D01*
D34*
X67000Y83000D02*
Y92000D01*
X12500D02*
X67000D01*
X66000Y66500D02*
X69000D01*
Y83000D01*
X67000D02*
X69000D01*
X40500Y84500D02*
X42500D01*
X44500Y86500D01*
X40500Y71210D02*
Y71500D01*
Y84500D01*
X44000Y86500D02*
X44500D01*
X48000Y79500D02*
Y88000D01*
X63500Y60500D02*
Y64000D01*
X66000Y66500D01*
X61925Y58925D02*
Y64614D01*
X50906Y28095D02*
Y55094D01*
X61925Y64614D02*
X66811Y69500D01*
X57625Y66625D02*
X58500Y67500D01*
X59500Y61000D02*
Y65000D01*
X55000Y60000D02*
X58500D01*
X59500Y61000D01*
X47000Y61500D02*
X48500Y63000D01*
X26000Y49500D02*
X42500Y66000D01*
X26000Y35500D02*
Y49500D01*
X44500Y66000D02*
Y67500D01*
X44425Y67575D02*
X44500Y67500D01*
X39425Y67575D02*
X44425D01*
X24000Y52150D02*
X39425Y67575D01*
X24000Y47000D02*
Y52150D01*
X46500Y64500D02*
Y68500D01*
X46000Y69000D02*
X46500Y68500D01*
X37500Y69000D02*
X46000D01*
X22000Y53500D02*
X37500Y69000D01*
X22000Y47500D02*
Y53500D01*
X53000Y34000D02*
Y55000D01*
X48500Y63000D02*
X57625D01*
Y63125D02*
Y66625D01*
X55405Y67094D02*
X57811Y69500D01*
X66811D01*
X59000Y72000D02*
Y75500D01*
Y72000D02*
X59075Y71925D01*
X52874Y34126D02*
X61000Y26000D01*
X90000D01*
X50906Y28095D02*
X55000Y24000D01*
X82500D01*
X57500Y36500D02*
Y54000D01*
Y36500D02*
X58584Y35416D01*
X9000Y88500D02*
X12500Y92000D01*
X9000Y71000D02*
Y88500D01*
X24000Y34500D02*
Y47000D01*
X22000Y33830D02*
Y48164D01*
Y33830D02*
X30500Y25330D01*
X24000Y34500D02*
X31000Y27500D01*
X26000Y35500D02*
X32000Y29500D01*
X6000Y38000D02*
Y41500D01*
Y38000D02*
X34000Y10000D01*
X81000D01*
X93500Y22500D01*
X59500Y56500D02*
X61925Y58925D01*
X59500Y38500D02*
Y56500D01*
Y38500D02*
X60500Y37500D01*
X95000D01*
X58584Y35416D02*
X58669Y35500D01*
X95000D01*
X30500Y23500D02*
Y25330D01*
Y23500D02*
X40000Y14000D01*
X73000D01*
X41500Y16000D02*
X71000D01*
X31000Y26500D02*
X41500Y16000D01*
X31000Y26500D02*
Y27500D01*
X32000Y29500D02*
X38000D01*
X49000Y18500D01*
X66500D01*
D36*
X40500Y71500D02*
D03*
X55000Y79500D02*
D03*
X44000Y86500D02*
D03*
X48000Y79500D02*
D03*
X47905Y88095D02*
D03*
X55405Y67094D02*
D03*
X63500Y60500D02*
D03*
X51000Y55000D02*
D03*
X47000Y61500D02*
D03*
X58500Y67500D02*
D03*
X55000Y60000D02*
D03*
X59500Y65000D02*
D03*
X57500Y54000D02*
D03*
X53000Y55000D02*
D03*
X46500Y64500D02*
D03*
X42500Y66000D02*
D03*
X44500D02*
D03*
X59075Y71925D02*
D03*
X59000Y75500D02*
D03*
X141500Y24000D02*
D03*
X9000Y71000D02*
D03*
X11000Y73500D02*
D03*
X6000Y41500D02*
D03*
X95000Y37500D02*
D03*
Y35500D02*
D03*
X73000Y14000D02*
D03*
X71000Y16000D02*
D03*
X66500Y18500D02*
D03*
X42500Y31000D02*
D03*
X80000Y14500D02*
D03*
X93500Y22500D02*
D03*
X82500Y24000D02*
D03*
X90000Y26000D02*
D03*
X45000Y35000D02*
D03*
X80000Y17000D02*
D03*
X21531Y84000D02*
D03*
X8500Y54500D02*
D03*
X97000Y24500D02*
D03*
X83500Y33000D02*
D03*
X100000Y92000D02*
D03*
X19500Y6000D02*
D03*
M02*
