G04 Layer_Color=8388736*
%FSLAX25Y25*%
%MOIN*%
G70*
G01*
G75*
%ADD33C,0.01000*%
%ADD66C,0.00300*%
%ADD67C,0.00200*%
%ADD68C,0.00500*%
%ADD69C,0.00100*%
G36*
X79735Y93653D02*
X78694D01*
Y93060D01*
X79594D01*
Y92833D01*
X78694D01*
Y91963D01*
X78439D01*
Y93880D01*
X79735D01*
Y93653D01*
D02*
G37*
G36*
X77409Y93878D02*
X77434D01*
X77492Y93875D01*
X77553Y93866D01*
X77619Y93858D01*
X77680Y93844D01*
X77710Y93836D01*
X77736Y93828D01*
X77738D01*
X77741Y93825D01*
X77758Y93817D01*
X77783Y93805D01*
X77813Y93786D01*
X77846Y93761D01*
X77882Y93728D01*
X77916Y93689D01*
X77949Y93645D01*
Y93642D01*
X77952Y93639D01*
X77963Y93623D01*
X77974Y93595D01*
X77990Y93559D01*
X78004Y93517D01*
X78018Y93467D01*
X78026Y93415D01*
X78029Y93357D01*
Y93354D01*
Y93348D01*
Y93337D01*
X78026Y93323D01*
Y93304D01*
X78024Y93285D01*
X78013Y93238D01*
X77996Y93182D01*
X77974Y93124D01*
X77940Y93066D01*
X77918Y93038D01*
X77896Y93010D01*
X77893Y93008D01*
X77891Y93005D01*
X77882Y92997D01*
X77871Y92988D01*
X77857Y92977D01*
X77841Y92966D01*
X77819Y92952D01*
X77796Y92936D01*
X77769Y92922D01*
X77738Y92908D01*
X77705Y92891D01*
X77669Y92878D01*
X77627Y92866D01*
X77586Y92853D01*
X77539Y92844D01*
X77489Y92836D01*
X77495Y92833D01*
X77506Y92828D01*
X77522Y92817D01*
X77544Y92805D01*
X77594Y92775D01*
X77619Y92756D01*
X77641Y92739D01*
X77647Y92734D01*
X77661Y92720D01*
X77683Y92698D01*
X77710Y92670D01*
X77741Y92631D01*
X77777Y92589D01*
X77813Y92540D01*
X77852Y92484D01*
X78181Y91963D01*
X77866D01*
X77614Y92362D01*
Y92365D01*
X77608Y92371D01*
X77602Y92379D01*
X77594Y92390D01*
X77575Y92421D01*
X77550Y92459D01*
X77519Y92501D01*
X77489Y92545D01*
X77459Y92587D01*
X77431Y92625D01*
X77428Y92628D01*
X77420Y92639D01*
X77406Y92656D01*
X77386Y92675D01*
X77345Y92717D01*
X77323Y92736D01*
X77301Y92753D01*
X77298Y92756D01*
X77292Y92758D01*
X77281Y92764D01*
X77265Y92772D01*
X77248Y92781D01*
X77229Y92789D01*
X77184Y92803D01*
X77182D01*
X77176Y92805D01*
X77165D01*
X77151Y92808D01*
X77132Y92811D01*
X77109D01*
X77079Y92814D01*
X76752D01*
Y91963D01*
X76497D01*
Y93880D01*
X77386D01*
X77409Y93878D01*
D02*
G37*
G36*
X80650Y93886D02*
X80672Y93883D01*
X80699Y93880D01*
X80730Y93875D01*
X80760Y93869D01*
X80832Y93850D01*
X80904Y93822D01*
X80940Y93805D01*
X80976Y93786D01*
X81010Y93761D01*
X81040Y93734D01*
X81043Y93731D01*
X81048Y93728D01*
X81054Y93717D01*
X81065Y93706D01*
X81079Y93692D01*
X81093Y93673D01*
X81107Y93653D01*
X81123Y93628D01*
X81151Y93576D01*
X81179Y93509D01*
X81190Y93476D01*
X81195Y93437D01*
X81201Y93398D01*
X81204Y93357D01*
Y93351D01*
Y93337D01*
X81201Y93315D01*
X81198Y93285D01*
X81192Y93252D01*
X81181Y93213D01*
X81170Y93171D01*
X81154Y93130D01*
X81151Y93124D01*
X81145Y93110D01*
X81134Y93088D01*
X81118Y93058D01*
X81095Y93024D01*
X81068Y92983D01*
X81034Y92941D01*
X80996Y92894D01*
X80990Y92889D01*
X80976Y92872D01*
X80963Y92858D01*
X80949Y92844D01*
X80932Y92828D01*
X80910Y92805D01*
X80888Y92783D01*
X80860Y92758D01*
X80832Y92731D01*
X80799Y92700D01*
X80763Y92670D01*
X80724Y92634D01*
X80680Y92598D01*
X80636Y92559D01*
X80633Y92556D01*
X80627Y92551D01*
X80616Y92542D01*
X80602Y92531D01*
X80586Y92515D01*
X80566Y92498D01*
X80522Y92462D01*
X80475Y92421D01*
X80431Y92379D01*
X80392Y92343D01*
X80375Y92329D01*
X80361Y92315D01*
X80359Y92312D01*
X80350Y92304D01*
X80339Y92293D01*
X80325Y92276D01*
X80312Y92257D01*
X80295Y92238D01*
X80262Y92191D01*
X81206D01*
Y91963D01*
X79935D01*
Y91966D01*
Y91977D01*
Y91994D01*
X79938Y92016D01*
X79940Y92041D01*
X79946Y92069D01*
X79952Y92096D01*
X79962Y92127D01*
Y92130D01*
X79965Y92132D01*
X79971Y92149D01*
X79982Y92174D01*
X79999Y92207D01*
X80021Y92246D01*
X80048Y92290D01*
X80079Y92335D01*
X80118Y92382D01*
Y92384D01*
X80123Y92387D01*
X80137Y92404D01*
X80162Y92429D01*
X80198Y92465D01*
X80239Y92506D01*
X80292Y92556D01*
X80356Y92612D01*
X80425Y92670D01*
X80428Y92672D01*
X80439Y92681D01*
X80456Y92695D01*
X80475Y92711D01*
X80500Y92734D01*
X80530Y92758D01*
X80561Y92786D01*
X80597Y92817D01*
X80666Y92883D01*
X80735Y92949D01*
X80769Y92983D01*
X80799Y93016D01*
X80827Y93046D01*
X80849Y93077D01*
Y93080D01*
X80854Y93082D01*
X80860Y93091D01*
X80866Y93102D01*
X80885Y93132D01*
X80907Y93168D01*
X80927Y93213D01*
X80946Y93260D01*
X80957Y93312D01*
X80963Y93362D01*
Y93365D01*
Y93368D01*
X80960Y93384D01*
X80957Y93412D01*
X80949Y93443D01*
X80938Y93481D01*
X80918Y93520D01*
X80893Y93559D01*
X80860Y93598D01*
X80854Y93603D01*
X80841Y93614D01*
X80821Y93628D01*
X80791Y93648D01*
X80752Y93664D01*
X80708Y93681D01*
X80655Y93692D01*
X80597Y93695D01*
X80580D01*
X80569Y93692D01*
X80536Y93689D01*
X80497Y93681D01*
X80456Y93670D01*
X80409Y93650D01*
X80364Y93625D01*
X80323Y93592D01*
X80317Y93587D01*
X80306Y93573D01*
X80289Y93551D01*
X80273Y93517D01*
X80253Y93479D01*
X80237Y93429D01*
X80226Y93373D01*
X80220Y93310D01*
X79979Y93335D01*
Y93337D01*
X79982Y93346D01*
Y93360D01*
X79985Y93379D01*
X79990Y93401D01*
X79996Y93426D01*
X80004Y93456D01*
X80012Y93487D01*
X80035Y93553D01*
X80068Y93620D01*
X80087Y93653D01*
X80112Y93686D01*
X80137Y93717D01*
X80165Y93744D01*
X80168Y93747D01*
X80173Y93750D01*
X80181Y93758D01*
X80195Y93767D01*
X80212Y93778D01*
X80231Y93789D01*
X80253Y93803D01*
X80281Y93817D01*
X80312Y93830D01*
X80345Y93844D01*
X80381Y93855D01*
X80420Y93866D01*
X80461Y93875D01*
X80506Y93883D01*
X80553Y93886D01*
X80602Y93889D01*
X80630D01*
X80650Y93886D01*
D02*
G37*
G36*
X83289Y92191D02*
X84234D01*
Y91963D01*
X83034D01*
Y93880D01*
X83289D01*
Y92191D01*
D02*
G37*
G36*
X82447Y92639D02*
X82708D01*
Y92423D01*
X82447D01*
Y91963D01*
X82212D01*
Y92423D01*
X81378D01*
Y92639D01*
X82256Y93880D01*
X82447D01*
Y92639D01*
D02*
G37*
G36*
X85120Y93886D02*
X85156Y93880D01*
X85198Y93872D01*
X85242Y93861D01*
X85289Y93847D01*
X85334Y93825D01*
X85336D01*
X85339Y93822D01*
X85353Y93814D01*
X85375Y93800D01*
X85403Y93780D01*
X85433Y93753D01*
X85466Y93722D01*
X85497Y93686D01*
X85527Y93645D01*
X85530Y93639D01*
X85541Y93625D01*
X85552Y93600D01*
X85572Y93564D01*
X85588Y93523D01*
X85611Y93476D01*
X85630Y93420D01*
X85647Y93360D01*
Y93357D01*
X85649Y93351D01*
X85652Y93343D01*
X85655Y93329D01*
X85658Y93312D01*
X85660Y93293D01*
X85666Y93268D01*
X85669Y93240D01*
X85674Y93210D01*
X85677Y93177D01*
X85680Y93138D01*
X85685Y93099D01*
X85688Y93055D01*
Y93010D01*
X85691Y92961D01*
Y92908D01*
Y92905D01*
Y92894D01*
Y92875D01*
Y92853D01*
X85688Y92822D01*
Y92789D01*
X85685Y92753D01*
X85683Y92714D01*
X85674Y92625D01*
X85660Y92534D01*
X85644Y92445D01*
X85633Y92404D01*
X85619Y92362D01*
Y92360D01*
X85616Y92354D01*
X85611Y92343D01*
X85605Y92329D01*
X85599Y92310D01*
X85588Y92290D01*
X85566Y92243D01*
X85539Y92193D01*
X85502Y92138D01*
X85461Y92088D01*
X85411Y92041D01*
X85408D01*
X85406Y92035D01*
X85397Y92030D01*
X85386Y92024D01*
X85372Y92016D01*
X85359Y92005D01*
X85317Y91986D01*
X85267Y91966D01*
X85209Y91947D01*
X85140Y91936D01*
X85065Y91930D01*
X85037D01*
X85018Y91933D01*
X84996Y91936D01*
X84968Y91941D01*
X84938Y91947D01*
X84904Y91955D01*
X84871Y91966D01*
X84835Y91977D01*
X84799Y91994D01*
X84763Y92013D01*
X84727Y92035D01*
X84691Y92063D01*
X84658Y92094D01*
X84627Y92127D01*
X84624Y92130D01*
X84619Y92138D01*
X84611Y92152D01*
X84597Y92174D01*
X84583Y92199D01*
X84569Y92232D01*
X84550Y92271D01*
X84533Y92315D01*
X84516Y92365D01*
X84500Y92423D01*
X84483Y92487D01*
X84469Y92559D01*
X84456Y92637D01*
X84447Y92720D01*
X84442Y92811D01*
X84439Y92908D01*
Y92911D01*
Y92922D01*
Y92941D01*
Y92963D01*
X84442Y92994D01*
Y93027D01*
X84444Y93063D01*
X84447Y93105D01*
X84456Y93190D01*
X84469Y93282D01*
X84486Y93373D01*
X84497Y93415D01*
X84508Y93456D01*
Y93459D01*
X84511Y93465D01*
X84516Y93476D01*
X84522Y93490D01*
X84527Y93509D01*
X84539Y93528D01*
X84561Y93576D01*
X84588Y93625D01*
X84624Y93678D01*
X84666Y93731D01*
X84716Y93775D01*
X84719D01*
X84721Y93780D01*
X84730Y93786D01*
X84741Y93792D01*
X84755Y93803D01*
X84771Y93811D01*
X84813Y93833D01*
X84863Y93853D01*
X84921Y93872D01*
X84990Y93883D01*
X85065Y93889D01*
X85090D01*
X85120Y93886D01*
D02*
G37*
G36*
X91889Y18447D02*
X91922Y18444D01*
X91961Y18439D01*
X92000Y18433D01*
X92044Y18425D01*
X92008Y18220D01*
X92005D01*
X91997Y18223D01*
X91983Y18226D01*
X91964Y18228D01*
X91942D01*
X91920Y18231D01*
X91870Y18234D01*
X91853D01*
X91834Y18231D01*
X91812Y18228D01*
X91787Y18223D01*
X91762Y18215D01*
X91739Y18204D01*
X91720Y18187D01*
X91717Y18184D01*
X91715Y18179D01*
X91706Y18168D01*
X91698Y18148D01*
X91690Y18126D01*
X91684Y18098D01*
X91679Y18062D01*
X91676Y18018D01*
Y17890D01*
X91944D01*
Y17708D01*
X91676D01*
Y16500D01*
X91440D01*
Y17708D01*
X91233D01*
Y17890D01*
X91440D01*
Y18037D01*
Y18040D01*
Y18043D01*
Y18059D01*
X91443Y18084D01*
Y18115D01*
X91446Y18148D01*
X91451Y18184D01*
X91457Y18217D01*
X91465Y18245D01*
X91468Y18248D01*
X91471Y18262D01*
X91479Y18278D01*
X91493Y18298D01*
X91510Y18320D01*
X91529Y18345D01*
X91554Y18370D01*
X91584Y18392D01*
X91587Y18395D01*
X91601Y18400D01*
X91620Y18411D01*
X91648Y18422D01*
X91681Y18431D01*
X91723Y18442D01*
X91770Y18447D01*
X91825Y18450D01*
X91864D01*
X91889Y18447D01*
D02*
G37*
G36*
X89557Y17918D02*
X89587Y17913D01*
X89623Y17902D01*
X89662Y17888D01*
X89706Y17868D01*
X89753Y17843D01*
X89668Y17627D01*
X89665Y17630D01*
X89654Y17636D01*
X89637Y17644D01*
X89615Y17652D01*
X89590Y17661D01*
X89560Y17669D01*
X89529Y17674D01*
X89499Y17677D01*
X89485D01*
X89471Y17674D01*
X89451Y17672D01*
X89432Y17666D01*
X89407Y17658D01*
X89382Y17647D01*
X89360Y17630D01*
X89357Y17627D01*
X89349Y17622D01*
X89341Y17611D01*
X89327Y17597D01*
X89313Y17578D01*
X89299Y17555D01*
X89285Y17530D01*
X89274Y17500D01*
X89271Y17494D01*
X89269Y17478D01*
X89263Y17453D01*
X89255Y17420D01*
X89246Y17378D01*
X89241Y17331D01*
X89238Y17281D01*
X89236Y17226D01*
Y16500D01*
X89000D01*
Y17890D01*
X89213D01*
Y17680D01*
X89216Y17683D01*
X89227Y17702D01*
X89241Y17727D01*
X89263Y17758D01*
X89285Y17788D01*
X89310Y17821D01*
X89335Y17849D01*
X89360Y17871D01*
X89363Y17874D01*
X89371Y17879D01*
X89388Y17888D01*
X89404Y17896D01*
X89427Y17904D01*
X89454Y17913D01*
X89482Y17918D01*
X89512Y17921D01*
X89532D01*
X89557Y17918D01*
D02*
G37*
G36*
X71255Y25000D02*
X71000D01*
Y26917D01*
X71255D01*
Y25000D01*
D02*
G37*
G36*
X73523D02*
X73280D01*
Y26604D01*
X72720Y25000D01*
X72493D01*
X71939Y26632D01*
Y25000D01*
X71695D01*
Y26917D01*
X72075D01*
X72529Y25557D01*
Y25554D01*
X72532Y25548D01*
X72535Y25540D01*
X72540Y25526D01*
X72551Y25493D01*
X72565Y25451D01*
X72579Y25404D01*
X72596Y25357D01*
X72609Y25313D01*
X72620Y25274D01*
X72623Y25280D01*
X72626Y25294D01*
X72634Y25319D01*
X72645Y25352D01*
X72659Y25396D01*
X72679Y25449D01*
X72698Y25510D01*
X72723Y25582D01*
X73183Y26917D01*
X73523D01*
Y25000D01*
D02*
G37*
G36*
X75446Y25809D02*
Y25806D01*
Y25795D01*
Y25781D01*
Y25762D01*
X75443Y25737D01*
Y25709D01*
X75440Y25676D01*
X75437Y25643D01*
X75429Y25568D01*
X75418Y25490D01*
X75402Y25416D01*
X75390Y25379D01*
X75379Y25346D01*
Y25343D01*
X75377Y25338D01*
X75371Y25330D01*
X75366Y25319D01*
X75349Y25288D01*
X75324Y25249D01*
X75291Y25205D01*
X75252Y25161D01*
X75202Y25114D01*
X75141Y25072D01*
X75138D01*
X75133Y25067D01*
X75125Y25064D01*
X75111Y25055D01*
X75094Y25047D01*
X75072Y25039D01*
X75050Y25030D01*
X75022Y25019D01*
X74992Y25008D01*
X74958Y25000D01*
X74922Y24992D01*
X74881Y24983D01*
X74839Y24978D01*
X74795Y24972D01*
X74695Y24967D01*
X74670D01*
X74651Y24970D01*
X74629D01*
X74601Y24972D01*
X74571Y24975D01*
X74540Y24978D01*
X74471Y24989D01*
X74396Y25005D01*
X74324Y25028D01*
X74255Y25058D01*
X74252D01*
X74246Y25064D01*
X74238Y25069D01*
X74227Y25075D01*
X74197Y25097D01*
X74161Y25127D01*
X74119Y25166D01*
X74080Y25210D01*
X74041Y25266D01*
X74011Y25327D01*
Y25330D01*
X74008Y25335D01*
X74005Y25346D01*
X74000Y25360D01*
X73994Y25377D01*
X73989Y25399D01*
X73980Y25424D01*
X73975Y25454D01*
X73969Y25488D01*
X73961Y25523D01*
X73956Y25562D01*
X73950Y25604D01*
X73944Y25651D01*
X73942Y25701D01*
X73939Y25753D01*
Y25809D01*
Y26917D01*
X74194D01*
Y25809D01*
Y25806D01*
Y25798D01*
Y25784D01*
Y25767D01*
X74197Y25748D01*
Y25723D01*
X74199Y25670D01*
X74205Y25609D01*
X74213Y25548D01*
X74224Y25490D01*
X74230Y25465D01*
X74238Y25440D01*
X74241Y25435D01*
X74246Y25421D01*
X74260Y25402D01*
X74277Y25374D01*
X74296Y25346D01*
X74324Y25316D01*
X74357Y25285D01*
X74396Y25260D01*
X74402Y25258D01*
X74415Y25249D01*
X74440Y25241D01*
X74474Y25230D01*
X74512Y25216D01*
X74562Y25208D01*
X74615Y25199D01*
X74673Y25197D01*
X74701D01*
X74717Y25199D01*
X74742D01*
X74767Y25202D01*
X74828Y25213D01*
X74895Y25227D01*
X74958Y25249D01*
X75019Y25280D01*
X75047Y25299D01*
X75072Y25321D01*
X75075Y25324D01*
X75077Y25327D01*
X75083Y25335D01*
X75091Y25346D01*
X75100Y25363D01*
X75111Y25379D01*
X75122Y25404D01*
X75133Y25429D01*
X75144Y25460D01*
X75152Y25496D01*
X75163Y25537D01*
X75172Y25582D01*
X75180Y25632D01*
X75186Y25684D01*
X75191Y25745D01*
Y25809D01*
Y26917D01*
X75446D01*
Y25809D01*
D02*
G37*
G36*
X86816Y91963D02*
X86580D01*
Y93462D01*
X86577Y93459D01*
X86563Y93448D01*
X86547Y93432D01*
X86519Y93412D01*
X86489Y93387D01*
X86450Y93360D01*
X86406Y93329D01*
X86356Y93299D01*
X86353D01*
X86350Y93296D01*
X86334Y93285D01*
X86306Y93271D01*
X86273Y93254D01*
X86234Y93235D01*
X86192Y93216D01*
X86151Y93196D01*
X86109Y93179D01*
Y93407D01*
X86112D01*
X86118Y93412D01*
X86129Y93415D01*
X86142Y93423D01*
X86159Y93432D01*
X86178Y93443D01*
X86225Y93470D01*
X86281Y93501D01*
X86336Y93540D01*
X86395Y93584D01*
X86453Y93631D01*
X86455Y93634D01*
X86458Y93637D01*
X86466Y93645D01*
X86478Y93653D01*
X86502Y93681D01*
X86536Y93714D01*
X86569Y93753D01*
X86605Y93797D01*
X86636Y93841D01*
X86663Y93889D01*
X86816D01*
Y91963D01*
D02*
G37*
G36*
X124362Y75153D02*
X123229D01*
Y74569D01*
X124290D01*
Y74341D01*
X123229D01*
Y73691D01*
X124406D01*
Y73463D01*
X122974D01*
Y75380D01*
X124362D01*
Y75153D01*
D02*
G37*
G36*
X129098Y77040D02*
X128370D01*
Y77275D01*
X129098D01*
Y77040D01*
D02*
G37*
G36*
X130262Y73463D02*
X130007D01*
Y75380D01*
X130262D01*
Y73463D01*
D02*
G37*
G36*
X126577D02*
X126334D01*
Y75067D01*
X125774Y73463D01*
X125547D01*
X124993Y75095D01*
Y73463D01*
X124749D01*
Y75380D01*
X125129D01*
X125583Y74020D01*
Y74017D01*
X125586Y74012D01*
X125589Y74004D01*
X125594Y73990D01*
X125605Y73957D01*
X125619Y73915D01*
X125633Y73868D01*
X125650Y73821D01*
X125663Y73776D01*
X125674Y73738D01*
X125677Y73743D01*
X125680Y73757D01*
X125688Y73782D01*
X125699Y73815D01*
X125713Y73860D01*
X125733Y73912D01*
X125752Y73973D01*
X125777Y74045D01*
X126237Y75380D01*
X126577D01*
Y73463D01*
D02*
G37*
G36*
X134453Y74272D02*
Y74269D01*
Y74258D01*
Y74245D01*
Y74225D01*
X134450Y74200D01*
Y74173D01*
X134447Y74139D01*
X134444Y74106D01*
X134436Y74031D01*
X134425Y73954D01*
X134408Y73879D01*
X134397Y73843D01*
X134386Y73810D01*
Y73807D01*
X134383Y73801D01*
X134378Y73793D01*
X134372Y73782D01*
X134356Y73751D01*
X134331Y73713D01*
X134298Y73668D01*
X134259Y73624D01*
X134209Y73577D01*
X134148Y73535D01*
X134145D01*
X134140Y73530D01*
X134131Y73527D01*
X134117Y73519D01*
X134101Y73510D01*
X134079Y73502D01*
X134056Y73494D01*
X134029Y73483D01*
X133998Y73472D01*
X133965Y73463D01*
X133929Y73455D01*
X133888Y73447D01*
X133846Y73441D01*
X133802Y73436D01*
X133702Y73430D01*
X133677D01*
X133658Y73433D01*
X133635D01*
X133608Y73436D01*
X133577Y73439D01*
X133547Y73441D01*
X133478Y73452D01*
X133403Y73469D01*
X133331Y73491D01*
X133262Y73522D01*
X133259D01*
X133253Y73527D01*
X133245Y73533D01*
X133234Y73538D01*
X133203Y73560D01*
X133167Y73591D01*
X133126Y73630D01*
X133087Y73674D01*
X133048Y73729D01*
X133018Y73790D01*
Y73793D01*
X133015Y73799D01*
X133012Y73810D01*
X133007Y73823D01*
X133001Y73840D01*
X132996Y73862D01*
X132987Y73887D01*
X132982Y73918D01*
X132976Y73951D01*
X132968Y73987D01*
X132962Y74026D01*
X132957Y74067D01*
X132951Y74114D01*
X132949Y74164D01*
X132946Y74217D01*
Y74272D01*
Y75380D01*
X133201D01*
Y74272D01*
Y74269D01*
Y74261D01*
Y74247D01*
Y74231D01*
X133203Y74211D01*
Y74186D01*
X133206Y74134D01*
X133212Y74073D01*
X133220Y74012D01*
X133231Y73954D01*
X133237Y73929D01*
X133245Y73904D01*
X133248Y73898D01*
X133253Y73884D01*
X133267Y73865D01*
X133284Y73837D01*
X133303Y73810D01*
X133331Y73779D01*
X133364Y73749D01*
X133403Y73724D01*
X133408Y73721D01*
X133422Y73713D01*
X133447Y73704D01*
X133480Y73693D01*
X133519Y73680D01*
X133569Y73671D01*
X133622Y73663D01*
X133680Y73660D01*
X133707D01*
X133724Y73663D01*
X133749D01*
X133774Y73666D01*
X133835Y73677D01*
X133901Y73691D01*
X133965Y73713D01*
X134026Y73743D01*
X134054Y73763D01*
X134079Y73785D01*
X134081Y73787D01*
X134084Y73790D01*
X134090Y73799D01*
X134098Y73810D01*
X134106Y73826D01*
X134117Y73843D01*
X134129Y73868D01*
X134140Y73893D01*
X134151Y73923D01*
X134159Y73959D01*
X134170Y74001D01*
X134178Y74045D01*
X134187Y74095D01*
X134192Y74148D01*
X134198Y74209D01*
Y74272D01*
Y75380D01*
X134453D01*
Y74272D01*
D02*
G37*
G36*
X126295Y76463D02*
X126051D01*
Y78067D01*
X125492Y76463D01*
X125265D01*
X124711Y78095D01*
Y76463D01*
X124467D01*
Y78380D01*
X124846D01*
X125301Y77020D01*
Y77017D01*
X125303Y77012D01*
X125306Y77004D01*
X125312Y76990D01*
X125323Y76956D01*
X125337Y76915D01*
X125350Y76868D01*
X125367Y76821D01*
X125381Y76776D01*
X125392Y76738D01*
X125395Y76743D01*
X125398Y76757D01*
X125406Y76782D01*
X125417Y76815D01*
X125431Y76859D01*
X125450Y76912D01*
X125470Y76973D01*
X125495Y77045D01*
X125954Y78380D01*
X126295D01*
Y76463D01*
D02*
G37*
G36*
X123229Y76691D02*
X124173D01*
Y76463D01*
X122974D01*
Y78380D01*
X123229D01*
Y76691D01*
D02*
G37*
G36*
X75669Y93382D02*
X75700Y93379D01*
X75735Y93373D01*
X75774Y93365D01*
X75816Y93354D01*
X75855Y93337D01*
X75860Y93335D01*
X75871Y93329D01*
X75891Y93321D01*
X75913Y93307D01*
X75941Y93290D01*
X75965Y93268D01*
X75990Y93246D01*
X76012Y93218D01*
X76015Y93216D01*
X76021Y93204D01*
X76029Y93190D01*
X76043Y93171D01*
X76054Y93143D01*
X76065Y93116D01*
X76079Y93082D01*
X76087Y93046D01*
Y93044D01*
X76090Y93033D01*
X76093Y93016D01*
X76096Y92994D01*
Y92961D01*
X76098Y92922D01*
X76101Y92875D01*
Y92817D01*
Y91963D01*
X75866D01*
Y92805D01*
Y92808D01*
Y92811D01*
Y92830D01*
Y92855D01*
X75863Y92886D01*
X75860Y92922D01*
X75855Y92958D01*
X75846Y92991D01*
X75838Y93022D01*
Y93024D01*
X75832Y93033D01*
X75824Y93046D01*
X75816Y93063D01*
X75802Y93080D01*
X75785Y93099D01*
X75763Y93119D01*
X75738Y93135D01*
X75735Y93138D01*
X75727Y93143D01*
X75711Y93149D01*
X75691Y93157D01*
X75669Y93166D01*
X75641Y93174D01*
X75608Y93177D01*
X75575Y93179D01*
X75561D01*
X75550Y93177D01*
X75522Y93174D01*
X75486Y93168D01*
X75447Y93155D01*
X75403Y93138D01*
X75359Y93116D01*
X75317Y93082D01*
X75312Y93077D01*
X75301Y93063D01*
X75292Y93052D01*
X75284Y93038D01*
X75273Y93022D01*
X75265Y93002D01*
X75253Y92980D01*
X75243Y92952D01*
X75234Y92922D01*
X75226Y92889D01*
X75220Y92853D01*
X75215Y92814D01*
X75209Y92767D01*
Y92720D01*
Y91963D01*
X74974D01*
Y93354D01*
X75184D01*
Y93155D01*
X75187Y93157D01*
X75193Y93166D01*
X75201Y93177D01*
X75212Y93190D01*
X75229Y93207D01*
X75248Y93226D01*
X75270Y93249D01*
X75298Y93271D01*
X75326Y93290D01*
X75359Y93312D01*
X75395Y93332D01*
X75434Y93348D01*
X75478Y93362D01*
X75522Y93373D01*
X75572Y93382D01*
X75625Y93384D01*
X75647D01*
X75669Y93382D01*
D02*
G37*
G36*
X127470Y78377D02*
X127492D01*
X127541Y78372D01*
X127597Y78366D01*
X127655Y78355D01*
X127713Y78342D01*
X127766Y78322D01*
X127769D01*
X127771Y78319D01*
X127788Y78311D01*
X127813Y78297D01*
X127841Y78278D01*
X127874Y78253D01*
X127910Y78222D01*
X127943Y78184D01*
X127974Y78142D01*
X127976Y78136D01*
X127985Y78120D01*
X127999Y78098D01*
X128012Y78065D01*
X128026Y78026D01*
X128040Y77984D01*
X128048Y77937D01*
X128051Y77890D01*
Y77884D01*
Y77871D01*
X128048Y77846D01*
X128043Y77815D01*
X128035Y77779D01*
X128021Y77740D01*
X128004Y77702D01*
X127982Y77660D01*
X127979Y77654D01*
X127971Y77643D01*
X127954Y77621D01*
X127932Y77599D01*
X127904Y77571D01*
X127871Y77541D01*
X127830Y77513D01*
X127782Y77486D01*
X127785D01*
X127791Y77483D01*
X127799Y77480D01*
X127810Y77474D01*
X127843Y77463D01*
X127882Y77444D01*
X127924Y77419D01*
X127971Y77389D01*
X128012Y77353D01*
X128051Y77308D01*
X128054Y77303D01*
X128065Y77286D01*
X128082Y77261D01*
X128098Y77228D01*
X128115Y77184D01*
X128131Y77136D01*
X128143Y77081D01*
X128145Y77020D01*
Y77017D01*
Y77015D01*
Y76998D01*
X128143Y76970D01*
X128137Y76937D01*
X128131Y76898D01*
X128120Y76857D01*
X128107Y76812D01*
X128087Y76768D01*
X128084Y76763D01*
X128076Y76749D01*
X128065Y76729D01*
X128048Y76702D01*
X128026Y76674D01*
X128004Y76644D01*
X127976Y76613D01*
X127946Y76588D01*
X127943Y76585D01*
X127932Y76577D01*
X127913Y76566D01*
X127888Y76555D01*
X127857Y76538D01*
X127821Y76522D01*
X127782Y76508D01*
X127735Y76494D01*
X127730D01*
X127713Y76488D01*
X127685Y76486D01*
X127649Y76480D01*
X127605Y76474D01*
X127553Y76469D01*
X127494Y76466D01*
X127428Y76463D01*
X126697D01*
Y78380D01*
X127450D01*
X127470Y78377D01*
D02*
G37*
G36*
X130896Y77272D02*
Y77270D01*
Y77258D01*
Y77245D01*
Y77225D01*
X130893Y77200D01*
Y77172D01*
X130890Y77139D01*
X130888Y77106D01*
X130879Y77031D01*
X130868Y76954D01*
X130852Y76879D01*
X130841Y76843D01*
X130830Y76810D01*
Y76807D01*
X130827Y76801D01*
X130821Y76793D01*
X130816Y76782D01*
X130799Y76752D01*
X130774Y76713D01*
X130741Y76668D01*
X130702Y76624D01*
X130652Y76577D01*
X130591Y76535D01*
X130588D01*
X130583Y76530D01*
X130575Y76527D01*
X130561Y76519D01*
X130544Y76511D01*
X130522Y76502D01*
X130500Y76494D01*
X130472Y76483D01*
X130442Y76472D01*
X130409Y76463D01*
X130373Y76455D01*
X130331Y76447D01*
X130289Y76441D01*
X130245Y76436D01*
X130145Y76430D01*
X130120D01*
X130101Y76433D01*
X130079D01*
X130051Y76436D01*
X130021Y76438D01*
X129990Y76441D01*
X129921Y76452D01*
X129846Y76469D01*
X129774Y76491D01*
X129705Y76522D01*
X129702D01*
X129697Y76527D01*
X129688Y76533D01*
X129677Y76538D01*
X129647Y76560D01*
X129611Y76591D01*
X129569Y76630D01*
X129530Y76674D01*
X129492Y76729D01*
X129461Y76790D01*
Y76793D01*
X129458Y76799D01*
X129456Y76810D01*
X129450Y76824D01*
X129445Y76840D01*
X129439Y76862D01*
X129431Y76887D01*
X129425Y76918D01*
X129420Y76951D01*
X129411Y76987D01*
X129406Y77026D01*
X129400Y77067D01*
X129395Y77114D01*
X129392Y77164D01*
X129389Y77217D01*
Y77272D01*
Y78380D01*
X129644D01*
Y77272D01*
Y77270D01*
Y77261D01*
Y77247D01*
Y77231D01*
X129647Y77211D01*
Y77186D01*
X129649Y77134D01*
X129655Y77073D01*
X129663Y77012D01*
X129674Y76954D01*
X129680Y76929D01*
X129688Y76904D01*
X129691Y76898D01*
X129697Y76885D01*
X129710Y76865D01*
X129727Y76837D01*
X129746Y76810D01*
X129774Y76779D01*
X129807Y76749D01*
X129846Y76724D01*
X129852Y76721D01*
X129866Y76713D01*
X129891Y76704D01*
X129924Y76693D01*
X129963Y76679D01*
X130012Y76671D01*
X130065Y76663D01*
X130123Y76660D01*
X130151D01*
X130167Y76663D01*
X130192D01*
X130217Y76666D01*
X130278Y76677D01*
X130345Y76691D01*
X130409Y76713D01*
X130469Y76743D01*
X130497Y76763D01*
X130522Y76785D01*
X130525Y76788D01*
X130528Y76790D01*
X130533Y76799D01*
X130541Y76810D01*
X130550Y76826D01*
X130561Y76843D01*
X130572Y76868D01*
X130583Y76893D01*
X130594Y76923D01*
X130602Y76959D01*
X130613Y77001D01*
X130622Y77045D01*
X130630Y77095D01*
X130636Y77148D01*
X130641Y77209D01*
Y77272D01*
Y78380D01*
X130896D01*
Y77272D01*
D02*
G37*
G36*
X131564Y76691D02*
X132508D01*
Y76463D01*
X131309D01*
Y78380D01*
X131564D01*
Y76691D01*
D02*
G37*
G36*
X11379Y2500D02*
X11091D01*
X10867Y3082D01*
X10064D01*
X9856Y2500D01*
X9587D01*
X10318Y4417D01*
X10595D01*
X11379Y2500D01*
D02*
G37*
G36*
X8773Y4414D02*
X8795D01*
X8845Y4408D01*
X8900Y4403D01*
X8958Y4392D01*
X9017Y4378D01*
X9069Y4359D01*
X9072D01*
X9075Y4356D01*
X9091Y4348D01*
X9116Y4334D01*
X9144Y4314D01*
X9177Y4289D01*
X9213Y4259D01*
X9246Y4220D01*
X9277Y4179D01*
X9280Y4173D01*
X9288Y4157D01*
X9302Y4134D01*
X9316Y4101D01*
X9330Y4062D01*
X9343Y4021D01*
X9352Y3974D01*
X9354Y3927D01*
Y3921D01*
Y3907D01*
X9352Y3882D01*
X9346Y3852D01*
X9338Y3816D01*
X9324Y3777D01*
X9307Y3738D01*
X9285Y3697D01*
X9283Y3691D01*
X9274Y3680D01*
X9258Y3658D01*
X9235Y3636D01*
X9208Y3608D01*
X9174Y3577D01*
X9133Y3550D01*
X9086Y3522D01*
X9089D01*
X9094Y3519D01*
X9103Y3517D01*
X9114Y3511D01*
X9147Y3500D01*
X9186Y3481D01*
X9227Y3456D01*
X9274Y3425D01*
X9316Y3389D01*
X9354Y3345D01*
X9357Y3339D01*
X9368Y3323D01*
X9385Y3298D01*
X9402Y3264D01*
X9418Y3220D01*
X9435Y3173D01*
X9446Y3118D01*
X9449Y3057D01*
Y3054D01*
Y3051D01*
Y3035D01*
X9446Y3007D01*
X9440Y2974D01*
X9435Y2935D01*
X9424Y2893D01*
X9410Y2849D01*
X9391Y2805D01*
X9388Y2799D01*
X9380Y2785D01*
X9368Y2766D01*
X9352Y2738D01*
X9330Y2710D01*
X9307Y2680D01*
X9280Y2650D01*
X9249Y2625D01*
X9246Y2622D01*
X9235Y2614D01*
X9216Y2602D01*
X9191Y2591D01*
X9161Y2575D01*
X9125Y2558D01*
X9086Y2544D01*
X9039Y2530D01*
X9033D01*
X9017Y2525D01*
X8989Y2522D01*
X8953Y2517D01*
X8909Y2511D01*
X8856Y2506D01*
X8798Y2503D01*
X8731Y2500D01*
X8000D01*
Y4417D01*
X8753D01*
X8773Y4414D01*
D02*
G37*
G36*
X12958Y4190D02*
X12327D01*
Y2500D01*
X12072D01*
Y4190D01*
X11440D01*
Y4417D01*
X12958D01*
Y4190D01*
D02*
G37*
G36*
X12328Y90914D02*
X12375Y90911D01*
X12425Y90908D01*
X12472Y90903D01*
X12514Y90898D01*
X12519D01*
X12539Y90892D01*
X12564Y90886D01*
X12597Y90878D01*
X12633Y90864D01*
X12672Y90848D01*
X12713Y90828D01*
X12749Y90806D01*
X12755Y90803D01*
X12766Y90795D01*
X12783Y90778D01*
X12805Y90759D01*
X12830Y90734D01*
X12855Y90701D01*
X12882Y90665D01*
X12904Y90623D01*
X12907Y90618D01*
X12913Y90604D01*
X12924Y90579D01*
X12935Y90546D01*
X12943Y90507D01*
X12954Y90463D01*
X12960Y90413D01*
X12963Y90360D01*
Y90357D01*
Y90349D01*
Y90338D01*
X12960Y90319D01*
X12957Y90299D01*
X12954Y90274D01*
X12949Y90246D01*
X12943Y90216D01*
X12924Y90152D01*
X12913Y90119D01*
X12896Y90083D01*
X12877Y90047D01*
X12857Y90014D01*
X12832Y89981D01*
X12805Y89947D01*
X12802Y89945D01*
X12796Y89939D01*
X12788Y89931D01*
X12774Y89922D01*
X12758Y89909D01*
X12735Y89895D01*
X12708Y89878D01*
X12677Y89864D01*
X12641Y89848D01*
X12600Y89831D01*
X12555Y89817D01*
X12503Y89806D01*
X12447Y89795D01*
X12386Y89787D01*
X12317Y89781D01*
X12245Y89778D01*
X11755D01*
Y89000D01*
X11500D01*
Y90917D01*
X12287D01*
X12328Y90914D01*
D02*
G37*
G36*
X16104Y90947D02*
X16129D01*
X16154Y90944D01*
X16187Y90939D01*
X16220Y90934D01*
X16292Y90920D01*
X16375Y90898D01*
X16455Y90864D01*
X16497Y90845D01*
X16539Y90823D01*
X16541Y90820D01*
X16547Y90817D01*
X16558Y90809D01*
X16575Y90800D01*
X16591Y90787D01*
X16613Y90770D01*
X16660Y90731D01*
X16710Y90681D01*
X16766Y90620D01*
X16818Y90548D01*
X16863Y90468D01*
Y90465D01*
X16868Y90457D01*
X16874Y90446D01*
X16879Y90429D01*
X16890Y90407D01*
X16899Y90382D01*
X16910Y90352D01*
X16921Y90319D01*
X16929Y90282D01*
X16940Y90244D01*
X16951Y90199D01*
X16960Y90155D01*
X16971Y90058D01*
X16976Y89953D01*
Y89950D01*
Y89939D01*
Y89925D01*
X16973Y89903D01*
Y89878D01*
X16971Y89848D01*
X16965Y89814D01*
X16962Y89778D01*
X16949Y89698D01*
X16926Y89609D01*
X16896Y89521D01*
X16879Y89476D01*
X16857Y89432D01*
Y89429D01*
X16852Y89421D01*
X16846Y89410D01*
X16835Y89393D01*
X16824Y89374D01*
X16810Y89355D01*
X16771Y89302D01*
X16724Y89246D01*
X16669Y89188D01*
X16602Y89133D01*
X16525Y89083D01*
X16522D01*
X16517Y89078D01*
X16503Y89072D01*
X16486Y89064D01*
X16467Y89055D01*
X16444Y89047D01*
X16417Y89036D01*
X16386Y89025D01*
X16353Y89014D01*
X16317Y89003D01*
X16237Y88986D01*
X16151Y88972D01*
X16059Y88967D01*
X16032D01*
X16015Y88969D01*
X15990D01*
X15962Y88975D01*
X15932Y88978D01*
X15896Y88983D01*
X15821Y89000D01*
X15741Y89022D01*
X15658Y89055D01*
X15616Y89075D01*
X15575Y89097D01*
X15572Y89100D01*
X15566Y89103D01*
X15555Y89111D01*
X15539Y89122D01*
X15522Y89133D01*
X15503Y89150D01*
X15456Y89191D01*
X15403Y89241D01*
X15348Y89302D01*
X15298Y89371D01*
X15251Y89451D01*
Y89454D01*
X15245Y89463D01*
X15239Y89474D01*
X15234Y89490D01*
X15226Y89512D01*
X15217Y89537D01*
X15206Y89565D01*
X15198Y89596D01*
X15187Y89632D01*
X15176Y89668D01*
X15159Y89751D01*
X15148Y89837D01*
X15143Y89931D01*
Y89934D01*
Y89936D01*
Y89953D01*
X15145Y89978D01*
Y90011D01*
X15151Y90050D01*
X15156Y90097D01*
X15165Y90149D01*
X15176Y90205D01*
X15187Y90263D01*
X15203Y90324D01*
X15226Y90385D01*
X15251Y90449D01*
X15278Y90510D01*
X15314Y90571D01*
X15353Y90626D01*
X15397Y90679D01*
X15400Y90681D01*
X15408Y90690D01*
X15425Y90703D01*
X15445Y90720D01*
X15469Y90742D01*
X15500Y90764D01*
X15536Y90789D01*
X15577Y90814D01*
X15622Y90839D01*
X15672Y90864D01*
X15727Y90886D01*
X15785Y90908D01*
X15849Y90925D01*
X15915Y90939D01*
X15985Y90947D01*
X16059Y90950D01*
X16084D01*
X16104Y90947D01*
D02*
G37*
G36*
X32800Y5947D02*
X32820D01*
X32873Y5942D01*
X32931Y5934D01*
X32992Y5920D01*
X33058Y5903D01*
X33119Y5881D01*
X33122D01*
X33127Y5878D01*
X33136Y5872D01*
X33147Y5867D01*
X33174Y5853D01*
X33211Y5828D01*
X33252Y5801D01*
X33294Y5765D01*
X33332Y5723D01*
X33368Y5676D01*
Y5673D01*
X33371Y5670D01*
X33377Y5662D01*
X33382Y5654D01*
X33396Y5626D01*
X33413Y5590D01*
X33432Y5546D01*
X33446Y5493D01*
X33460Y5438D01*
X33465Y5377D01*
X33222Y5357D01*
Y5360D01*
Y5366D01*
X33219Y5374D01*
X33216Y5388D01*
X33208Y5418D01*
X33197Y5460D01*
X33180Y5504D01*
X33155Y5548D01*
X33125Y5590D01*
X33086Y5629D01*
X33080Y5632D01*
X33066Y5643D01*
X33039Y5659D01*
X33003Y5676D01*
X32956Y5692D01*
X32900Y5709D01*
X32831Y5720D01*
X32753Y5723D01*
X32715D01*
X32698Y5720D01*
X32676Y5717D01*
X32626Y5712D01*
X32571Y5701D01*
X32515Y5687D01*
X32463Y5665D01*
X32440Y5651D01*
X32418Y5637D01*
X32413Y5634D01*
X32402Y5623D01*
X32385Y5604D01*
X32368Y5582D01*
X32349Y5551D01*
X32332Y5518D01*
X32321Y5479D01*
X32316Y5435D01*
Y5429D01*
Y5418D01*
X32318Y5399D01*
X32324Y5377D01*
X32332Y5349D01*
X32346Y5321D01*
X32363Y5294D01*
X32388Y5266D01*
X32391Y5263D01*
X32404Y5255D01*
X32416Y5246D01*
X32427Y5241D01*
X32443Y5233D01*
X32463Y5222D01*
X32487Y5213D01*
X32515Y5202D01*
X32546Y5191D01*
X32582Y5177D01*
X32620Y5166D01*
X32665Y5152D01*
X32715Y5141D01*
X32770Y5127D01*
X32773D01*
X32784Y5125D01*
X32800Y5122D01*
X32820Y5116D01*
X32845Y5111D01*
X32875Y5102D01*
X32906Y5094D01*
X32939Y5086D01*
X33011Y5066D01*
X33080Y5047D01*
X33114Y5036D01*
X33144Y5025D01*
X33172Y5017D01*
X33194Y5006D01*
X33197D01*
X33202Y5003D01*
X33211Y4997D01*
X33222Y4992D01*
X33252Y4975D01*
X33288Y4953D01*
X33330Y4922D01*
X33371Y4889D01*
X33410Y4850D01*
X33443Y4809D01*
X33446Y4803D01*
X33457Y4789D01*
X33468Y4764D01*
X33485Y4731D01*
X33499Y4693D01*
X33512Y4645D01*
X33521Y4593D01*
X33523Y4537D01*
Y4535D01*
Y4532D01*
Y4524D01*
Y4512D01*
X33518Y4482D01*
X33512Y4443D01*
X33501Y4399D01*
X33487Y4352D01*
X33465Y4302D01*
X33435Y4249D01*
Y4247D01*
X33432Y4244D01*
X33418Y4227D01*
X33399Y4202D01*
X33371Y4174D01*
X33335Y4141D01*
X33291Y4105D01*
X33241Y4072D01*
X33183Y4042D01*
X33180D01*
X33174Y4039D01*
X33166Y4036D01*
X33155Y4030D01*
X33138Y4025D01*
X33119Y4017D01*
X33075Y4005D01*
X33022Y3992D01*
X32958Y3978D01*
X32889Y3969D01*
X32814Y3967D01*
X32770D01*
X32748Y3969D01*
X32723D01*
X32695Y3972D01*
X32662Y3975D01*
X32593Y3986D01*
X32521Y3997D01*
X32449Y4017D01*
X32379Y4042D01*
X32377D01*
X32371Y4044D01*
X32363Y4050D01*
X32352Y4055D01*
X32318Y4072D01*
X32280Y4097D01*
X32235Y4130D01*
X32188Y4169D01*
X32144Y4216D01*
X32103Y4269D01*
Y4272D01*
X32097Y4277D01*
X32094Y4285D01*
X32086Y4296D01*
X32080Y4310D01*
X32072Y4327D01*
X32053Y4368D01*
X32033Y4421D01*
X32017Y4479D01*
X32006Y4546D01*
X32000Y4615D01*
X32238Y4637D01*
Y4634D01*
Y4632D01*
X32241Y4623D01*
Y4612D01*
X32247Y4587D01*
X32255Y4551D01*
X32266Y4515D01*
X32277Y4474D01*
X32296Y4435D01*
X32316Y4399D01*
X32318Y4396D01*
X32327Y4385D01*
X32341Y4366D01*
X32363Y4346D01*
X32391Y4321D01*
X32421Y4296D01*
X32463Y4272D01*
X32507Y4249D01*
X32510D01*
X32513Y4247D01*
X32521Y4244D01*
X32529Y4241D01*
X32557Y4233D01*
X32593Y4222D01*
X32637Y4211D01*
X32687Y4202D01*
X32742Y4197D01*
X32803Y4194D01*
X32828D01*
X32856Y4197D01*
X32889Y4199D01*
X32928Y4205D01*
X32972Y4211D01*
X33017Y4222D01*
X33058Y4236D01*
X33064Y4238D01*
X33077Y4244D01*
X33097Y4255D01*
X33122Y4266D01*
X33147Y4285D01*
X33174Y4305D01*
X33202Y4327D01*
X33224Y4355D01*
X33227Y4357D01*
X33233Y4368D01*
X33241Y4382D01*
X33252Y4404D01*
X33263Y4427D01*
X33271Y4454D01*
X33277Y4485D01*
X33280Y4518D01*
Y4521D01*
Y4535D01*
X33277Y4551D01*
X33274Y4573D01*
X33266Y4596D01*
X33258Y4623D01*
X33244Y4651D01*
X33224Y4676D01*
X33222Y4679D01*
X33213Y4687D01*
X33202Y4698D01*
X33183Y4715D01*
X33161Y4731D01*
X33130Y4751D01*
X33094Y4770D01*
X33053Y4787D01*
X33050Y4789D01*
X33036Y4792D01*
X33014Y4800D01*
X33000Y4803D01*
X32981Y4809D01*
X32961Y4817D01*
X32936Y4823D01*
X32909Y4831D01*
X32875Y4839D01*
X32842Y4848D01*
X32803Y4859D01*
X32759Y4870D01*
X32712Y4881D01*
X32709D01*
X32701Y4884D01*
X32687Y4886D01*
X32670Y4892D01*
X32648Y4897D01*
X32623Y4903D01*
X32568Y4920D01*
X32507Y4939D01*
X32443Y4958D01*
X32388Y4978D01*
X32363Y4989D01*
X32341Y5000D01*
X32338D01*
X32335Y5003D01*
X32318Y5014D01*
X32294Y5028D01*
X32266Y5050D01*
X32233Y5075D01*
X32199Y5105D01*
X32166Y5141D01*
X32138Y5180D01*
X32136Y5186D01*
X32127Y5199D01*
X32116Y5222D01*
X32105Y5249D01*
X32094Y5285D01*
X32083Y5327D01*
X32075Y5371D01*
X32072Y5418D01*
Y5421D01*
Y5424D01*
Y5432D01*
Y5443D01*
X32078Y5471D01*
X32083Y5507D01*
X32091Y5548D01*
X32105Y5596D01*
X32125Y5643D01*
X32152Y5690D01*
Y5692D01*
X32155Y5695D01*
X32169Y5712D01*
X32188Y5734D01*
X32213Y5762D01*
X32247Y5792D01*
X32288Y5825D01*
X32338Y5856D01*
X32393Y5884D01*
X32396D01*
X32402Y5886D01*
X32410Y5889D01*
X32421Y5895D01*
X32435Y5900D01*
X32454Y5906D01*
X32496Y5917D01*
X32548Y5928D01*
X32609Y5939D01*
X32673Y5947D01*
X32745Y5950D01*
X32781D01*
X32800Y5947D01*
D02*
G37*
G36*
X38521Y5690D02*
X37889D01*
Y4000D01*
X37634D01*
Y5690D01*
X37003D01*
Y5917D01*
X38521D01*
Y5690D01*
D02*
G37*
G36*
X36698Y4000D02*
X36443D01*
Y5917D01*
X36698D01*
Y4000D01*
D02*
G37*
G36*
X35637D02*
X35388D01*
X34986Y5460D01*
Y5463D01*
X34983Y5468D01*
X34980Y5476D01*
X34978Y5490D01*
X34969Y5521D01*
X34961Y5557D01*
X34950Y5596D01*
X34939Y5632D01*
X34931Y5662D01*
X34928Y5676D01*
X34925Y5684D01*
Y5681D01*
X34922Y5679D01*
X34920Y5662D01*
X34914Y5637D01*
X34906Y5607D01*
X34897Y5573D01*
X34886Y5535D01*
X34878Y5496D01*
X34867Y5460D01*
X34462Y4000D01*
X34197D01*
X33695Y5917D01*
X33958D01*
X34244Y4659D01*
Y4656D01*
X34247Y4651D01*
X34249Y4640D01*
X34252Y4626D01*
X34255Y4607D01*
X34260Y4587D01*
X34266Y4562D01*
X34271Y4535D01*
X34285Y4476D01*
X34299Y4410D01*
X34313Y4338D01*
X34327Y4266D01*
Y4269D01*
X34330Y4280D01*
X34335Y4294D01*
X34338Y4316D01*
X34343Y4338D01*
X34352Y4366D01*
X34366Y4427D01*
X34382Y4487D01*
X34388Y4518D01*
X34396Y4546D01*
X34402Y4571D01*
X34407Y4593D01*
X34413Y4609D01*
X34415Y4620D01*
X34778Y5917D01*
X35086D01*
X35357Y4945D01*
Y4942D01*
X35363Y4928D01*
X35368Y4909D01*
X35374Y4884D01*
X35382Y4850D01*
X35393Y4814D01*
X35404Y4773D01*
X35415Y4726D01*
X35429Y4673D01*
X35440Y4620D01*
X35465Y4507D01*
X35490Y4388D01*
X35510Y4266D01*
Y4269D01*
X35512Y4274D01*
Y4285D01*
X35518Y4299D01*
X35521Y4316D01*
X35526Y4335D01*
X35529Y4360D01*
X35537Y4388D01*
X35551Y4449D01*
X35568Y4521D01*
X35584Y4598D01*
X35607Y4684D01*
X35906Y5917D01*
X36163D01*
X35637Y4000D01*
D02*
G37*
G36*
X39659Y5947D02*
X39684Y5945D01*
X39714Y5942D01*
X39745Y5939D01*
X39781Y5931D01*
X39856Y5914D01*
X39939Y5889D01*
X39980Y5872D01*
X40019Y5853D01*
X40058Y5828D01*
X40097Y5803D01*
X40099Y5801D01*
X40105Y5798D01*
X40116Y5789D01*
X40130Y5776D01*
X40144Y5762D01*
X40163Y5742D01*
X40183Y5720D01*
X40205Y5698D01*
X40227Y5670D01*
X40249Y5637D01*
X40274Y5604D01*
X40296Y5568D01*
X40315Y5526D01*
X40338Y5485D01*
X40354Y5440D01*
X40371Y5390D01*
X40122Y5332D01*
Y5335D01*
X40119Y5341D01*
X40113Y5352D01*
X40108Y5366D01*
X40102Y5382D01*
X40094Y5404D01*
X40072Y5449D01*
X40044Y5499D01*
X40011Y5548D01*
X39969Y5596D01*
X39925Y5637D01*
X39919Y5643D01*
X39903Y5654D01*
X39875Y5667D01*
X39839Y5687D01*
X39792Y5703D01*
X39739Y5720D01*
X39676Y5731D01*
X39606Y5734D01*
X39584D01*
X39570Y5731D01*
X39551D01*
X39529Y5728D01*
X39476Y5720D01*
X39418Y5709D01*
X39357Y5690D01*
X39293Y5662D01*
X39235Y5626D01*
X39233D01*
X39230Y5621D01*
X39210Y5607D01*
X39185Y5584D01*
X39155Y5551D01*
X39119Y5510D01*
X39086Y5463D01*
X39055Y5404D01*
X39028Y5341D01*
Y5338D01*
X39025Y5332D01*
X39022Y5324D01*
X39019Y5310D01*
X39014Y5294D01*
X39008Y5274D01*
X39000Y5227D01*
X38989Y5172D01*
X38978Y5111D01*
X38972Y5044D01*
X38969Y4972D01*
Y4970D01*
Y4961D01*
Y4947D01*
Y4931D01*
X38972Y4911D01*
Y4886D01*
X38975Y4859D01*
X38978Y4828D01*
X38986Y4762D01*
X39000Y4690D01*
X39016Y4618D01*
X39039Y4546D01*
Y4543D01*
X39041Y4537D01*
X39047Y4529D01*
X39052Y4515D01*
X39069Y4482D01*
X39094Y4443D01*
X39124Y4399D01*
X39163Y4352D01*
X39208Y4310D01*
X39260Y4272D01*
X39263D01*
X39268Y4269D01*
X39277Y4263D01*
X39288Y4258D01*
X39302Y4252D01*
X39318Y4244D01*
X39357Y4227D01*
X39407Y4211D01*
X39462Y4197D01*
X39523Y4186D01*
X39587Y4183D01*
X39606D01*
X39623Y4186D01*
X39642D01*
X39662Y4188D01*
X39712Y4199D01*
X39770Y4213D01*
X39828Y4236D01*
X39889Y4266D01*
X39919Y4282D01*
X39947Y4305D01*
X39950Y4307D01*
X39953Y4310D01*
X39961Y4318D01*
X39972Y4327D01*
X39983Y4341D01*
X39997Y4357D01*
X40014Y4374D01*
X40027Y4396D01*
X40044Y4421D01*
X40064Y4449D01*
X40080Y4476D01*
X40097Y4510D01*
X40111Y4546D01*
X40124Y4584D01*
X40138Y4626D01*
X40149Y4670D01*
X40404Y4607D01*
Y4604D01*
X40401Y4593D01*
X40396Y4576D01*
X40388Y4554D01*
X40379Y4529D01*
X40368Y4499D01*
X40354Y4465D01*
X40338Y4429D01*
X40299Y4352D01*
X40249Y4274D01*
X40219Y4236D01*
X40188Y4197D01*
X40155Y4163D01*
X40116Y4130D01*
X40113Y4127D01*
X40108Y4122D01*
X40094Y4116D01*
X40080Y4105D01*
X40058Y4091D01*
X40036Y4078D01*
X40005Y4064D01*
X39975Y4050D01*
X39939Y4033D01*
X39900Y4019D01*
X39858Y4005D01*
X39814Y3992D01*
X39767Y3981D01*
X39717Y3975D01*
X39665Y3969D01*
X39609Y3967D01*
X39579D01*
X39557Y3969D01*
X39532D01*
X39501Y3972D01*
X39468Y3978D01*
X39429Y3983D01*
X39349Y3997D01*
X39266Y4019D01*
X39183Y4050D01*
X39144Y4069D01*
X39105Y4091D01*
X39102Y4094D01*
X39097Y4097D01*
X39086Y4105D01*
X39075Y4116D01*
X39058Y4127D01*
X39039Y4144D01*
X39016Y4163D01*
X38994Y4186D01*
X38972Y4211D01*
X38947Y4236D01*
X38897Y4299D01*
X38850Y4374D01*
X38809Y4457D01*
Y4460D01*
X38803Y4468D01*
X38800Y4482D01*
X38792Y4499D01*
X38787Y4521D01*
X38778Y4549D01*
X38767Y4579D01*
X38759Y4612D01*
X38750Y4648D01*
X38739Y4690D01*
X38726Y4776D01*
X38715Y4873D01*
X38709Y4972D01*
Y4975D01*
Y4986D01*
Y5003D01*
X38712Y5022D01*
Y5050D01*
X38715Y5077D01*
X38717Y5113D01*
X38723Y5150D01*
X38737Y5230D01*
X38756Y5319D01*
X38784Y5407D01*
X38822Y5493D01*
X38825Y5496D01*
X38828Y5504D01*
X38834Y5515D01*
X38845Y5529D01*
X38856Y5548D01*
X38870Y5571D01*
X38906Y5621D01*
X38953Y5676D01*
X39008Y5731D01*
X39072Y5787D01*
X39147Y5834D01*
X39149Y5836D01*
X39158Y5839D01*
X39169Y5845D01*
X39183Y5853D01*
X39205Y5861D01*
X39227Y5870D01*
X39255Y5881D01*
X39285Y5892D01*
X39318Y5903D01*
X39354Y5914D01*
X39432Y5931D01*
X39520Y5945D01*
X39612Y5950D01*
X39640D01*
X39659Y5947D01*
D02*
G37*
G36*
X42227Y4000D02*
X41972D01*
Y4903D01*
X40980D01*
Y4000D01*
X40725D01*
Y5917D01*
X40980D01*
Y5130D01*
X41972D01*
Y5917D01*
X42227D01*
Y4000D01*
D02*
G37*
G36*
X14201Y90914D02*
X14226D01*
X14284Y90911D01*
X14345Y90903D01*
X14411Y90895D01*
X14472Y90881D01*
X14503Y90873D01*
X14528Y90864D01*
X14530D01*
X14533Y90861D01*
X14550Y90853D01*
X14575Y90842D01*
X14605Y90823D01*
X14638Y90798D01*
X14674Y90764D01*
X14708Y90726D01*
X14741Y90681D01*
Y90679D01*
X14744Y90676D01*
X14755Y90659D01*
X14766Y90632D01*
X14783Y90596D01*
X14796Y90554D01*
X14810Y90504D01*
X14818Y90452D01*
X14821Y90393D01*
Y90390D01*
Y90385D01*
Y90374D01*
X14818Y90360D01*
Y90341D01*
X14816Y90321D01*
X14805Y90274D01*
X14788Y90219D01*
X14766Y90161D01*
X14733Y90102D01*
X14710Y90075D01*
X14688Y90047D01*
X14685Y90044D01*
X14683Y90042D01*
X14674Y90033D01*
X14663Y90025D01*
X14649Y90014D01*
X14633Y90003D01*
X14611Y89989D01*
X14589Y89972D01*
X14561Y89958D01*
X14530Y89945D01*
X14497Y89928D01*
X14461Y89914D01*
X14420Y89903D01*
X14378Y89889D01*
X14331Y89881D01*
X14281Y89873D01*
X14287Y89870D01*
X14298Y89864D01*
X14314Y89853D01*
X14336Y89842D01*
X14386Y89812D01*
X14411Y89792D01*
X14433Y89776D01*
X14439Y89770D01*
X14453Y89756D01*
X14475Y89734D01*
X14503Y89706D01*
X14533Y89668D01*
X14569Y89626D01*
X14605Y89576D01*
X14644Y89521D01*
X14974Y89000D01*
X14658D01*
X14406Y89399D01*
Y89402D01*
X14400Y89407D01*
X14395Y89416D01*
X14386Y89427D01*
X14367Y89457D01*
X14342Y89496D01*
X14311Y89537D01*
X14281Y89582D01*
X14251Y89623D01*
X14223Y89662D01*
X14220Y89665D01*
X14212Y89676D01*
X14198Y89692D01*
X14179Y89712D01*
X14137Y89753D01*
X14115Y89773D01*
X14093Y89789D01*
X14090Y89792D01*
X14084Y89795D01*
X14073Y89801D01*
X14057Y89809D01*
X14040Y89817D01*
X14021Y89825D01*
X13976Y89839D01*
X13974D01*
X13968Y89842D01*
X13957D01*
X13943Y89845D01*
X13924Y89848D01*
X13902D01*
X13871Y89850D01*
X13544D01*
Y89000D01*
X13289D01*
Y90917D01*
X14179D01*
X14201Y90914D01*
D02*
G37*
G36*
X109419Y56000D02*
X109176D01*
Y57604D01*
X108616Y56000D01*
X108389D01*
X107835Y57631D01*
Y56000D01*
X107591D01*
Y57917D01*
X107971D01*
X108425Y56557D01*
Y56554D01*
X108428Y56549D01*
X108431Y56540D01*
X108436Y56526D01*
X108447Y56493D01*
X108461Y56451D01*
X108475Y56404D01*
X108491Y56357D01*
X108505Y56313D01*
X108516Y56274D01*
X108519Y56280D01*
X108522Y56294D01*
X108530Y56319D01*
X108541Y56352D01*
X108555Y56396D01*
X108574Y56449D01*
X108594Y56510D01*
X108619Y56582D01*
X109079Y57917D01*
X109419D01*
Y56000D01*
D02*
G37*
G36*
X107203Y57690D02*
X106070D01*
Y57105D01*
X107131D01*
Y56878D01*
X106070D01*
Y56227D01*
X107248D01*
Y56000D01*
X105816D01*
Y57917D01*
X107203D01*
Y57690D01*
D02*
G37*
G36*
X105525Y56576D02*
X104796D01*
Y56812D01*
X105525D01*
Y56576D01*
D02*
G37*
G36*
X90510Y17918D02*
X90532Y17916D01*
X90560Y17910D01*
X90590Y17904D01*
X90626Y17896D01*
X90659Y17888D01*
X90698Y17874D01*
X90734Y17860D01*
X90773Y17841D01*
X90812Y17819D01*
X90850Y17794D01*
X90886Y17763D01*
X90920Y17730D01*
X90922Y17727D01*
X90928Y17722D01*
X90936Y17710D01*
X90947Y17694D01*
X90961Y17674D01*
X90975Y17652D01*
X90992Y17625D01*
X91008Y17591D01*
X91025Y17555D01*
X91041Y17517D01*
X91055Y17472D01*
X91069Y17425D01*
X91080Y17373D01*
X91089Y17317D01*
X91094Y17259D01*
X91097Y17195D01*
Y17192D01*
Y17181D01*
Y17162D01*
X91094Y17134D01*
X90055D01*
Y17132D01*
Y17123D01*
X90058Y17112D01*
Y17096D01*
X90061Y17076D01*
X90066Y17054D01*
X90075Y17004D01*
X90091Y16949D01*
X90114Y16888D01*
X90144Y16832D01*
X90183Y16782D01*
X90186D01*
X90188Y16777D01*
X90205Y16763D01*
X90230Y16744D01*
X90263Y16724D01*
X90307Y16702D01*
X90357Y16683D01*
X90413Y16669D01*
X90443Y16666D01*
X90476Y16663D01*
X90499D01*
X90523Y16666D01*
X90554Y16672D01*
X90587Y16680D01*
X90626Y16691D01*
X90662Y16708D01*
X90698Y16730D01*
X90701Y16733D01*
X90715Y16744D01*
X90731Y16760D01*
X90751Y16782D01*
X90773Y16813D01*
X90798Y16852D01*
X90823Y16896D01*
X90845Y16949D01*
X91089Y16918D01*
Y16916D01*
X91086Y16910D01*
X91083Y16899D01*
X91078Y16882D01*
X91069Y16866D01*
X91061Y16844D01*
X91039Y16796D01*
X91011Y16744D01*
X90972Y16688D01*
X90928Y16636D01*
X90873Y16586D01*
X90870D01*
X90864Y16580D01*
X90856Y16575D01*
X90845Y16567D01*
X90828Y16558D01*
X90812Y16550D01*
X90789Y16539D01*
X90764Y16528D01*
X90737Y16517D01*
X90709Y16506D01*
X90640Y16489D01*
X90562Y16475D01*
X90476Y16469D01*
X90446D01*
X90426Y16472D01*
X90402Y16475D01*
X90371Y16481D01*
X90338Y16486D01*
X90302Y16492D01*
X90224Y16514D01*
X90183Y16531D01*
X90144Y16547D01*
X90102Y16569D01*
X90064Y16594D01*
X90028Y16622D01*
X89992Y16655D01*
X89989Y16658D01*
X89983Y16663D01*
X89975Y16675D01*
X89964Y16691D01*
X89950Y16711D01*
X89936Y16733D01*
X89920Y16760D01*
X89903Y16791D01*
X89886Y16827D01*
X89870Y16866D01*
X89856Y16910D01*
X89842Y16957D01*
X89831Y17007D01*
X89823Y17062D01*
X89817Y17120D01*
X89814Y17181D01*
Y17184D01*
Y17198D01*
Y17215D01*
X89817Y17240D01*
X89820Y17270D01*
X89823Y17303D01*
X89828Y17342D01*
X89837Y17381D01*
X89859Y17470D01*
X89873Y17514D01*
X89889Y17561D01*
X89911Y17605D01*
X89936Y17647D01*
X89964Y17688D01*
X89994Y17727D01*
X89997Y17730D01*
X90003Y17735D01*
X90014Y17744D01*
X90028Y17758D01*
X90044Y17771D01*
X90066Y17788D01*
X90091Y17807D01*
X90122Y17824D01*
X90152Y17843D01*
X90188Y17860D01*
X90227Y17877D01*
X90269Y17890D01*
X90313Y17904D01*
X90360Y17913D01*
X90410Y17918D01*
X90463Y17921D01*
X90490D01*
X90510Y17918D01*
D02*
G37*
G36*
X110777Y57947D02*
X110799D01*
X110852Y57942D01*
X110910Y57933D01*
X110971Y57920D01*
X111037Y57903D01*
X111101Y57881D01*
X111103D01*
X111109Y57878D01*
X111117Y57875D01*
X111128Y57870D01*
X111159Y57853D01*
X111198Y57834D01*
X111239Y57806D01*
X111284Y57773D01*
X111325Y57737D01*
X111364Y57692D01*
X111370Y57687D01*
X111381Y57670D01*
X111397Y57645D01*
X111419Y57609D01*
X111442Y57565D01*
X111466Y57510D01*
X111491Y57449D01*
X111511Y57380D01*
X111281Y57319D01*
Y57321D01*
X111278Y57324D01*
X111275Y57332D01*
X111273Y57343D01*
X111264Y57368D01*
X111253Y57402D01*
X111237Y57440D01*
X111217Y57476D01*
X111198Y57515D01*
X111173Y57548D01*
X111170Y57551D01*
X111162Y57562D01*
X111145Y57576D01*
X111126Y57595D01*
X111101Y57618D01*
X111067Y57640D01*
X111031Y57662D01*
X110990Y57681D01*
X110984Y57684D01*
X110971Y57690D01*
X110946Y57698D01*
X110912Y57709D01*
X110874Y57717D01*
X110829Y57726D01*
X110779Y57731D01*
X110727Y57734D01*
X110696D01*
X110682Y57731D01*
X110666D01*
X110624Y57728D01*
X110577Y57720D01*
X110525Y57712D01*
X110475Y57698D01*
X110425Y57679D01*
X110419Y57676D01*
X110403Y57670D01*
X110381Y57657D01*
X110353Y57643D01*
X110320Y57621D01*
X110284Y57598D01*
X110250Y57571D01*
X110220Y57540D01*
X110217Y57537D01*
X110206Y57526D01*
X110192Y57507D01*
X110176Y57485D01*
X110156Y57457D01*
X110137Y57424D01*
X110117Y57388D01*
X110098Y57349D01*
Y57346D01*
X110095Y57341D01*
X110092Y57332D01*
X110087Y57319D01*
X110081Y57302D01*
X110076Y57283D01*
X110068Y57260D01*
X110062Y57235D01*
X110048Y57177D01*
X110037Y57111D01*
X110029Y57042D01*
X110026Y56964D01*
Y56961D01*
Y56953D01*
Y56939D01*
X110029Y56922D01*
Y56900D01*
X110031Y56873D01*
X110034Y56845D01*
X110037Y56814D01*
X110048Y56745D01*
X110062Y56673D01*
X110084Y56601D01*
X110112Y56532D01*
Y56529D01*
X110117Y56524D01*
X110120Y56515D01*
X110128Y56504D01*
X110148Y56474D01*
X110178Y56435D01*
X110214Y56393D01*
X110259Y56352D01*
X110311Y56313D01*
X110370Y56277D01*
X110372D01*
X110378Y56274D01*
X110386Y56269D01*
X110400Y56263D01*
X110414Y56258D01*
X110433Y56252D01*
X110477Y56235D01*
X110533Y56222D01*
X110594Y56208D01*
X110660Y56197D01*
X110730Y56194D01*
X110757D01*
X110774Y56197D01*
X110791D01*
X110832Y56202D01*
X110882Y56208D01*
X110935Y56219D01*
X110993Y56235D01*
X111051Y56255D01*
X111054D01*
X111059Y56258D01*
X111065Y56260D01*
X111076Y56266D01*
X111106Y56280D01*
X111140Y56296D01*
X111178Y56316D01*
X111220Y56338D01*
X111259Y56363D01*
X111292Y56391D01*
Y56751D01*
X110727D01*
Y56978D01*
X111541D01*
Y56266D01*
X111538Y56263D01*
X111533Y56260D01*
X111522Y56252D01*
X111508Y56241D01*
X111491Y56230D01*
X111472Y56216D01*
X111447Y56199D01*
X111422Y56183D01*
X111364Y56147D01*
X111297Y56108D01*
X111228Y56072D01*
X111153Y56042D01*
X111151D01*
X111145Y56039D01*
X111134Y56036D01*
X111120Y56030D01*
X111101Y56025D01*
X111079Y56017D01*
X111054Y56011D01*
X111029Y56006D01*
X110968Y55992D01*
X110899Y55978D01*
X110824Y55970D01*
X110746Y55967D01*
X110719D01*
X110699Y55970D01*
X110674D01*
X110644Y55972D01*
X110610Y55978D01*
X110574Y55981D01*
X110494Y55997D01*
X110408Y56017D01*
X110320Y56047D01*
X110275Y56064D01*
X110231Y56086D01*
X110228Y56089D01*
X110220Y56091D01*
X110209Y56100D01*
X110192Y56108D01*
X110173Y56122D01*
X110153Y56136D01*
X110101Y56174D01*
X110045Y56224D01*
X109987Y56285D01*
X109932Y56355D01*
X109882Y56435D01*
Y56438D01*
X109876Y56446D01*
X109871Y56457D01*
X109863Y56476D01*
X109854Y56496D01*
X109846Y56524D01*
X109835Y56551D01*
X109824Y56585D01*
X109813Y56621D01*
X109802Y56662D01*
X109793Y56704D01*
X109785Y56748D01*
X109771Y56845D01*
X109766Y56947D01*
Y56950D01*
Y56961D01*
Y56975D01*
X109768Y56994D01*
Y57019D01*
X109771Y57050D01*
X109777Y57080D01*
X109780Y57116D01*
X109788Y57155D01*
X109793Y57197D01*
X109816Y57285D01*
X109843Y57377D01*
X109882Y57468D01*
X109885Y57471D01*
X109888Y57479D01*
X109893Y57490D01*
X109904Y57507D01*
X109915Y57529D01*
X109929Y57551D01*
X109968Y57604D01*
X110015Y57665D01*
X110073Y57723D01*
X110140Y57781D01*
X110178Y57806D01*
X110217Y57831D01*
X110220Y57834D01*
X110228Y57837D01*
X110239Y57842D01*
X110256Y57850D01*
X110278Y57859D01*
X110303Y57870D01*
X110331Y57881D01*
X110364Y57892D01*
X110400Y57903D01*
X110439Y57911D01*
X110480Y57922D01*
X110525Y57931D01*
X110622Y57945D01*
X110671Y57950D01*
X110760D01*
X110777Y57947D01*
D02*
G37*
G36*
X104525Y57690D02*
X103392D01*
Y57105D01*
X104453D01*
Y56878D01*
X103392D01*
Y56227D01*
X104569D01*
Y56000D01*
X103137D01*
Y57917D01*
X104525D01*
Y57690D01*
D02*
G37*
G36*
X3729Y6576D02*
X3000D01*
Y6812D01*
X3729D01*
Y6576D01*
D02*
G37*
G36*
X18248Y90947D02*
X18270D01*
X18323Y90942D01*
X18381Y90934D01*
X18442Y90920D01*
X18508Y90903D01*
X18572Y90881D01*
X18575D01*
X18580Y90878D01*
X18588Y90875D01*
X18599Y90870D01*
X18630Y90853D01*
X18669Y90834D01*
X18710Y90806D01*
X18755Y90773D01*
X18796Y90737D01*
X18835Y90693D01*
X18841Y90687D01*
X18852Y90670D01*
X18868Y90645D01*
X18890Y90609D01*
X18913Y90565D01*
X18937Y90510D01*
X18962Y90449D01*
X18982Y90380D01*
X18752Y90319D01*
Y90321D01*
X18749Y90324D01*
X18746Y90332D01*
X18744Y90343D01*
X18735Y90368D01*
X18724Y90402D01*
X18708Y90440D01*
X18688Y90476D01*
X18669Y90515D01*
X18644Y90548D01*
X18641Y90551D01*
X18633Y90562D01*
X18616Y90576D01*
X18597Y90596D01*
X18572Y90618D01*
X18539Y90640D01*
X18503Y90662D01*
X18461Y90681D01*
X18455Y90684D01*
X18442Y90690D01*
X18417Y90698D01*
X18383Y90709D01*
X18345Y90717D01*
X18300Y90726D01*
X18250Y90731D01*
X18198Y90734D01*
X18167D01*
X18154Y90731D01*
X18137D01*
X18095Y90728D01*
X18048Y90720D01*
X17996Y90712D01*
X17946Y90698D01*
X17896Y90679D01*
X17890Y90676D01*
X17874Y90670D01*
X17852Y90657D01*
X17824Y90643D01*
X17791Y90620D01*
X17755Y90598D01*
X17721Y90571D01*
X17691Y90540D01*
X17688Y90537D01*
X17677Y90526D01*
X17663Y90507D01*
X17647Y90485D01*
X17627Y90457D01*
X17608Y90424D01*
X17589Y90388D01*
X17569Y90349D01*
Y90346D01*
X17566Y90341D01*
X17563Y90332D01*
X17558Y90319D01*
X17552Y90302D01*
X17547Y90282D01*
X17539Y90260D01*
X17533Y90235D01*
X17519Y90177D01*
X17508Y90111D01*
X17500Y90042D01*
X17497Y89964D01*
Y89961D01*
Y89953D01*
Y89939D01*
X17500Y89922D01*
Y89900D01*
X17503Y89873D01*
X17505Y89845D01*
X17508Y89814D01*
X17519Y89745D01*
X17533Y89673D01*
X17555Y89601D01*
X17583Y89532D01*
Y89529D01*
X17589Y89524D01*
X17591Y89515D01*
X17600Y89504D01*
X17619Y89474D01*
X17649Y89435D01*
X17685Y89393D01*
X17730Y89352D01*
X17782Y89313D01*
X17841Y89277D01*
X17843D01*
X17849Y89274D01*
X17857Y89269D01*
X17871Y89263D01*
X17885Y89258D01*
X17904Y89252D01*
X17949Y89236D01*
X18004Y89222D01*
X18065Y89208D01*
X18131Y89197D01*
X18201Y89194D01*
X18228D01*
X18245Y89197D01*
X18262D01*
X18303Y89202D01*
X18353Y89208D01*
X18406Y89219D01*
X18464Y89236D01*
X18522Y89255D01*
X18525D01*
X18530Y89258D01*
X18536Y89260D01*
X18547Y89266D01*
X18577Y89280D01*
X18611Y89296D01*
X18649Y89316D01*
X18691Y89338D01*
X18730Y89363D01*
X18763Y89391D01*
Y89751D01*
X18198D01*
Y89978D01*
X19012D01*
Y89266D01*
X19010Y89263D01*
X19004Y89260D01*
X18993Y89252D01*
X18979Y89241D01*
X18962Y89230D01*
X18943Y89216D01*
X18918Y89199D01*
X18893Y89183D01*
X18835Y89147D01*
X18768Y89108D01*
X18699Y89072D01*
X18624Y89042D01*
X18622D01*
X18616Y89039D01*
X18605Y89036D01*
X18591Y89030D01*
X18572Y89025D01*
X18550Y89017D01*
X18525Y89011D01*
X18500Y89006D01*
X18439Y88992D01*
X18370Y88978D01*
X18295Y88969D01*
X18217Y88967D01*
X18190D01*
X18170Y88969D01*
X18145D01*
X18115Y88972D01*
X18081Y88978D01*
X18045Y88981D01*
X17965Y88997D01*
X17879Y89017D01*
X17791Y89047D01*
X17746Y89064D01*
X17702Y89086D01*
X17699Y89089D01*
X17691Y89091D01*
X17680Y89100D01*
X17663Y89108D01*
X17644Y89122D01*
X17625Y89136D01*
X17572Y89174D01*
X17516Y89224D01*
X17458Y89285D01*
X17403Y89355D01*
X17353Y89435D01*
Y89438D01*
X17347Y89446D01*
X17342Y89457D01*
X17334Y89476D01*
X17325Y89496D01*
X17317Y89524D01*
X17306Y89551D01*
X17295Y89584D01*
X17284Y89621D01*
X17273Y89662D01*
X17264Y89704D01*
X17256Y89748D01*
X17242Y89845D01*
X17237Y89947D01*
Y89950D01*
Y89961D01*
Y89975D01*
X17239Y89994D01*
Y90019D01*
X17242Y90050D01*
X17248Y90080D01*
X17251Y90116D01*
X17259Y90155D01*
X17264Y90197D01*
X17287Y90285D01*
X17314Y90377D01*
X17353Y90468D01*
X17356Y90471D01*
X17358Y90479D01*
X17364Y90490D01*
X17375Y90507D01*
X17386Y90529D01*
X17400Y90551D01*
X17439Y90604D01*
X17486Y90665D01*
X17544Y90723D01*
X17611Y90781D01*
X17649Y90806D01*
X17688Y90831D01*
X17691Y90834D01*
X17699Y90837D01*
X17710Y90842D01*
X17727Y90850D01*
X17749Y90859D01*
X17774Y90870D01*
X17802Y90881D01*
X17835Y90892D01*
X17871Y90903D01*
X17910Y90911D01*
X17951Y90922D01*
X17996Y90931D01*
X18093Y90944D01*
X18143Y90950D01*
X18231D01*
X18248Y90947D01*
D02*
G37*
G36*
X17242Y6555D02*
X17763D01*
Y6336D01*
X17242D01*
Y5810D01*
X17021D01*
Y6336D01*
X16500D01*
Y6555D01*
X17021D01*
Y7076D01*
X17242D01*
Y6555D01*
D02*
G37*
G36*
X102805Y57690D02*
X101763D01*
Y57097D01*
X102663D01*
Y56870D01*
X101763D01*
Y56000D01*
X101508D01*
Y57917D01*
X102805D01*
Y57690D01*
D02*
G37*
G36*
X101292Y56000D02*
X101004D01*
X100780Y56582D01*
X99976D01*
X99769Y56000D01*
X99500D01*
X100231Y57917D01*
X100508D01*
X101292Y56000D01*
D02*
G37*
G36*
X113029Y1500D02*
X112741D01*
X112516Y2082D01*
X111713D01*
X111505Y1500D01*
X111237D01*
X111968Y3417D01*
X112245D01*
X113029Y1500D01*
D02*
G37*
G36*
X110489Y3414D02*
X110536Y3411D01*
X110586Y3409D01*
X110633Y3403D01*
X110674Y3397D01*
X110680D01*
X110699Y3392D01*
X110724Y3386D01*
X110758Y3378D01*
X110793Y3364D01*
X110832Y3348D01*
X110874Y3328D01*
X110910Y3306D01*
X110915Y3303D01*
X110926Y3295D01*
X110943Y3278D01*
X110965Y3259D01*
X110990Y3234D01*
X111015Y3201D01*
X111043Y3165D01*
X111065Y3123D01*
X111068Y3118D01*
X111073Y3104D01*
X111084Y3079D01*
X111095Y3046D01*
X111104Y3007D01*
X111115Y2963D01*
X111120Y2913D01*
X111123Y2860D01*
Y2857D01*
Y2849D01*
Y2838D01*
X111120Y2819D01*
X111118Y2799D01*
X111115Y2774D01*
X111109Y2747D01*
X111104Y2716D01*
X111084Y2652D01*
X111073Y2619D01*
X111057Y2583D01*
X111037Y2547D01*
X111018Y2514D01*
X110993Y2481D01*
X110965Y2447D01*
X110962Y2445D01*
X110957Y2439D01*
X110949Y2431D01*
X110935Y2422D01*
X110918Y2409D01*
X110896Y2395D01*
X110868Y2378D01*
X110838Y2364D01*
X110802Y2348D01*
X110760Y2331D01*
X110716Y2317D01*
X110663Y2306D01*
X110608Y2295D01*
X110547Y2287D01*
X110478Y2281D01*
X110406Y2278D01*
X109915D01*
Y1500D01*
X109661D01*
Y3417D01*
X110447D01*
X110489Y3414D01*
D02*
G37*
G36*
X33418Y41227D02*
X34363D01*
Y41000D01*
X33163D01*
Y42917D01*
X33418D01*
Y41227D01*
D02*
G37*
G36*
X35399Y42138D02*
X36238Y41000D01*
X35903D01*
X35221Y41967D01*
X34908Y41665D01*
Y41000D01*
X34654D01*
Y42917D01*
X34908D01*
Y41964D01*
X35856Y42917D01*
X36202D01*
X35399Y42138D01*
D02*
G37*
G36*
X30828Y41000D02*
X30584D01*
Y42604D01*
X30025Y41000D01*
X29798D01*
X29244Y42632D01*
Y41000D01*
X29000D01*
Y42917D01*
X29379D01*
X29834Y41557D01*
Y41554D01*
X29836Y41548D01*
X29839Y41540D01*
X29845Y41526D01*
X29856Y41493D01*
X29870Y41451D01*
X29884Y41404D01*
X29900Y41357D01*
X29914Y41313D01*
X29925Y41274D01*
X29928Y41280D01*
X29931Y41294D01*
X29939Y41319D01*
X29950Y41352D01*
X29964Y41396D01*
X29983Y41449D01*
X30003Y41510D01*
X30028Y41582D01*
X30487Y42917D01*
X30828D01*
Y41000D01*
D02*
G37*
G36*
X108461Y3447D02*
X108486D01*
X108511Y3444D01*
X108544Y3439D01*
X108578Y3433D01*
X108650Y3420D01*
X108733Y3397D01*
X108813Y3364D01*
X108854Y3345D01*
X108896Y3323D01*
X108899Y3320D01*
X108904Y3317D01*
X108915Y3309D01*
X108932Y3300D01*
X108949Y3287D01*
X108971Y3270D01*
X109018Y3231D01*
X109068Y3181D01*
X109123Y3120D01*
X109176Y3048D01*
X109220Y2968D01*
Y2965D01*
X109226Y2957D01*
X109231Y2946D01*
X109237Y2929D01*
X109248Y2907D01*
X109256Y2882D01*
X109267Y2852D01*
X109278Y2819D01*
X109287Y2782D01*
X109298Y2744D01*
X109309Y2699D01*
X109317Y2655D01*
X109328Y2558D01*
X109334Y2453D01*
Y2450D01*
Y2439D01*
Y2425D01*
X109331Y2403D01*
Y2378D01*
X109328Y2348D01*
X109323Y2314D01*
X109320Y2278D01*
X109306Y2198D01*
X109284Y2109D01*
X109253Y2021D01*
X109237Y1976D01*
X109215Y1932D01*
Y1929D01*
X109209Y1921D01*
X109204Y1910D01*
X109193Y1893D01*
X109181Y1874D01*
X109168Y1855D01*
X109129Y1802D01*
X109082Y1746D01*
X109026Y1688D01*
X108960Y1633D01*
X108882Y1583D01*
X108879D01*
X108874Y1578D01*
X108860Y1572D01*
X108844Y1564D01*
X108824Y1555D01*
X108802Y1547D01*
X108774Y1536D01*
X108744Y1525D01*
X108711Y1514D01*
X108675Y1503D01*
X108594Y1486D01*
X108508Y1472D01*
X108417Y1467D01*
X108389D01*
X108373Y1469D01*
X108348D01*
X108320Y1475D01*
X108290Y1478D01*
X108253Y1483D01*
X108179Y1500D01*
X108098Y1522D01*
X108015Y1555D01*
X107974Y1575D01*
X107932Y1597D01*
X107929Y1600D01*
X107924Y1602D01*
X107913Y1611D01*
X107896Y1622D01*
X107879Y1633D01*
X107860Y1650D01*
X107813Y1691D01*
X107760Y1741D01*
X107705Y1802D01*
X107655Y1871D01*
X107608Y1952D01*
Y1954D01*
X107603Y1963D01*
X107597Y1974D01*
X107591Y1990D01*
X107583Y2012D01*
X107575Y2037D01*
X107564Y2065D01*
X107555Y2096D01*
X107544Y2132D01*
X107533Y2168D01*
X107517Y2251D01*
X107506Y2337D01*
X107500Y2431D01*
Y2434D01*
Y2436D01*
Y2453D01*
X107503Y2478D01*
Y2511D01*
X107508Y2550D01*
X107514Y2597D01*
X107522Y2650D01*
X107533Y2705D01*
X107544Y2763D01*
X107561Y2824D01*
X107583Y2885D01*
X107608Y2949D01*
X107636Y3010D01*
X107672Y3071D01*
X107711Y3126D01*
X107755Y3179D01*
X107758Y3181D01*
X107766Y3190D01*
X107782Y3204D01*
X107802Y3220D01*
X107827Y3242D01*
X107857Y3264D01*
X107893Y3289D01*
X107935Y3314D01*
X107979Y3339D01*
X108029Y3364D01*
X108084Y3386D01*
X108143Y3409D01*
X108206Y3425D01*
X108273Y3439D01*
X108342Y3447D01*
X108417Y3450D01*
X108442D01*
X108461Y3447D01*
D02*
G37*
G36*
X32599Y73000D02*
X32503D01*
X32428Y73194D01*
X32159D01*
X32090Y73000D01*
X32001D01*
X32244Y73641D01*
X32338D01*
X32599Y73000D01*
D02*
G37*
G36*
X72897Y80500D02*
X72000D01*
Y81397D01*
X72897D01*
Y80500D01*
D02*
G37*
G36*
X32931Y73000D02*
X32852D01*
Y73501D01*
X32851Y73500D01*
X32847Y73496D01*
X32840Y73491D01*
X32832Y73484D01*
X32821Y73476D01*
X32808Y73467D01*
X32793Y73457D01*
X32777Y73447D01*
X32775Y73446D01*
X32769Y73443D01*
X32761Y73438D01*
X32750Y73432D01*
X32737Y73425D01*
X32723Y73418D01*
X32709Y73412D01*
X32695Y73406D01*
Y73483D01*
X32696D01*
X32698Y73484D01*
X32701Y73486D01*
X32706Y73489D01*
X32712Y73492D01*
X32718Y73495D01*
X32734Y73504D01*
X32751Y73515D01*
X32771Y73528D01*
X32790Y73542D01*
X32809Y73558D01*
X32810Y73559D01*
X32811Y73560D01*
X32817Y73566D01*
X32826Y73574D01*
X32837Y73585D01*
X32848Y73598D01*
X32860Y73613D01*
X32871Y73628D01*
X32880Y73644D01*
X32931D01*
Y73000D01*
D02*
G37*
G36*
X32355Y57204D02*
Y57203D01*
Y57200D01*
Y57196D01*
Y57191D01*
X32354Y57184D01*
Y57176D01*
X32353Y57158D01*
X32350Y57138D01*
X32347Y57117D01*
X32342Y57097D01*
X32335Y57079D01*
X32334Y57077D01*
X32331Y57072D01*
X32327Y57064D01*
X32320Y57054D01*
X32312Y57043D01*
X32301Y57032D01*
X32288Y57022D01*
X32273Y57012D01*
X32271Y57011D01*
X32266Y57008D01*
X32257Y57005D01*
X32245Y57001D01*
X32230Y56996D01*
X32214Y56993D01*
X32195Y56990D01*
X32174Y56989D01*
X32166D01*
X32160Y56990D01*
X32153D01*
X32145Y56992D01*
X32126Y56995D01*
X32106Y57001D01*
X32084Y57009D01*
X32063Y57021D01*
X32054Y57029D01*
X32045Y57037D01*
Y57038D01*
X32043Y57039D01*
X32041Y57042D01*
X32038Y57046D01*
X32035Y57051D01*
X32031Y57057D01*
X32027Y57065D01*
X32023Y57073D01*
X32019Y57083D01*
X32015Y57093D01*
X32011Y57105D01*
X32008Y57118D01*
X32005Y57132D01*
X32003Y57147D01*
X32002Y57164D01*
Y57181D01*
X32078Y57192D01*
Y57191D01*
Y57189D01*
Y57185D01*
X32079Y57180D01*
Y57174D01*
X32080Y57167D01*
X32083Y57152D01*
X32086Y57135D01*
X32091Y57118D01*
X32097Y57103D01*
X32101Y57097D01*
X32105Y57091D01*
X32106Y57090D01*
X32110Y57087D01*
X32115Y57083D01*
X32123Y57078D01*
X32133Y57073D01*
X32144Y57069D01*
X32158Y57066D01*
X32173Y57065D01*
X32178D01*
X32184Y57066D01*
X32192Y57067D01*
X32201Y57068D01*
X32210Y57071D01*
X32219Y57074D01*
X32228Y57079D01*
X32229Y57080D01*
X32232Y57082D01*
X32236Y57085D01*
X32241Y57090D01*
X32247Y57095D01*
X32252Y57102D01*
X32257Y57110D01*
X32261Y57119D01*
Y57120D01*
X32262Y57124D01*
X32264Y57130D01*
X32266Y57138D01*
X32267Y57150D01*
X32269Y57163D01*
X32270Y57180D01*
Y57199D01*
Y57641D01*
X32355D01*
Y57204D01*
D02*
G37*
G36*
X32757Y57000D02*
X32678D01*
Y57501D01*
X32677Y57500D01*
X32673Y57496D01*
X32666Y57491D01*
X32658Y57484D01*
X32647Y57476D01*
X32634Y57467D01*
X32619Y57457D01*
X32603Y57447D01*
X32601Y57446D01*
X32595Y57443D01*
X32587Y57438D01*
X32576Y57432D01*
X32563Y57425D01*
X32549Y57418D01*
X32535Y57412D01*
X32521Y57406D01*
Y57483D01*
X32522D01*
X32524Y57484D01*
X32527Y57486D01*
X32532Y57489D01*
X32538Y57492D01*
X32544Y57495D01*
X32560Y57504D01*
X32577Y57515D01*
X32597Y57528D01*
X32616Y57542D01*
X32635Y57558D01*
X32636Y57559D01*
X32637Y57560D01*
X32643Y57566D01*
X32652Y57574D01*
X32663Y57585D01*
X32674Y57598D01*
X32686Y57613D01*
X32697Y57628D01*
X32706Y57644D01*
X32757D01*
Y57000D01*
D02*
G37*
G36*
X97500Y51202D02*
X95583D01*
Y52590D01*
X95810D01*
Y51457D01*
X96395D01*
Y52518D01*
X96622D01*
Y51457D01*
X97273D01*
Y52634D01*
X97500D01*
Y51202D01*
D02*
G37*
G36*
X95810Y49828D02*
X96403D01*
Y50728D01*
X96630D01*
Y49828D01*
X97500D01*
Y49573D01*
X95583D01*
Y50870D01*
X95810D01*
Y49828D01*
D02*
G37*
G36*
X1737Y33273D02*
X1740Y33267D01*
X1748Y33256D01*
X1759Y33242D01*
X1770Y33226D01*
X1784Y33206D01*
X1801Y33181D01*
X1817Y33156D01*
X1853Y33098D01*
X1892Y33032D01*
X1928Y32963D01*
X1958Y32888D01*
Y32885D01*
X1961Y32879D01*
X1964Y32868D01*
X1970Y32855D01*
X1975Y32835D01*
X1983Y32813D01*
X1989Y32788D01*
X1994Y32763D01*
X2008Y32702D01*
X2022Y32633D01*
X2031Y32558D01*
X2033Y32481D01*
Y32478D01*
Y32467D01*
Y32453D01*
X2031Y32434D01*
Y32409D01*
X2028Y32378D01*
X2022Y32345D01*
X2019Y32309D01*
X2003Y32228D01*
X1983Y32143D01*
X1953Y32054D01*
X1936Y32010D01*
X1914Y31965D01*
X1911Y31963D01*
X1909Y31954D01*
X1900Y31943D01*
X1892Y31927D01*
X1878Y31907D01*
X1864Y31888D01*
X1825Y31835D01*
X1776Y31780D01*
X1715Y31722D01*
X1645Y31666D01*
X1565Y31616D01*
X1562D01*
X1554Y31611D01*
X1543Y31605D01*
X1524Y31597D01*
X1504Y31589D01*
X1476Y31580D01*
X1449Y31569D01*
X1416Y31558D01*
X1379Y31547D01*
X1338Y31536D01*
X1296Y31528D01*
X1252Y31519D01*
X1155Y31506D01*
X1053Y31500D01*
X1025D01*
X1006Y31503D01*
X981D01*
X950Y31506D01*
X920Y31511D01*
X884Y31514D01*
X845Y31522D01*
X803Y31528D01*
X715Y31550D01*
X623Y31578D01*
X532Y31616D01*
X529Y31619D01*
X521Y31622D01*
X510Y31627D01*
X493Y31639D01*
X471Y31650D01*
X449Y31663D01*
X396Y31702D01*
X335Y31749D01*
X277Y31808D01*
X219Y31874D01*
X194Y31913D01*
X169Y31951D01*
X166Y31954D01*
X163Y31963D01*
X158Y31974D01*
X150Y31990D01*
X141Y32013D01*
X130Y32037D01*
X119Y32065D01*
X108Y32098D01*
X97Y32134D01*
X89Y32173D01*
X78Y32215D01*
X69Y32259D01*
X55Y32356D01*
X50Y32406D01*
Y32458D01*
Y32461D01*
Y32467D01*
Y32478D01*
Y32494D01*
X53Y32511D01*
Y32533D01*
X58Y32586D01*
X66Y32644D01*
X80Y32705D01*
X97Y32771D01*
X119Y32835D01*
Y32838D01*
X122Y32844D01*
X125Y32852D01*
X130Y32863D01*
X147Y32893D01*
X166Y32932D01*
X194Y32974D01*
X227Y33018D01*
X263Y33059D01*
X307Y33098D01*
X313Y33104D01*
X330Y33115D01*
X355Y33132D01*
X391Y33154D01*
X435Y33176D01*
X490Y33201D01*
X551Y33226D01*
X620Y33245D01*
X681Y33015D01*
X679D01*
X676Y33012D01*
X668Y33010D01*
X657Y33007D01*
X632Y32999D01*
X598Y32987D01*
X560Y32971D01*
X524Y32952D01*
X485Y32932D01*
X452Y32907D01*
X449Y32904D01*
X438Y32896D01*
X424Y32879D01*
X404Y32860D01*
X382Y32835D01*
X360Y32802D01*
X338Y32766D01*
X319Y32724D01*
X316Y32719D01*
X310Y32705D01*
X302Y32680D01*
X291Y32647D01*
X283Y32608D01*
X274Y32564D01*
X269Y32514D01*
X266Y32461D01*
Y32458D01*
Y32453D01*
Y32445D01*
Y32431D01*
X269Y32417D01*
Y32400D01*
X271Y32359D01*
X280Y32312D01*
X288Y32259D01*
X302Y32209D01*
X321Y32159D01*
X324Y32154D01*
X330Y32137D01*
X344Y32115D01*
X357Y32087D01*
X380Y32054D01*
X402Y32018D01*
X429Y31985D01*
X460Y31954D01*
X463Y31951D01*
X474Y31940D01*
X493Y31927D01*
X515Y31910D01*
X543Y31891D01*
X576Y31871D01*
X612Y31852D01*
X651Y31832D01*
X654D01*
X659Y31830D01*
X668Y31827D01*
X681Y31821D01*
X698Y31816D01*
X717Y31810D01*
X740Y31802D01*
X765Y31796D01*
X823Y31782D01*
X889Y31771D01*
X958Y31763D01*
X1036Y31760D01*
X1061D01*
X1078Y31763D01*
X1100D01*
X1127Y31766D01*
X1155Y31769D01*
X1186Y31771D01*
X1255Y31782D01*
X1327Y31796D01*
X1399Y31819D01*
X1468Y31846D01*
X1471D01*
X1476Y31852D01*
X1485Y31855D01*
X1496Y31863D01*
X1526Y31882D01*
X1565Y31913D01*
X1607Y31949D01*
X1648Y31993D01*
X1687Y32046D01*
X1723Y32104D01*
Y32107D01*
X1726Y32112D01*
X1731Y32120D01*
X1737Y32134D01*
X1742Y32148D01*
X1748Y32168D01*
X1764Y32212D01*
X1778Y32267D01*
X1792Y32328D01*
X1803Y32395D01*
X1806Y32464D01*
Y32467D01*
Y32472D01*
Y32481D01*
Y32492D01*
X1803Y32508D01*
Y32525D01*
X1798Y32566D01*
X1792Y32616D01*
X1781Y32669D01*
X1764Y32727D01*
X1745Y32785D01*
Y32788D01*
X1742Y32794D01*
X1740Y32799D01*
X1734Y32810D01*
X1720Y32841D01*
X1704Y32874D01*
X1684Y32913D01*
X1662Y32954D01*
X1637Y32993D01*
X1609Y33026D01*
X1249D01*
Y32461D01*
X1022D01*
Y33276D01*
X1734D01*
X1737Y33273D01*
D02*
G37*
G36*
X1089Y37165D02*
X1111D01*
X1163Y37162D01*
X1224Y37154D01*
X1288Y37145D01*
X1355Y37131D01*
X1421Y37115D01*
X1424D01*
X1429Y37112D01*
X1438Y37109D01*
X1449Y37106D01*
X1479Y37095D01*
X1518Y37079D01*
X1562Y37062D01*
X1607Y37040D01*
X1654Y37012D01*
X1698Y36985D01*
X1704Y36982D01*
X1718Y36971D01*
X1737Y36954D01*
X1762Y36932D01*
X1790Y36907D01*
X1817Y36877D01*
X1848Y36846D01*
X1873Y36810D01*
X1875Y36805D01*
X1884Y36794D01*
X1895Y36774D01*
X1909Y36746D01*
X1925Y36713D01*
X1939Y36674D01*
X1956Y36630D01*
X1970Y36580D01*
Y36577D01*
Y36575D01*
X1972Y36566D01*
X1975Y36558D01*
X1978Y36530D01*
X1983Y36492D01*
X1989Y36447D01*
X1994Y36395D01*
X1997Y36336D01*
X2000Y36273D01*
Y35583D01*
X83D01*
Y36242D01*
Y36245D01*
Y36253D01*
Y36264D01*
Y36278D01*
Y36298D01*
Y36320D01*
X86Y36370D01*
X89Y36425D01*
X94Y36481D01*
X103Y36536D01*
X111Y36583D01*
Y36586D01*
X114Y36591D01*
Y36600D01*
X119Y36611D01*
X128Y36641D01*
X141Y36680D01*
X161Y36724D01*
X186Y36771D01*
X213Y36818D01*
X249Y36863D01*
X252Y36865D01*
X255Y36868D01*
X263Y36877D01*
X271Y36888D01*
X299Y36915D01*
X338Y36949D01*
X385Y36985D01*
X440Y37023D01*
X504Y37059D01*
X576Y37090D01*
X579D01*
X585Y37093D01*
X596Y37098D01*
X612Y37101D01*
X632Y37109D01*
X654Y37115D01*
X679Y37120D01*
X709Y37129D01*
X740Y37137D01*
X776Y37143D01*
X853Y37156D01*
X939Y37165D01*
X1033Y37167D01*
X1069D01*
X1089Y37165D01*
D02*
G37*
G36*
X2000Y34893D02*
X496Y33891D01*
X2000D01*
Y33647D01*
X83D01*
Y33907D01*
X1590Y34913D01*
X83D01*
Y35156D01*
X2000D01*
Y34893D01*
D02*
G37*
G36*
X97500Y49069D02*
X96918Y48845D01*
Y48041D01*
X97500Y47834D01*
Y47565D01*
X95583Y48296D01*
Y48573D01*
X97500Y49357D01*
Y49069D01*
D02*
G37*
G36*
X96907Y42693D02*
X96924Y42687D01*
X96946Y42679D01*
X96971Y42670D01*
X97001Y42659D01*
X97035Y42645D01*
X97071Y42629D01*
X97148Y42590D01*
X97226Y42540D01*
X97264Y42510D01*
X97303Y42479D01*
X97337Y42446D01*
X97370Y42407D01*
X97373Y42404D01*
X97378Y42399D01*
X97384Y42385D01*
X97395Y42371D01*
X97409Y42349D01*
X97422Y42327D01*
X97436Y42296D01*
X97450Y42266D01*
X97467Y42230D01*
X97481Y42191D01*
X97495Y42149D01*
X97508Y42105D01*
X97519Y42058D01*
X97525Y42008D01*
X97531Y41956D01*
X97533Y41900D01*
Y41897D01*
Y41886D01*
Y41870D01*
X97531Y41848D01*
Y41823D01*
X97528Y41792D01*
X97522Y41759D01*
X97517Y41720D01*
X97503Y41640D01*
X97481Y41557D01*
X97450Y41474D01*
X97431Y41435D01*
X97409Y41396D01*
X97406Y41393D01*
X97403Y41388D01*
X97395Y41377D01*
X97384Y41366D01*
X97373Y41349D01*
X97356Y41330D01*
X97337Y41308D01*
X97314Y41285D01*
X97290Y41263D01*
X97264Y41238D01*
X97201Y41188D01*
X97126Y41141D01*
X97043Y41100D01*
X97040D01*
X97032Y41094D01*
X97018Y41091D01*
X97001Y41083D01*
X96979Y41078D01*
X96952Y41069D01*
X96921Y41058D01*
X96888Y41050D01*
X96852Y41042D01*
X96810Y41030D01*
X96724Y41017D01*
X96627Y41006D01*
X96528Y41000D01*
X96497D01*
X96478Y41003D01*
X96450D01*
X96422Y41006D01*
X96386Y41008D01*
X96351Y41014D01*
X96270Y41028D01*
X96181Y41047D01*
X96093Y41075D01*
X96007Y41114D01*
X96004Y41116D01*
X95996Y41119D01*
X95985Y41125D01*
X95971Y41136D01*
X95952Y41147D01*
X95929Y41161D01*
X95880Y41197D01*
X95824Y41244D01*
X95769Y41299D01*
X95713Y41363D01*
X95666Y41438D01*
X95663Y41440D01*
X95661Y41449D01*
X95655Y41460D01*
X95647Y41474D01*
X95639Y41496D01*
X95630Y41518D01*
X95619Y41546D01*
X95608Y41576D01*
X95597Y41609D01*
X95586Y41645D01*
X95569Y41723D01*
X95556Y41812D01*
X95550Y41903D01*
Y41906D01*
Y41917D01*
Y41931D01*
X95553Y41950D01*
X95556Y41975D01*
X95558Y42006D01*
X95561Y42036D01*
X95569Y42072D01*
X95586Y42147D01*
X95611Y42230D01*
X95627Y42271D01*
X95647Y42310D01*
X95672Y42349D01*
X95697Y42388D01*
X95700Y42390D01*
X95702Y42396D01*
X95711Y42407D01*
X95724Y42421D01*
X95738Y42435D01*
X95758Y42454D01*
X95780Y42474D01*
X95802Y42496D01*
X95830Y42518D01*
X95863Y42540D01*
X95896Y42565D01*
X95932Y42587D01*
X95974Y42607D01*
X96015Y42629D01*
X96060Y42645D01*
X96109Y42662D01*
X96168Y42413D01*
X96165D01*
X96159Y42410D01*
X96148Y42404D01*
X96134Y42399D01*
X96118Y42393D01*
X96096Y42385D01*
X96051Y42363D01*
X96001Y42335D01*
X95952Y42302D01*
X95904Y42260D01*
X95863Y42216D01*
X95857Y42211D01*
X95846Y42194D01*
X95833Y42166D01*
X95813Y42130D01*
X95797Y42083D01*
X95780Y42030D01*
X95769Y41967D01*
X95766Y41897D01*
Y41895D01*
Y41886D01*
Y41875D01*
X95769Y41862D01*
Y41842D01*
X95771Y41820D01*
X95780Y41767D01*
X95791Y41709D01*
X95810Y41648D01*
X95838Y41585D01*
X95874Y41526D01*
Y41524D01*
X95880Y41521D01*
X95893Y41501D01*
X95916Y41476D01*
X95949Y41446D01*
X95990Y41410D01*
X96037Y41377D01*
X96096Y41346D01*
X96159Y41319D01*
X96162D01*
X96168Y41316D01*
X96176Y41313D01*
X96190Y41310D01*
X96206Y41305D01*
X96226Y41299D01*
X96273Y41291D01*
X96328Y41280D01*
X96389Y41269D01*
X96456Y41263D01*
X96528Y41260D01*
X96569D01*
X96589Y41263D01*
X96614D01*
X96641Y41266D01*
X96672Y41269D01*
X96738Y41277D01*
X96810Y41291D01*
X96882Y41308D01*
X96954Y41330D01*
X96957D01*
X96963Y41332D01*
X96971Y41338D01*
X96985Y41344D01*
X97018Y41360D01*
X97057Y41385D01*
X97101Y41416D01*
X97148Y41454D01*
X97190Y41499D01*
X97228Y41551D01*
Y41554D01*
X97231Y41559D01*
X97237Y41568D01*
X97242Y41579D01*
X97248Y41593D01*
X97256Y41609D01*
X97273Y41648D01*
X97290Y41698D01*
X97303Y41753D01*
X97314Y41814D01*
X97317Y41878D01*
Y41881D01*
Y41886D01*
Y41897D01*
X97314Y41914D01*
Y41934D01*
X97312Y41953D01*
X97301Y42003D01*
X97287Y42061D01*
X97264Y42119D01*
X97234Y42180D01*
X97218Y42211D01*
X97195Y42238D01*
X97193Y42241D01*
X97190Y42244D01*
X97181Y42252D01*
X97173Y42263D01*
X97159Y42274D01*
X97143Y42288D01*
X97126Y42305D01*
X97104Y42318D01*
X97079Y42335D01*
X97051Y42355D01*
X97024Y42371D01*
X96990Y42388D01*
X96954Y42402D01*
X96916Y42415D01*
X96874Y42429D01*
X96830Y42440D01*
X96893Y42695D01*
X96896D01*
X96907Y42693D01*
D02*
G37*
G36*
X32116Y42947D02*
X32141Y42944D01*
X32172Y42942D01*
X32202Y42939D01*
X32238Y42931D01*
X32313Y42914D01*
X32396Y42889D01*
X32438Y42873D01*
X32476Y42853D01*
X32515Y42828D01*
X32554Y42803D01*
X32557Y42801D01*
X32562Y42798D01*
X32573Y42789D01*
X32587Y42776D01*
X32601Y42762D01*
X32620Y42742D01*
X32640Y42720D01*
X32662Y42698D01*
X32684Y42670D01*
X32706Y42637D01*
X32731Y42604D01*
X32753Y42568D01*
X32773Y42526D01*
X32795Y42485D01*
X32811Y42440D01*
X32828Y42390D01*
X32579Y42332D01*
Y42335D01*
X32576Y42341D01*
X32570Y42352D01*
X32565Y42366D01*
X32559Y42382D01*
X32551Y42404D01*
X32529Y42449D01*
X32501Y42499D01*
X32468Y42548D01*
X32427Y42595D01*
X32382Y42637D01*
X32377Y42643D01*
X32360Y42654D01*
X32332Y42667D01*
X32296Y42687D01*
X32249Y42704D01*
X32197Y42720D01*
X32133Y42731D01*
X32064Y42734D01*
X32041D01*
X32028Y42731D01*
X32008D01*
X31986Y42728D01*
X31933Y42720D01*
X31875Y42709D01*
X31814Y42690D01*
X31751Y42662D01*
X31692Y42626D01*
X31690D01*
X31687Y42620D01*
X31668Y42607D01*
X31643Y42584D01*
X31612Y42551D01*
X31576Y42510D01*
X31543Y42463D01*
X31512Y42404D01*
X31485Y42341D01*
Y42338D01*
X31482Y42332D01*
X31479Y42324D01*
X31476Y42310D01*
X31471Y42294D01*
X31465Y42274D01*
X31457Y42227D01*
X31446Y42172D01*
X31435Y42111D01*
X31429Y42044D01*
X31427Y41972D01*
Y41969D01*
Y41961D01*
Y41947D01*
Y41931D01*
X31429Y41911D01*
Y41886D01*
X31432Y41859D01*
X31435Y41828D01*
X31443Y41762D01*
X31457Y41690D01*
X31474Y41618D01*
X31496Y41546D01*
Y41543D01*
X31499Y41537D01*
X31504Y41529D01*
X31510Y41515D01*
X31526Y41482D01*
X31551Y41443D01*
X31582Y41399D01*
X31620Y41352D01*
X31665Y41310D01*
X31717Y41271D01*
X31720D01*
X31726Y41269D01*
X31734Y41263D01*
X31745Y41258D01*
X31759Y41252D01*
X31776Y41244D01*
X31814Y41227D01*
X31864Y41210D01*
X31920Y41197D01*
X31980Y41186D01*
X32044Y41183D01*
X32064D01*
X32080Y41186D01*
X32100D01*
X32119Y41188D01*
X32169Y41199D01*
X32227Y41213D01*
X32285Y41235D01*
X32346Y41266D01*
X32377Y41282D01*
X32404Y41305D01*
X32407Y41308D01*
X32410Y41310D01*
X32418Y41319D01*
X32429Y41327D01*
X32440Y41341D01*
X32454Y41357D01*
X32471Y41374D01*
X32485Y41396D01*
X32501Y41421D01*
X32521Y41449D01*
X32537Y41476D01*
X32554Y41510D01*
X32568Y41546D01*
X32582Y41585D01*
X32596Y41626D01*
X32607Y41670D01*
X32861Y41607D01*
Y41604D01*
X32859Y41593D01*
X32853Y41576D01*
X32845Y41554D01*
X32836Y41529D01*
X32825Y41499D01*
X32811Y41465D01*
X32795Y41429D01*
X32756Y41352D01*
X32706Y41274D01*
X32676Y41235D01*
X32645Y41197D01*
X32612Y41163D01*
X32573Y41130D01*
X32570Y41127D01*
X32565Y41122D01*
X32551Y41116D01*
X32537Y41105D01*
X32515Y41091D01*
X32493Y41078D01*
X32462Y41064D01*
X32432Y41050D01*
X32396Y41033D01*
X32357Y41019D01*
X32316Y41006D01*
X32271Y40992D01*
X32224Y40981D01*
X32174Y40975D01*
X32122Y40969D01*
X32066Y40967D01*
X32036D01*
X32014Y40969D01*
X31989D01*
X31958Y40972D01*
X31925Y40978D01*
X31886Y40983D01*
X31806Y40997D01*
X31723Y41019D01*
X31640Y41050D01*
X31601Y41069D01*
X31562Y41091D01*
X31560Y41094D01*
X31554Y41097D01*
X31543Y41105D01*
X31532Y41116D01*
X31515Y41127D01*
X31496Y41144D01*
X31474Y41163D01*
X31451Y41186D01*
X31429Y41210D01*
X31404Y41235D01*
X31354Y41299D01*
X31307Y41374D01*
X31266Y41457D01*
Y41460D01*
X31260Y41468D01*
X31258Y41482D01*
X31249Y41499D01*
X31244Y41521D01*
X31235Y41548D01*
X31224Y41579D01*
X31216Y41612D01*
X31208Y41648D01*
X31197Y41690D01*
X31183Y41776D01*
X31172Y41873D01*
X31166Y41972D01*
Y41975D01*
Y41986D01*
Y42003D01*
X31169Y42022D01*
Y42050D01*
X31172Y42077D01*
X31174Y42114D01*
X31180Y42149D01*
X31194Y42230D01*
X31213Y42318D01*
X31241Y42407D01*
X31280Y42493D01*
X31282Y42496D01*
X31285Y42504D01*
X31291Y42515D01*
X31302Y42529D01*
X31313Y42548D01*
X31327Y42571D01*
X31363Y42620D01*
X31410Y42676D01*
X31465Y42731D01*
X31529Y42787D01*
X31604Y42834D01*
X31607Y42836D01*
X31615Y42839D01*
X31626Y42845D01*
X31640Y42853D01*
X31662Y42861D01*
X31684Y42870D01*
X31712Y42881D01*
X31742Y42892D01*
X31776Y42903D01*
X31811Y42914D01*
X31889Y42931D01*
X31978Y42944D01*
X32069Y42950D01*
X32097D01*
X32116Y42947D01*
D02*
G37*
G36*
X97500Y42997D02*
X95583D01*
Y43252D01*
X97273D01*
Y44197D01*
X97500D01*
Y42997D01*
D02*
G37*
G36*
X98032Y46036D02*
X97863D01*
Y47595D01*
X98032D01*
Y46036D01*
D02*
G37*
G36*
X97500Y45737D02*
X96533Y45055D01*
X96835Y44742D01*
X97500D01*
Y44487D01*
X95583D01*
Y44742D01*
X96536D01*
X95583Y45690D01*
Y46036D01*
X96362Y45233D01*
X97500Y46072D01*
Y45737D01*
D02*
G37*
G36*
X128397Y26000D02*
X127500D01*
Y26897D01*
X128397D01*
Y26000D01*
D02*
G37*
G36*
X125076Y72386D02*
X125112Y72380D01*
X125154Y72372D01*
X125198Y72361D01*
X125245Y72347D01*
X125289Y72325D01*
X125292D01*
X125295Y72322D01*
X125309Y72314D01*
X125331Y72300D01*
X125359Y72281D01*
X125389Y72253D01*
X125423Y72222D01*
X125453Y72186D01*
X125483Y72145D01*
X125486Y72139D01*
X125497Y72125D01*
X125508Y72101D01*
X125528Y72065D01*
X125544Y72023D01*
X125566Y71976D01*
X125586Y71920D01*
X125602Y71860D01*
Y71857D01*
X125605Y71851D01*
X125608Y71843D01*
X125611Y71829D01*
X125614Y71812D01*
X125616Y71793D01*
X125622Y71768D01*
X125625Y71740D01*
X125630Y71710D01*
X125633Y71677D01*
X125636Y71638D01*
X125641Y71599D01*
X125644Y71555D01*
Y71510D01*
X125647Y71461D01*
Y71408D01*
Y71405D01*
Y71394D01*
Y71375D01*
Y71353D01*
X125644Y71322D01*
Y71289D01*
X125641Y71253D01*
X125638Y71214D01*
X125630Y71126D01*
X125616Y71034D01*
X125600Y70945D01*
X125589Y70904D01*
X125575Y70862D01*
Y70859D01*
X125572Y70854D01*
X125566Y70843D01*
X125561Y70829D01*
X125555Y70810D01*
X125544Y70790D01*
X125522Y70743D01*
X125495Y70693D01*
X125459Y70638D01*
X125417Y70588D01*
X125367Y70541D01*
X125364D01*
X125362Y70535D01*
X125353Y70530D01*
X125342Y70524D01*
X125328Y70516D01*
X125314Y70505D01*
X125273Y70486D01*
X125223Y70466D01*
X125165Y70447D01*
X125096Y70436D01*
X125021Y70430D01*
X124993D01*
X124974Y70433D01*
X124952Y70436D01*
X124924Y70441D01*
X124893Y70447D01*
X124860Y70455D01*
X124827Y70466D01*
X124791Y70477D01*
X124755Y70494D01*
X124719Y70513D01*
X124683Y70535D01*
X124647Y70563D01*
X124614Y70594D01*
X124583Y70627D01*
X124580Y70630D01*
X124575Y70638D01*
X124566Y70652D01*
X124553Y70674D01*
X124539Y70699D01*
X124525Y70732D01*
X124506Y70771D01*
X124489Y70815D01*
X124472Y70865D01*
X124456Y70923D01*
X124439Y70987D01*
X124425Y71059D01*
X124411Y71136D01*
X124403Y71220D01*
X124398Y71311D01*
X124395Y71408D01*
Y71411D01*
Y71422D01*
Y71441D01*
Y71463D01*
X124398Y71494D01*
Y71527D01*
X124400Y71563D01*
X124403Y71605D01*
X124411Y71690D01*
X124425Y71782D01*
X124442Y71873D01*
X124453Y71915D01*
X124464Y71956D01*
Y71959D01*
X124467Y71965D01*
X124472Y71976D01*
X124478Y71990D01*
X124483Y72009D01*
X124495Y72028D01*
X124517Y72076D01*
X124544Y72125D01*
X124580Y72178D01*
X124622Y72231D01*
X124672Y72275D01*
X124675D01*
X124677Y72281D01*
X124686Y72286D01*
X124697Y72292D01*
X124711Y72303D01*
X124727Y72311D01*
X124769Y72333D01*
X124819Y72353D01*
X124877Y72372D01*
X124946Y72383D01*
X125021Y72389D01*
X125046D01*
X125076Y72386D01*
D02*
G37*
G36*
X127935Y75411D02*
X127957D01*
X128010Y75405D01*
X128068Y75397D01*
X128129Y75383D01*
X128195Y75366D01*
X128259Y75344D01*
X128262D01*
X128267Y75341D01*
X128276Y75339D01*
X128287Y75333D01*
X128317Y75317D01*
X128356Y75297D01*
X128397Y75270D01*
X128442Y75236D01*
X128483Y75200D01*
X128522Y75156D01*
X128528Y75150D01*
X128539Y75134D01*
X128555Y75109D01*
X128577Y75073D01*
X128600Y75029D01*
X128625Y74973D01*
X128649Y74912D01*
X128669Y74843D01*
X128439Y74782D01*
Y74785D01*
X128436Y74787D01*
X128433Y74796D01*
X128431Y74807D01*
X128422Y74832D01*
X128411Y74865D01*
X128395Y74904D01*
X128375Y74940D01*
X128356Y74979D01*
X128331Y75012D01*
X128328Y75015D01*
X128320Y75026D01*
X128303Y75039D01*
X128284Y75059D01*
X128259Y75081D01*
X128226Y75103D01*
X128190Y75125D01*
X128148Y75145D01*
X128143Y75148D01*
X128129Y75153D01*
X128104Y75161D01*
X128071Y75173D01*
X128032Y75181D01*
X127988Y75189D01*
X127938Y75195D01*
X127885Y75197D01*
X127855D01*
X127841Y75195D01*
X127824D01*
X127782Y75192D01*
X127735Y75184D01*
X127683Y75175D01*
X127633Y75161D01*
X127583Y75142D01*
X127577Y75139D01*
X127561Y75134D01*
X127539Y75120D01*
X127511Y75106D01*
X127478Y75084D01*
X127442Y75062D01*
X127409Y75034D01*
X127378Y75003D01*
X127375Y75001D01*
X127364Y74990D01*
X127350Y74970D01*
X127334Y74948D01*
X127314Y74920D01*
X127295Y74887D01*
X127276Y74851D01*
X127256Y74812D01*
Y74810D01*
X127253Y74804D01*
X127251Y74796D01*
X127245Y74782D01*
X127240Y74765D01*
X127234Y74746D01*
X127226Y74724D01*
X127220Y74699D01*
X127206Y74641D01*
X127195Y74574D01*
X127187Y74505D01*
X127184Y74427D01*
Y74425D01*
Y74416D01*
Y74402D01*
X127187Y74386D01*
Y74364D01*
X127190Y74336D01*
X127192Y74308D01*
X127195Y74278D01*
X127206Y74209D01*
X127220Y74137D01*
X127242Y74064D01*
X127270Y73995D01*
Y73993D01*
X127276Y73987D01*
X127278Y73979D01*
X127287Y73968D01*
X127306Y73937D01*
X127337Y73898D01*
X127373Y73857D01*
X127417Y73815D01*
X127470Y73776D01*
X127528Y73740D01*
X127530D01*
X127536Y73738D01*
X127544Y73732D01*
X127558Y73727D01*
X127572Y73721D01*
X127591Y73716D01*
X127636Y73699D01*
X127691Y73685D01*
X127752Y73671D01*
X127819Y73660D01*
X127888Y73657D01*
X127916D01*
X127932Y73660D01*
X127949D01*
X127990Y73666D01*
X128040Y73671D01*
X128093Y73682D01*
X128151Y73699D01*
X128209Y73718D01*
X128212D01*
X128217Y73721D01*
X128223Y73724D01*
X128234Y73729D01*
X128264Y73743D01*
X128298Y73760D01*
X128337Y73779D01*
X128378Y73801D01*
X128417Y73826D01*
X128450Y73854D01*
Y74214D01*
X127885D01*
Y74441D01*
X128699D01*
Y73729D01*
X128697Y73727D01*
X128691Y73724D01*
X128680Y73716D01*
X128666Y73704D01*
X128649Y73693D01*
X128630Y73680D01*
X128605Y73663D01*
X128580Y73646D01*
X128522Y73610D01*
X128456Y73571D01*
X128386Y73535D01*
X128312Y73505D01*
X128309D01*
X128303Y73502D01*
X128292Y73499D01*
X128278Y73494D01*
X128259Y73488D01*
X128237Y73480D01*
X128212Y73475D01*
X128187Y73469D01*
X128126Y73455D01*
X128057Y73441D01*
X127982Y73433D01*
X127904Y73430D01*
X127877D01*
X127857Y73433D01*
X127832D01*
X127802Y73436D01*
X127769Y73441D01*
X127733Y73444D01*
X127652Y73461D01*
X127566Y73480D01*
X127478Y73510D01*
X127434Y73527D01*
X127389Y73549D01*
X127386Y73552D01*
X127378Y73555D01*
X127367Y73563D01*
X127350Y73571D01*
X127331Y73585D01*
X127312Y73599D01*
X127259Y73638D01*
X127204Y73688D01*
X127145Y73749D01*
X127090Y73818D01*
X127040Y73898D01*
Y73901D01*
X127035Y73909D01*
X127029Y73921D01*
X127021Y73940D01*
X127012Y73959D01*
X127004Y73987D01*
X126993Y74015D01*
X126982Y74048D01*
X126971Y74084D01*
X126960Y74125D01*
X126952Y74167D01*
X126943Y74211D01*
X126929Y74308D01*
X126924Y74411D01*
Y74414D01*
Y74425D01*
Y74439D01*
X126927Y74458D01*
Y74483D01*
X126929Y74513D01*
X126935Y74544D01*
X126938Y74580D01*
X126946Y74619D01*
X126952Y74660D01*
X126974Y74749D01*
X127001Y74840D01*
X127040Y74932D01*
X127043Y74934D01*
X127046Y74943D01*
X127051Y74954D01*
X127062Y74970D01*
X127073Y74993D01*
X127087Y75015D01*
X127126Y75067D01*
X127173Y75128D01*
X127231Y75186D01*
X127298Y75244D01*
X127337Y75270D01*
X127375Y75294D01*
X127378Y75297D01*
X127386Y75300D01*
X127398Y75305D01*
X127414Y75314D01*
X127436Y75322D01*
X127461Y75333D01*
X127489Y75344D01*
X127522Y75355D01*
X127558Y75366D01*
X127597Y75375D01*
X127638Y75386D01*
X127683Y75394D01*
X127780Y75408D01*
X127830Y75414D01*
X127918D01*
X127935Y75411D01*
D02*
G37*
G36*
X129677Y74040D02*
X128949D01*
Y74275D01*
X129677D01*
Y74040D01*
D02*
G37*
G36*
X129547Y72386D02*
X129583Y72380D01*
X129624Y72372D01*
X129669Y72361D01*
X129716Y72347D01*
X129760Y72325D01*
X129763D01*
X129766Y72322D01*
X129780Y72314D01*
X129802Y72300D01*
X129830Y72281D01*
X129860Y72253D01*
X129893Y72222D01*
X129924Y72186D01*
X129954Y72145D01*
X129957Y72139D01*
X129968Y72125D01*
X129979Y72101D01*
X129999Y72065D01*
X130015Y72023D01*
X130037Y71976D01*
X130057Y71920D01*
X130073Y71860D01*
Y71857D01*
X130076Y71851D01*
X130079Y71843D01*
X130082Y71829D01*
X130084Y71812D01*
X130087Y71793D01*
X130093Y71768D01*
X130096Y71740D01*
X130101Y71710D01*
X130104Y71677D01*
X130106Y71638D01*
X130112Y71599D01*
X130115Y71555D01*
Y71510D01*
X130118Y71461D01*
Y71408D01*
Y71405D01*
Y71394D01*
Y71375D01*
Y71353D01*
X130115Y71322D01*
Y71289D01*
X130112Y71253D01*
X130109Y71214D01*
X130101Y71126D01*
X130087Y71034D01*
X130070Y70945D01*
X130059Y70904D01*
X130046Y70862D01*
Y70859D01*
X130043Y70854D01*
X130037Y70843D01*
X130032Y70829D01*
X130026Y70810D01*
X130015Y70790D01*
X129993Y70743D01*
X129965Y70693D01*
X129929Y70638D01*
X129888Y70588D01*
X129838Y70541D01*
X129835D01*
X129832Y70535D01*
X129824Y70530D01*
X129813Y70524D01*
X129799Y70516D01*
X129785Y70505D01*
X129744Y70486D01*
X129694Y70466D01*
X129636Y70447D01*
X129566Y70436D01*
X129492Y70430D01*
X129464D01*
X129445Y70433D01*
X129422Y70436D01*
X129395Y70441D01*
X129364Y70447D01*
X129331Y70455D01*
X129298Y70466D01*
X129262Y70477D01*
X129226Y70494D01*
X129190Y70513D01*
X129154Y70535D01*
X129118Y70563D01*
X129084Y70594D01*
X129054Y70627D01*
X129051Y70630D01*
X129046Y70638D01*
X129037Y70652D01*
X129024Y70674D01*
X129010Y70699D01*
X128996Y70732D01*
X128976Y70771D01*
X128960Y70815D01*
X128943Y70865D01*
X128927Y70923D01*
X128910Y70987D01*
X128896Y71059D01*
X128882Y71136D01*
X128874Y71220D01*
X128868Y71311D01*
X128866Y71408D01*
Y71411D01*
Y71422D01*
Y71441D01*
Y71463D01*
X128868Y71494D01*
Y71527D01*
X128871Y71563D01*
X128874Y71605D01*
X128882Y71690D01*
X128896Y71782D01*
X128913Y71873D01*
X128924Y71915D01*
X128935Y71956D01*
Y71959D01*
X128938Y71965D01*
X128943Y71976D01*
X128949Y71990D01*
X128954Y72009D01*
X128965Y72028D01*
X128987Y72076D01*
X129015Y72125D01*
X129051Y72178D01*
X129093Y72231D01*
X129143Y72275D01*
X129145D01*
X129148Y72281D01*
X129156Y72286D01*
X129167Y72292D01*
X129181Y72303D01*
X129198Y72311D01*
X129239Y72333D01*
X129289Y72353D01*
X129348Y72372D01*
X129417Y72383D01*
X129492Y72389D01*
X129516D01*
X129547Y72386D01*
D02*
G37*
G36*
X131242Y70463D02*
X131007D01*
Y71962D01*
X131004Y71959D01*
X130990Y71948D01*
X130973Y71931D01*
X130946Y71912D01*
X130915Y71887D01*
X130877Y71860D01*
X130832Y71829D01*
X130782Y71799D01*
X130780D01*
X130777Y71796D01*
X130760Y71785D01*
X130733Y71771D01*
X130699Y71754D01*
X130660Y71735D01*
X130619Y71715D01*
X130577Y71696D01*
X130536Y71679D01*
Y71907D01*
X130539D01*
X130544Y71912D01*
X130555Y71915D01*
X130569Y71923D01*
X130586Y71931D01*
X130605Y71943D01*
X130652Y71970D01*
X130708Y72001D01*
X130763Y72040D01*
X130821Y72084D01*
X130879Y72131D01*
X130882Y72134D01*
X130885Y72136D01*
X130893Y72145D01*
X130904Y72153D01*
X130929Y72181D01*
X130963Y72214D01*
X130996Y72253D01*
X131032Y72297D01*
X131062Y72342D01*
X131090Y72389D01*
X131242D01*
Y70463D01*
D02*
G37*
G36*
X128262D02*
X128026D01*
Y71962D01*
X128024Y71959D01*
X128010Y71948D01*
X127993Y71931D01*
X127965Y71912D01*
X127935Y71887D01*
X127896Y71860D01*
X127852Y71829D01*
X127802Y71799D01*
X127799D01*
X127796Y71796D01*
X127780Y71785D01*
X127752Y71771D01*
X127719Y71754D01*
X127680Y71735D01*
X127638Y71715D01*
X127597Y71696D01*
X127555Y71679D01*
Y71907D01*
X127558D01*
X127564Y71912D01*
X127575Y71915D01*
X127589Y71923D01*
X127605Y71931D01*
X127625Y71943D01*
X127672Y71970D01*
X127727Y72001D01*
X127782Y72040D01*
X127841Y72084D01*
X127899Y72131D01*
X127902Y72134D01*
X127904Y72136D01*
X127913Y72145D01*
X127924Y72153D01*
X127949Y72181D01*
X127982Y72214D01*
X128015Y72253D01*
X128051Y72297D01*
X128082Y72342D01*
X128109Y72389D01*
X128262D01*
Y70463D01*
D02*
G37*
G36*
X126771D02*
X126536D01*
Y71962D01*
X126533Y71959D01*
X126519Y71948D01*
X126503Y71931D01*
X126475Y71912D01*
X126445Y71887D01*
X126406Y71860D01*
X126362Y71829D01*
X126312Y71799D01*
X126309D01*
X126306Y71796D01*
X126289Y71785D01*
X126262Y71771D01*
X126228Y71754D01*
X126190Y71735D01*
X126148Y71715D01*
X126107Y71696D01*
X126065Y71679D01*
Y71907D01*
X126068D01*
X126073Y71912D01*
X126084Y71915D01*
X126098Y71923D01*
X126115Y71931D01*
X126134Y71943D01*
X126181Y71970D01*
X126237Y72001D01*
X126292Y72040D01*
X126350Y72084D01*
X126409Y72131D01*
X126411Y72134D01*
X126414Y72136D01*
X126422Y72145D01*
X126434Y72153D01*
X126458Y72181D01*
X126492Y72214D01*
X126525Y72253D01*
X126561Y72297D01*
X126591Y72342D01*
X126619Y72389D01*
X126771D01*
Y70463D01*
D02*
G37*
G36*
X123722D02*
X123497D01*
X122974Y71854D01*
X123223D01*
X123522Y71020D01*
Y71017D01*
X123525Y71015D01*
X123528Y71006D01*
X123530Y70998D01*
X123539Y70970D01*
X123550Y70934D01*
X123564Y70893D01*
X123580Y70846D01*
X123594Y70793D01*
X123611Y70740D01*
X123614Y70746D01*
X123616Y70760D01*
X123625Y70782D01*
X123633Y70815D01*
X123647Y70851D01*
X123661Y70898D01*
X123680Y70948D01*
X123699Y71004D01*
X124007Y71854D01*
X124251D01*
X123722Y70463D01*
D02*
G37*
G36*
X120974Y74728D02*
X119990Y73504D01*
Y73501D01*
X119985Y73498D01*
X119971Y73482D01*
X119952Y73457D01*
X119927Y73426D01*
X119896Y73390D01*
X119863Y73351D01*
X119827Y73312D01*
X119791Y73274D01*
X120863D01*
Y73047D01*
X119486D01*
Y73274D01*
X120569Y74600D01*
X120683Y74736D01*
X119456D01*
Y74963D01*
X120974D01*
Y74728D01*
D02*
G37*
G36*
X114734Y70972D02*
X115388Y70047D01*
X115086D01*
X114737Y70540D01*
Y70542D01*
X114731Y70545D01*
X114726Y70553D01*
X114718Y70565D01*
X114701Y70592D01*
X114676Y70626D01*
X114651Y70664D01*
X114626Y70703D01*
X114604Y70739D01*
X114585Y70772D01*
X114582Y70767D01*
X114574Y70756D01*
X114560Y70733D01*
X114540Y70706D01*
X114518Y70675D01*
X114490Y70637D01*
X114463Y70598D01*
X114429Y70556D01*
X114047Y70047D01*
X113770D01*
X114435Y70958D01*
X113718Y71963D01*
X114031D01*
X114515Y71282D01*
X114518Y71279D01*
X114524Y71271D01*
X114529Y71260D01*
X114540Y71246D01*
X114565Y71207D01*
X114593Y71166D01*
X114596Y71168D01*
X114604Y71179D01*
X114615Y71196D01*
X114629Y71218D01*
X114659Y71263D01*
X114673Y71282D01*
X114684Y71299D01*
X115169Y71963D01*
X115474D01*
X114734Y70972D01*
D02*
G37*
G36*
X89397Y28500D02*
X88500D01*
Y29397D01*
X89397D01*
Y28500D01*
D02*
G37*
G36*
X120965Y78275D02*
Y77463D01*
X120711D01*
Y78275D01*
X119971Y79380D01*
X120279D01*
X120655Y78799D01*
Y78796D01*
X120661Y78790D01*
X120666Y78782D01*
X120672Y78771D01*
X120683Y78757D01*
X120694Y78740D01*
X120719Y78699D01*
X120749Y78649D01*
X120783Y78594D01*
X120819Y78535D01*
X120852Y78474D01*
Y78477D01*
X120855Y78483D01*
X120860Y78491D01*
X120869Y78502D01*
X120877Y78516D01*
X120888Y78533D01*
X120913Y78574D01*
X120943Y78624D01*
X120979Y78682D01*
X121021Y78746D01*
X121065Y78815D01*
X121434Y79380D01*
X121730D01*
X120965Y78275D01*
D02*
G37*
G36*
X132530Y73463D02*
X132287D01*
Y75067D01*
X131727Y73463D01*
X131500D01*
X130946Y75095D01*
Y73463D01*
X130702D01*
Y75380D01*
X131082D01*
X131536Y74020D01*
Y74017D01*
X131539Y74012D01*
X131541Y74004D01*
X131547Y73990D01*
X131558Y73957D01*
X131572Y73915D01*
X131586Y73868D01*
X131602Y73821D01*
X131616Y73776D01*
X131627Y73738D01*
X131630Y73743D01*
X131633Y73757D01*
X131641Y73782D01*
X131652Y73815D01*
X131666Y73860D01*
X131685Y73912D01*
X131705Y73973D01*
X131730Y74045D01*
X132190Y75380D01*
X132530D01*
Y73463D01*
D02*
G37*
G36*
X132563Y72386D02*
X132583D01*
X132605Y72383D01*
X132658Y72372D01*
X132716Y72358D01*
X132777Y72336D01*
X132838Y72303D01*
X132868Y72283D01*
X132896Y72261D01*
X132899Y72258D01*
X132902Y72256D01*
X132910Y72247D01*
X132918Y72239D01*
X132932Y72225D01*
X132943Y72208D01*
X132974Y72170D01*
X133004Y72120D01*
X133032Y72059D01*
X133057Y71990D01*
X133073Y71912D01*
X132838Y71893D01*
Y71895D01*
X132835Y71898D01*
X132832Y71915D01*
X132824Y71940D01*
X132813Y71970D01*
X132802Y72004D01*
X132785Y72037D01*
X132766Y72067D01*
X132746Y72092D01*
X132741Y72098D01*
X132730Y72109D01*
X132710Y72125D01*
X132683Y72145D01*
X132647Y72161D01*
X132608Y72178D01*
X132561Y72189D01*
X132511Y72195D01*
X132492D01*
X132469Y72192D01*
X132444Y72186D01*
X132411Y72178D01*
X132378Y72167D01*
X132345Y72153D01*
X132311Y72131D01*
X132306Y72128D01*
X132292Y72117D01*
X132273Y72098D01*
X132248Y72070D01*
X132220Y72037D01*
X132190Y71998D01*
X132162Y71948D01*
X132134Y71893D01*
Y71890D01*
X132131Y71884D01*
X132129Y71876D01*
X132123Y71865D01*
X132120Y71848D01*
X132115Y71829D01*
X132109Y71807D01*
X132104Y71779D01*
X132095Y71749D01*
X132090Y71715D01*
X132084Y71679D01*
X132081Y71641D01*
X132076Y71596D01*
X132073Y71552D01*
X132071Y71502D01*
Y71452D01*
X132073Y71455D01*
X132084Y71472D01*
X132104Y71494D01*
X132129Y71522D01*
X132156Y71555D01*
X132192Y71585D01*
X132231Y71616D01*
X132275Y71643D01*
X132278D01*
X132281Y71646D01*
X132298Y71654D01*
X132323Y71663D01*
X132356Y71677D01*
X132395Y71688D01*
X132439Y71696D01*
X132486Y71704D01*
X132536Y71707D01*
X132558D01*
X132575Y71704D01*
X132597Y71702D01*
X132619Y71699D01*
X132647Y71693D01*
X132674Y71685D01*
X132738Y71666D01*
X132771Y71652D01*
X132805Y71632D01*
X132838Y71613D01*
X132874Y71591D01*
X132907Y71563D01*
X132938Y71533D01*
X132940Y71530D01*
X132946Y71524D01*
X132954Y71516D01*
X132962Y71502D01*
X132976Y71483D01*
X132990Y71463D01*
X133004Y71438D01*
X133021Y71411D01*
X133037Y71380D01*
X133051Y71347D01*
X133065Y71308D01*
X133079Y71270D01*
X133087Y71228D01*
X133095Y71181D01*
X133101Y71134D01*
X133104Y71084D01*
Y71081D01*
Y71076D01*
Y71067D01*
Y71053D01*
X133101Y71037D01*
Y71020D01*
X133093Y70976D01*
X133084Y70923D01*
X133070Y70868D01*
X133051Y70807D01*
X133023Y70749D01*
Y70746D01*
X133021Y70743D01*
X133015Y70735D01*
X133010Y70724D01*
X132993Y70696D01*
X132968Y70660D01*
X132938Y70621D01*
X132902Y70582D01*
X132857Y70544D01*
X132810Y70511D01*
X132807D01*
X132805Y70508D01*
X132796Y70502D01*
X132785Y70499D01*
X132757Y70486D01*
X132721Y70472D01*
X132674Y70455D01*
X132622Y70444D01*
X132563Y70433D01*
X132500Y70430D01*
X132486D01*
X132472Y70433D01*
X132450D01*
X132425Y70436D01*
X132397Y70441D01*
X132364Y70450D01*
X132331Y70458D01*
X132292Y70469D01*
X132253Y70483D01*
X132214Y70499D01*
X132173Y70522D01*
X132134Y70547D01*
X132095Y70574D01*
X132057Y70608D01*
X132021Y70646D01*
X132018Y70649D01*
X132012Y70657D01*
X132004Y70668D01*
X131993Y70688D01*
X131976Y70713D01*
X131962Y70740D01*
X131946Y70776D01*
X131929Y70815D01*
X131910Y70862D01*
X131893Y70915D01*
X131879Y70973D01*
X131866Y71037D01*
X131852Y71109D01*
X131843Y71186D01*
X131838Y71270D01*
X131835Y71358D01*
Y71361D01*
Y71364D01*
Y71372D01*
Y71383D01*
X131838Y71411D01*
Y71450D01*
X131841Y71494D01*
X131846Y71547D01*
X131852Y71605D01*
X131860Y71668D01*
X131871Y71732D01*
X131885Y71801D01*
X131902Y71868D01*
X131921Y71934D01*
X131946Y71998D01*
X131974Y72059D01*
X132004Y72117D01*
X132040Y72167D01*
X132043Y72170D01*
X132048Y72175D01*
X132059Y72186D01*
X132073Y72203D01*
X132090Y72220D01*
X132112Y72236D01*
X132140Y72258D01*
X132167Y72278D01*
X132201Y72297D01*
X132237Y72319D01*
X132278Y72336D01*
X132320Y72355D01*
X132367Y72369D01*
X132417Y72380D01*
X132469Y72386D01*
X132525Y72389D01*
X132547D01*
X132563Y72386D01*
D02*
G37*
%LPC*%
G36*
X8709Y4190D02*
X8255D01*
Y3613D01*
X8726D01*
X8762Y3616D01*
X8800Y3619D01*
X8839Y3622D01*
X8878Y3627D01*
X8909Y3633D01*
X8914Y3636D01*
X8925Y3638D01*
X8942Y3647D01*
X8964Y3658D01*
X8986Y3669D01*
X9011Y3686D01*
X9036Y3708D01*
X9055Y3730D01*
X9058Y3733D01*
X9064Y3741D01*
X9072Y3758D01*
X9080Y3777D01*
X9089Y3799D01*
X9097Y3827D01*
X9103Y3860D01*
X9105Y3896D01*
Y3902D01*
Y3913D01*
X9103Y3929D01*
X9100Y3951D01*
X9094Y3979D01*
X9086Y4007D01*
X9075Y4035D01*
X9058Y4062D01*
X9055Y4065D01*
X9050Y4073D01*
X9039Y4087D01*
X9025Y4101D01*
X9005Y4118D01*
X8983Y4134D01*
X8956Y4151D01*
X8925Y4162D01*
X8922D01*
X8909Y4168D01*
X8889Y4170D01*
X8859Y4176D01*
X8817Y4181D01*
X8770Y4184D01*
X8709Y4190D01*
D02*
G37*
G36*
X127456Y77350D02*
X126952D01*
Y76691D01*
X127497D01*
X127555Y76693D01*
X127580Y76696D01*
X127602Y76699D01*
X127605D01*
X127616Y76702D01*
X127633Y76704D01*
X127652Y76710D01*
X127699Y76727D01*
X127746Y76749D01*
X127749Y76752D01*
X127758Y76757D01*
X127769Y76765D01*
X127782Y76776D01*
X127796Y76793D01*
X127816Y76810D01*
X127830Y76832D01*
X127846Y76857D01*
X127849Y76859D01*
X127852Y76868D01*
X127857Y76885D01*
X127866Y76904D01*
X127874Y76926D01*
X127879Y76954D01*
X127882Y76987D01*
X127885Y77020D01*
Y77026D01*
Y77037D01*
X127882Y77059D01*
X127877Y77084D01*
X127871Y77112D01*
X127860Y77142D01*
X127846Y77172D01*
X127827Y77203D01*
X127824Y77206D01*
X127816Y77217D01*
X127805Y77231D01*
X127788Y77247D01*
X127766Y77267D01*
X127738Y77286D01*
X127708Y77303D01*
X127672Y77317D01*
X127666Y77319D01*
X127655Y77322D01*
X127630Y77328D01*
X127600Y77333D01*
X127561Y77339D01*
X127514Y77344D01*
X127456Y77350D01*
D02*
G37*
G36*
X10451Y4217D02*
Y4215D01*
X10449Y4209D01*
Y4198D01*
X10443Y4187D01*
X10440Y4168D01*
X10435Y4148D01*
X10424Y4101D01*
X10410Y4046D01*
X10390Y3985D01*
X10371Y3918D01*
X10346Y3849D01*
X10138Y3289D01*
X10787D01*
X10587Y3816D01*
Y3819D01*
X10584Y3827D01*
X10579Y3841D01*
X10573Y3857D01*
X10565Y3877D01*
X10557Y3902D01*
X10548Y3929D01*
X10537Y3957D01*
X10515Y4021D01*
X10493Y4087D01*
X10471Y4154D01*
X10451Y4217D01*
D02*
G37*
G36*
X96711Y48764D02*
X96184Y48565D01*
X96181D01*
X96173Y48562D01*
X96159Y48557D01*
X96143Y48551D01*
X96123Y48543D01*
X96098Y48534D01*
X96071Y48526D01*
X96043Y48515D01*
X95979Y48493D01*
X95913Y48471D01*
X95846Y48449D01*
X95783Y48429D01*
X95785D01*
X95791Y48426D01*
X95802D01*
X95813Y48421D01*
X95833Y48418D01*
X95852Y48412D01*
X95899Y48401D01*
X95954Y48388D01*
X96015Y48368D01*
X96082Y48349D01*
X96151Y48324D01*
X96711Y48116D01*
Y48764D01*
D02*
G37*
G36*
X127406Y78153D02*
X126952D01*
Y77577D01*
X127422D01*
X127458Y77580D01*
X127497Y77583D01*
X127536Y77585D01*
X127575Y77591D01*
X127605Y77596D01*
X127611Y77599D01*
X127622Y77602D01*
X127638Y77610D01*
X127661Y77621D01*
X127683Y77632D01*
X127708Y77649D01*
X127733Y77671D01*
X127752Y77693D01*
X127755Y77696D01*
X127760Y77704D01*
X127769Y77721D01*
X127777Y77740D01*
X127785Y77763D01*
X127794Y77790D01*
X127799Y77824D01*
X127802Y77859D01*
Y77865D01*
Y77876D01*
X127799Y77893D01*
X127796Y77915D01*
X127791Y77943D01*
X127782Y77970D01*
X127771Y77998D01*
X127755Y78026D01*
X127752Y78029D01*
X127746Y78037D01*
X127735Y78051D01*
X127722Y78065D01*
X127702Y78081D01*
X127680Y78098D01*
X127652Y78114D01*
X127622Y78125D01*
X127619D01*
X127605Y78131D01*
X127586Y78134D01*
X127555Y78139D01*
X127514Y78145D01*
X127467Y78148D01*
X127406Y78153D01*
D02*
G37*
G36*
X8759Y3386D02*
X8255D01*
Y2727D01*
X8800D01*
X8859Y2730D01*
X8884Y2733D01*
X8906Y2736D01*
X8909D01*
X8920Y2738D01*
X8936Y2741D01*
X8956Y2747D01*
X9003Y2763D01*
X9050Y2785D01*
X9053Y2788D01*
X9061Y2794D01*
X9072Y2802D01*
X9086Y2813D01*
X9100Y2830D01*
X9119Y2846D01*
X9133Y2868D01*
X9150Y2893D01*
X9152Y2896D01*
X9155Y2904D01*
X9161Y2921D01*
X9169Y2940D01*
X9177Y2963D01*
X9183Y2990D01*
X9186Y3023D01*
X9188Y3057D01*
Y3062D01*
Y3073D01*
X9186Y3096D01*
X9180Y3121D01*
X9174Y3148D01*
X9163Y3179D01*
X9150Y3209D01*
X9130Y3240D01*
X9127Y3242D01*
X9119Y3253D01*
X9108Y3267D01*
X9091Y3284D01*
X9069Y3303D01*
X9042Y3323D01*
X9011Y3339D01*
X8975Y3353D01*
X8969Y3356D01*
X8958Y3359D01*
X8934Y3364D01*
X8903Y3370D01*
X8864Y3375D01*
X8817Y3381D01*
X8759Y3386D01*
D02*
G37*
G36*
X1028Y36907D02*
X1000D01*
X978Y36904D01*
X953D01*
X925Y36902D01*
X892Y36899D01*
X859Y36896D01*
X784Y36882D01*
X706Y36865D01*
X634Y36841D01*
X598Y36824D01*
X568Y36807D01*
X565D01*
X560Y36802D01*
X551Y36796D01*
X540Y36791D01*
X513Y36768D01*
X479Y36741D01*
X443Y36705D01*
X407Y36663D01*
X377Y36616D01*
X352Y36566D01*
X349Y36561D01*
X346Y36547D01*
X338Y36522D01*
X330Y36486D01*
X324Y36442D01*
X316Y36386D01*
X313Y36353D01*
Y36317D01*
X310Y36281D01*
Y36239D01*
Y35838D01*
X1773D01*
Y36245D01*
Y36248D01*
Y36253D01*
Y36264D01*
Y36276D01*
Y36292D01*
X1770Y36312D01*
X1767Y36353D01*
X1764Y36400D01*
X1759Y36450D01*
X1751Y36500D01*
X1740Y36541D01*
X1737Y36547D01*
X1734Y36561D01*
X1726Y36580D01*
X1715Y36605D01*
X1698Y36633D01*
X1681Y36661D01*
X1662Y36688D01*
X1640Y36716D01*
X1634Y36719D01*
X1623Y36730D01*
X1604Y36746D01*
X1576Y36766D01*
X1540Y36788D01*
X1499Y36813D01*
X1452Y36835D01*
X1399Y36854D01*
X1396D01*
X1391Y36857D01*
X1382Y36860D01*
X1371Y36863D01*
X1357Y36865D01*
X1338Y36871D01*
X1319Y36877D01*
X1296Y36882D01*
X1241Y36890D01*
X1177Y36899D01*
X1105Y36904D01*
X1028Y36907D01*
D02*
G37*
G36*
X82212Y93498D02*
X81608Y92639D01*
X82212D01*
Y93498D01*
D02*
G37*
G36*
X108417Y3231D02*
X108392D01*
X108373Y3229D01*
X108348Y3226D01*
X108323Y3220D01*
X108292Y3215D01*
X108259Y3209D01*
X108187Y3187D01*
X108148Y3170D01*
X108109Y3154D01*
X108068Y3131D01*
X108029Y3107D01*
X107990Y3079D01*
X107954Y3046D01*
X107951Y3043D01*
X107946Y3037D01*
X107938Y3026D01*
X107924Y3010D01*
X107910Y2990D01*
X107893Y2965D01*
X107877Y2935D01*
X107857Y2899D01*
X107841Y2860D01*
X107821Y2813D01*
X107805Y2763D01*
X107791Y2708D01*
X107777Y2647D01*
X107769Y2578D01*
X107763Y2506D01*
X107760Y2428D01*
Y2425D01*
Y2414D01*
Y2395D01*
X107763Y2370D01*
X107766Y2342D01*
X107772Y2309D01*
X107777Y2270D01*
X107782Y2231D01*
X107805Y2143D01*
X107821Y2098D01*
X107838Y2051D01*
X107860Y2007D01*
X107885Y1963D01*
X107913Y1921D01*
X107946Y1882D01*
X107949Y1880D01*
X107954Y1874D01*
X107965Y1863D01*
X107979Y1852D01*
X107999Y1835D01*
X108021Y1819D01*
X108046Y1802D01*
X108073Y1782D01*
X108107Y1763D01*
X108143Y1746D01*
X108181Y1730D01*
X108223Y1713D01*
X108267Y1702D01*
X108312Y1691D01*
X108361Y1686D01*
X108414Y1683D01*
X108428D01*
X108442Y1686D01*
X108461D01*
X108486Y1688D01*
X108514Y1694D01*
X108547Y1699D01*
X108580Y1708D01*
X108619Y1719D01*
X108655Y1733D01*
X108697Y1746D01*
X108735Y1766D01*
X108774Y1791D01*
X108813Y1816D01*
X108852Y1846D01*
X108888Y1882D01*
X108890Y1885D01*
X108896Y1891D01*
X108904Y1904D01*
X108918Y1921D01*
X108932Y1940D01*
X108946Y1965D01*
X108963Y1996D01*
X108982Y2029D01*
X108999Y2068D01*
X109015Y2112D01*
X109029Y2159D01*
X109046Y2209D01*
X109057Y2265D01*
X109065Y2325D01*
X109071Y2389D01*
X109073Y2456D01*
Y2458D01*
Y2467D01*
Y2478D01*
Y2494D01*
X109071Y2514D01*
Y2539D01*
X109068Y2564D01*
X109062Y2594D01*
X109054Y2658D01*
X109040Y2724D01*
X109021Y2796D01*
X108993Y2863D01*
Y2866D01*
X108990Y2871D01*
X108985Y2880D01*
X108979Y2891D01*
X108960Y2924D01*
X108935Y2963D01*
X108902Y3007D01*
X108860Y3051D01*
X108813Y3095D01*
X108760Y3134D01*
X108758D01*
X108755Y3140D01*
X108747Y3143D01*
X108733Y3151D01*
X108719Y3156D01*
X108702Y3165D01*
X108661Y3184D01*
X108611Y3201D01*
X108553Y3217D01*
X108486Y3229D01*
X108417Y3231D01*
D02*
G37*
G36*
X112101Y3217D02*
Y3215D01*
X112098Y3209D01*
Y3198D01*
X112093Y3187D01*
X112090Y3167D01*
X112084Y3148D01*
X112073Y3101D01*
X112059Y3046D01*
X112040Y2985D01*
X112021Y2918D01*
X111996Y2849D01*
X111788Y2290D01*
X112436D01*
X112237Y2816D01*
Y2819D01*
X112234Y2827D01*
X112228Y2841D01*
X112223Y2857D01*
X112215Y2877D01*
X112206Y2902D01*
X112198Y2929D01*
X112187Y2957D01*
X112165Y3021D01*
X112143Y3087D01*
X112120Y3154D01*
X112101Y3217D01*
D02*
G37*
G36*
X85062Y93695D02*
X85045D01*
X85034Y93692D01*
X85004Y93686D01*
X84968Y93678D01*
X84926Y93661D01*
X84882Y93637D01*
X84860Y93620D01*
X84838Y93603D01*
X84818Y93581D01*
X84799Y93556D01*
Y93553D01*
X84793Y93548D01*
X84788Y93537D01*
X84780Y93523D01*
X84771Y93501D01*
X84760Y93476D01*
X84752Y93445D01*
X84741Y93409D01*
X84730Y93368D01*
X84719Y93321D01*
X84708Y93268D01*
X84699Y93210D01*
X84691Y93143D01*
X84685Y93071D01*
X84683Y92994D01*
X84680Y92908D01*
Y92902D01*
Y92889D01*
Y92864D01*
X84683Y92830D01*
Y92794D01*
X84685Y92750D01*
X84688Y92703D01*
X84694Y92653D01*
X84708Y92545D01*
X84716Y92493D01*
X84727Y92443D01*
X84738Y92396D01*
X84755Y92351D01*
X84771Y92312D01*
X84791Y92279D01*
Y92276D01*
X84796Y92274D01*
X84810Y92254D01*
X84835Y92229D01*
X84865Y92202D01*
X84907Y92174D01*
X84954Y92149D01*
X85007Y92130D01*
X85034Y92127D01*
X85065Y92124D01*
X85081D01*
X85093Y92127D01*
X85120Y92132D01*
X85159Y92143D01*
X85201Y92163D01*
X85248Y92191D01*
X85270Y92207D01*
X85292Y92229D01*
X85314Y92251D01*
X85336Y92279D01*
Y92282D01*
X85342Y92287D01*
X85347Y92296D01*
X85353Y92310D01*
X85364Y92329D01*
X85372Y92354D01*
X85383Y92382D01*
X85395Y92415D01*
X85403Y92457D01*
X85414Y92501D01*
X85425Y92553D01*
X85433Y92609D01*
X85439Y92675D01*
X85444Y92745D01*
X85450Y92822D01*
Y92908D01*
Y92911D01*
Y92914D01*
Y92927D01*
Y92952D01*
X85447Y92986D01*
Y93022D01*
X85444Y93066D01*
X85442Y93113D01*
X85436Y93166D01*
X85422Y93271D01*
X85414Y93323D01*
X85403Y93373D01*
X85392Y93420D01*
X85375Y93465D01*
X85359Y93503D01*
X85339Y93537D01*
Y93540D01*
X85334Y93542D01*
X85328Y93551D01*
X85320Y93562D01*
X85295Y93587D01*
X85264Y93617D01*
X85223Y93645D01*
X85176Y93670D01*
X85151Y93681D01*
X85123Y93689D01*
X85093Y93692D01*
X85062Y93695D01*
D02*
G37*
G36*
X32289Y73575D02*
Y73574D01*
X32288Y73572D01*
Y73569D01*
X32287Y73564D01*
X32285Y73559D01*
X32284Y73552D01*
X32280Y73536D01*
X32275Y73517D01*
X32268Y73496D01*
X32261Y73474D01*
X32253Y73451D01*
X32184Y73263D01*
X32402D01*
X32336Y73440D01*
Y73441D01*
X32335Y73444D01*
X32333Y73448D01*
X32331Y73454D01*
X32328Y73460D01*
X32325Y73469D01*
X32319Y73487D01*
X32311Y73509D01*
X32303Y73531D01*
X32296Y73554D01*
X32289Y73575D01*
D02*
G37*
G36*
X90465Y17727D02*
X90449D01*
X90438Y17724D01*
X90407Y17722D01*
X90371Y17713D01*
X90327Y17699D01*
X90280Y17680D01*
X90235Y17652D01*
X90191Y17616D01*
X90186Y17611D01*
X90175Y17597D01*
X90155Y17572D01*
X90136Y17539D01*
X90114Y17500D01*
X90094Y17450D01*
X90078Y17392D01*
X90069Y17328D01*
X90848D01*
Y17331D01*
Y17336D01*
X90845Y17345D01*
Y17356D01*
X90839Y17389D01*
X90831Y17425D01*
X90817Y17470D01*
X90803Y17511D01*
X90781Y17553D01*
X90756Y17589D01*
Y17591D01*
X90751Y17594D01*
X90737Y17611D01*
X90712Y17633D01*
X90679Y17658D01*
X90637Y17683D01*
X90587Y17705D01*
X90529Y17722D01*
X90499Y17724D01*
X90465Y17727D01*
D02*
G37*
G36*
X100364Y57717D02*
Y57715D01*
X100362Y57709D01*
Y57698D01*
X100356Y57687D01*
X100353Y57667D01*
X100348Y57648D01*
X100337Y57601D01*
X100323Y57546D01*
X100303Y57485D01*
X100284Y57418D01*
X100259Y57349D01*
X100051Y56789D01*
X100699D01*
X100500Y57316D01*
Y57319D01*
X100497Y57327D01*
X100492Y57341D01*
X100486Y57357D01*
X100478Y57377D01*
X100470Y57402D01*
X100461Y57429D01*
X100450Y57457D01*
X100428Y57521D01*
X100406Y57587D01*
X100384Y57654D01*
X100364Y57717D01*
D02*
G37*
G36*
X110464Y3190D02*
X109915D01*
Y2506D01*
X110431D01*
X110450Y2508D01*
X110469D01*
X110492Y2511D01*
X110544Y2517D01*
X110602Y2528D01*
X110661Y2544D01*
X110713Y2567D01*
X110738Y2580D01*
X110758Y2597D01*
X110763Y2602D01*
X110774Y2613D01*
X110791Y2636D01*
X110810Y2663D01*
X110829Y2699D01*
X110846Y2744D01*
X110857Y2794D01*
X110863Y2852D01*
Y2854D01*
Y2857D01*
Y2871D01*
X110860Y2896D01*
X110854Y2924D01*
X110849Y2954D01*
X110838Y2990D01*
X110821Y3023D01*
X110802Y3057D01*
X110799Y3060D01*
X110791Y3071D01*
X110777Y3084D01*
X110760Y3104D01*
X110735Y3123D01*
X110708Y3140D01*
X110677Y3156D01*
X110641Y3170D01*
X110638D01*
X110627Y3173D01*
X110611Y3176D01*
X110589Y3181D01*
X110555Y3184D01*
X110514Y3187D01*
X110464Y3190D01*
D02*
G37*
G36*
X14148Y90703D02*
X13544D01*
Y90069D01*
X14115D01*
X14148Y90072D01*
X14187Y90075D01*
X14231Y90078D01*
X14276Y90083D01*
X14320Y90091D01*
X14359Y90102D01*
X14364Y90105D01*
X14375Y90111D01*
X14392Y90119D01*
X14414Y90130D01*
X14439Y90147D01*
X14464Y90166D01*
X14489Y90191D01*
X14508Y90219D01*
X14511Y90222D01*
X14516Y90233D01*
X14525Y90249D01*
X14536Y90271D01*
X14544Y90296D01*
X14552Y90324D01*
X14558Y90357D01*
X14561Y90390D01*
Y90393D01*
Y90396D01*
X14558Y90413D01*
X14555Y90438D01*
X14550Y90471D01*
X14536Y90504D01*
X14519Y90543D01*
X14494Y90579D01*
X14461Y90615D01*
X14456Y90618D01*
X14442Y90629D01*
X14420Y90643D01*
X14384Y90659D01*
X14342Y90676D01*
X14287Y90690D01*
X14223Y90701D01*
X14148Y90703D01*
D02*
G37*
G36*
X12303Y90690D02*
X11755D01*
Y90005D01*
X12270D01*
X12289Y90008D01*
X12309D01*
X12331Y90011D01*
X12384Y90017D01*
X12442Y90028D01*
X12500Y90044D01*
X12553Y90066D01*
X12577Y90080D01*
X12597Y90097D01*
X12603Y90102D01*
X12614Y90114D01*
X12630Y90136D01*
X12650Y90163D01*
X12669Y90199D01*
X12686Y90244D01*
X12697Y90294D01*
X12702Y90352D01*
Y90355D01*
Y90357D01*
Y90371D01*
X12699Y90396D01*
X12694Y90424D01*
X12688Y90454D01*
X12677Y90490D01*
X12661Y90523D01*
X12641Y90557D01*
X12639Y90560D01*
X12630Y90571D01*
X12616Y90584D01*
X12600Y90604D01*
X12575Y90623D01*
X12547Y90640D01*
X12517Y90657D01*
X12481Y90670D01*
X12478D01*
X12467Y90673D01*
X12450Y90676D01*
X12428Y90681D01*
X12395Y90684D01*
X12353Y90687D01*
X12303Y90690D01*
D02*
G37*
G36*
X16059Y90731D02*
X16035D01*
X16015Y90728D01*
X15990Y90726D01*
X15965Y90720D01*
X15935Y90715D01*
X15901Y90709D01*
X15830Y90687D01*
X15791Y90670D01*
X15752Y90654D01*
X15710Y90632D01*
X15672Y90607D01*
X15633Y90579D01*
X15597Y90546D01*
X15594Y90543D01*
X15588Y90537D01*
X15580Y90526D01*
X15566Y90510D01*
X15552Y90490D01*
X15536Y90465D01*
X15519Y90435D01*
X15500Y90399D01*
X15483Y90360D01*
X15464Y90313D01*
X15447Y90263D01*
X15433Y90208D01*
X15420Y90147D01*
X15411Y90078D01*
X15406Y90005D01*
X15403Y89928D01*
Y89925D01*
Y89914D01*
Y89895D01*
X15406Y89870D01*
X15408Y89842D01*
X15414Y89809D01*
X15420Y89770D01*
X15425Y89731D01*
X15447Y89643D01*
X15464Y89598D01*
X15481Y89551D01*
X15503Y89507D01*
X15528Y89463D01*
X15555Y89421D01*
X15588Y89382D01*
X15591Y89380D01*
X15597Y89374D01*
X15608Y89363D01*
X15622Y89352D01*
X15641Y89335D01*
X15663Y89319D01*
X15688Y89302D01*
X15716Y89283D01*
X15749Y89263D01*
X15785Y89246D01*
X15824Y89230D01*
X15866Y89213D01*
X15910Y89202D01*
X15954Y89191D01*
X16004Y89186D01*
X16057Y89183D01*
X16071D01*
X16084Y89186D01*
X16104D01*
X16129Y89188D01*
X16156Y89194D01*
X16190Y89199D01*
X16223Y89208D01*
X16262Y89219D01*
X16298Y89233D01*
X16339Y89246D01*
X16378Y89266D01*
X16417Y89291D01*
X16455Y89316D01*
X16494Y89346D01*
X16530Y89382D01*
X16533Y89385D01*
X16539Y89391D01*
X16547Y89404D01*
X16561Y89421D01*
X16575Y89440D01*
X16589Y89465D01*
X16605Y89496D01*
X16624Y89529D01*
X16641Y89568D01*
X16658Y89612D01*
X16672Y89659D01*
X16688Y89709D01*
X16699Y89764D01*
X16708Y89825D01*
X16713Y89889D01*
X16716Y89956D01*
Y89958D01*
Y89967D01*
Y89978D01*
Y89994D01*
X16713Y90014D01*
Y90039D01*
X16710Y90064D01*
X16705Y90094D01*
X16696Y90158D01*
X16683Y90224D01*
X16663Y90296D01*
X16636Y90363D01*
Y90366D01*
X16633Y90371D01*
X16627Y90380D01*
X16622Y90390D01*
X16602Y90424D01*
X16577Y90463D01*
X16544Y90507D01*
X16503Y90551D01*
X16455Y90596D01*
X16403Y90634D01*
X16400D01*
X16397Y90640D01*
X16389Y90643D01*
X16375Y90651D01*
X16361Y90657D01*
X16345Y90665D01*
X16303Y90684D01*
X16253Y90701D01*
X16195Y90717D01*
X16129Y90728D01*
X16059Y90731D01*
D02*
G37*
G36*
X125018Y72195D02*
X125001D01*
X124990Y72192D01*
X124960Y72186D01*
X124924Y72178D01*
X124882Y72161D01*
X124838Y72136D01*
X124816Y72120D01*
X124794Y72103D01*
X124774Y72081D01*
X124755Y72056D01*
Y72053D01*
X124749Y72048D01*
X124744Y72037D01*
X124735Y72023D01*
X124727Y72001D01*
X124716Y71976D01*
X124708Y71945D01*
X124697Y71909D01*
X124686Y71868D01*
X124675Y71821D01*
X124663Y71768D01*
X124655Y71710D01*
X124647Y71643D01*
X124641Y71571D01*
X124639Y71494D01*
X124636Y71408D01*
Y71402D01*
Y71389D01*
Y71364D01*
X124639Y71330D01*
Y71294D01*
X124641Y71250D01*
X124644Y71203D01*
X124650Y71153D01*
X124663Y71045D01*
X124672Y70992D01*
X124683Y70943D01*
X124694Y70895D01*
X124711Y70851D01*
X124727Y70812D01*
X124747Y70779D01*
Y70776D01*
X124752Y70774D01*
X124766Y70754D01*
X124791Y70729D01*
X124821Y70702D01*
X124863Y70674D01*
X124910Y70649D01*
X124963Y70630D01*
X124990Y70627D01*
X125021Y70624D01*
X125037D01*
X125048Y70627D01*
X125076Y70632D01*
X125115Y70644D01*
X125156Y70663D01*
X125204Y70691D01*
X125226Y70707D01*
X125248Y70729D01*
X125270Y70752D01*
X125292Y70779D01*
Y70782D01*
X125298Y70788D01*
X125303Y70796D01*
X125309Y70810D01*
X125320Y70829D01*
X125328Y70854D01*
X125339Y70882D01*
X125350Y70915D01*
X125359Y70956D01*
X125370Y71001D01*
X125381Y71053D01*
X125389Y71109D01*
X125395Y71175D01*
X125400Y71245D01*
X125406Y71322D01*
Y71408D01*
Y71411D01*
Y71413D01*
Y71427D01*
Y71452D01*
X125403Y71486D01*
Y71522D01*
X125400Y71566D01*
X125398Y71613D01*
X125392Y71666D01*
X125378Y71771D01*
X125370Y71824D01*
X125359Y71873D01*
X125348Y71920D01*
X125331Y71965D01*
X125314Y72004D01*
X125295Y72037D01*
Y72040D01*
X125289Y72042D01*
X125284Y72051D01*
X125276Y72062D01*
X125251Y72087D01*
X125220Y72117D01*
X125179Y72145D01*
X125132Y72170D01*
X125107Y72181D01*
X125079Y72189D01*
X125048Y72192D01*
X125018Y72195D01*
D02*
G37*
G36*
X77356Y93667D02*
X76752D01*
Y93033D01*
X77323D01*
X77356Y93035D01*
X77395Y93038D01*
X77439Y93041D01*
X77483Y93046D01*
X77528Y93055D01*
X77566Y93066D01*
X77572Y93069D01*
X77583Y93074D01*
X77600Y93082D01*
X77622Y93094D01*
X77647Y93110D01*
X77672Y93130D01*
X77697Y93155D01*
X77716Y93182D01*
X77719Y93185D01*
X77724Y93196D01*
X77733Y93213D01*
X77744Y93235D01*
X77752Y93260D01*
X77760Y93287D01*
X77766Y93321D01*
X77769Y93354D01*
Y93357D01*
Y93360D01*
X77766Y93376D01*
X77763Y93401D01*
X77758Y93434D01*
X77744Y93467D01*
X77727Y93506D01*
X77702Y93542D01*
X77669Y93578D01*
X77663Y93581D01*
X77650Y93592D01*
X77627Y93606D01*
X77591Y93623D01*
X77550Y93639D01*
X77495Y93653D01*
X77431Y93664D01*
X77356Y93667D01*
D02*
G37*
G36*
X132489Y71499D02*
X132472D01*
X132461Y71497D01*
X132433Y71494D01*
X132395Y71486D01*
X132353Y71472D01*
X132306Y71450D01*
X132262Y71422D01*
X132217Y71383D01*
X132212Y71377D01*
X132201Y71364D01*
X132181Y71339D01*
X132162Y71303D01*
X132142Y71261D01*
X132123Y71209D01*
X132112Y71150D01*
X132106Y71084D01*
Y71078D01*
Y71065D01*
X132109Y71040D01*
X132112Y71009D01*
X132118Y70973D01*
X132129Y70934D01*
X132140Y70893D01*
X132156Y70851D01*
X132159Y70846D01*
X132167Y70832D01*
X132178Y70812D01*
X132195Y70788D01*
X132214Y70763D01*
X132239Y70732D01*
X132267Y70707D01*
X132300Y70682D01*
X132306Y70679D01*
X132317Y70674D01*
X132336Y70663D01*
X132361Y70654D01*
X132389Y70644D01*
X132422Y70632D01*
X132458Y70627D01*
X132497Y70624D01*
X132511D01*
X132522Y70627D01*
X132550Y70630D01*
X132586Y70638D01*
X132624Y70654D01*
X132669Y70674D01*
X132713Y70704D01*
X132735Y70721D01*
X132755Y70743D01*
Y70746D01*
X132760Y70749D01*
X132771Y70765D01*
X132788Y70793D01*
X132810Y70829D01*
X132829Y70876D01*
X132846Y70932D01*
X132857Y70995D01*
X132863Y71070D01*
Y71073D01*
Y71078D01*
Y71089D01*
X132860Y71103D01*
Y71120D01*
X132857Y71139D01*
X132849Y71184D01*
X132838Y71233D01*
X132818Y71286D01*
X132791Y71336D01*
X132755Y71383D01*
X132749Y71389D01*
X132735Y71402D01*
X132713Y71419D01*
X132683Y71441D01*
X132644Y71463D01*
X132599Y71480D01*
X132547Y71494D01*
X132489Y71499D01*
D02*
G37*
G36*
X129489Y72195D02*
X129472D01*
X129461Y72192D01*
X129431Y72186D01*
X129395Y72178D01*
X129353Y72161D01*
X129309Y72136D01*
X129287Y72120D01*
X129264Y72103D01*
X129245Y72081D01*
X129226Y72056D01*
Y72053D01*
X129220Y72048D01*
X129215Y72037D01*
X129206Y72023D01*
X129198Y72001D01*
X129187Y71976D01*
X129179Y71945D01*
X129167Y71909D01*
X129156Y71868D01*
X129145Y71821D01*
X129134Y71768D01*
X129126Y71710D01*
X129118Y71643D01*
X129112Y71571D01*
X129109Y71494D01*
X129107Y71408D01*
Y71402D01*
Y71389D01*
Y71364D01*
X129109Y71330D01*
Y71294D01*
X129112Y71250D01*
X129115Y71203D01*
X129120Y71153D01*
X129134Y71045D01*
X129143Y70992D01*
X129154Y70943D01*
X129165Y70895D01*
X129181Y70851D01*
X129198Y70812D01*
X129217Y70779D01*
Y70776D01*
X129223Y70774D01*
X129237Y70754D01*
X129262Y70729D01*
X129292Y70702D01*
X129334Y70674D01*
X129381Y70649D01*
X129433Y70630D01*
X129461Y70627D01*
X129492Y70624D01*
X129508D01*
X129519Y70627D01*
X129547Y70632D01*
X129586Y70644D01*
X129627Y70663D01*
X129674Y70691D01*
X129697Y70707D01*
X129719Y70729D01*
X129741Y70752D01*
X129763Y70779D01*
Y70782D01*
X129769Y70788D01*
X129774Y70796D01*
X129780Y70810D01*
X129791Y70829D01*
X129799Y70854D01*
X129810Y70882D01*
X129821Y70915D01*
X129830Y70956D01*
X129841Y71001D01*
X129852Y71053D01*
X129860Y71109D01*
X129866Y71175D01*
X129871Y71245D01*
X129877Y71322D01*
Y71408D01*
Y71411D01*
Y71413D01*
Y71427D01*
Y71452D01*
X129874Y71486D01*
Y71522D01*
X129871Y71566D01*
X129868Y71613D01*
X129863Y71666D01*
X129849Y71771D01*
X129841Y71824D01*
X129830Y71873D01*
X129818Y71920D01*
X129802Y71965D01*
X129785Y72004D01*
X129766Y72037D01*
Y72040D01*
X129760Y72042D01*
X129755Y72051D01*
X129746Y72062D01*
X129721Y72087D01*
X129691Y72117D01*
X129649Y72145D01*
X129602Y72170D01*
X129578Y72181D01*
X129550Y72189D01*
X129519Y72192D01*
X129489Y72195D01*
D02*
G37*
%LPD*%
D33*
X146908Y72052D02*
X147908D01*
X149908Y74052D01*
X146908Y76052D02*
X147908D01*
X149908Y74052D01*
X139408D02*
X148908D01*
D66*
X115074Y75474D02*
G03*
X113674Y74726I-855J-84D01*
G01*
X116674Y75191D02*
G03*
X118174Y75936I905J60D01*
G01*
X115974Y77463D02*
G03*
X116674Y78881I643J564D01*
G01*
X37446Y42574D02*
X38046Y41974D01*
X37446Y41374D02*
X38037Y41974D01*
X36500Y42000D02*
X38000D01*
X98974Y50454D02*
X99574Y51054D01*
X98374D02*
X98974Y50463D01*
X98000Y52000D02*
X99000D01*
Y50500D02*
Y52000D01*
X113874Y73054D02*
X114474Y72463D01*
Y72454D02*
X115074Y73054D01*
X113674Y74726D02*
X113774Y75198D01*
X113074Y74883D02*
X113674Y74726D01*
X114474Y72454D02*
Y77969D01*
X118174Y75936D02*
X118734Y75778D01*
X117974Y75463D02*
X118174Y75936D01*
X119074Y78645D02*
X119674Y78054D01*
X119074Y77463D02*
X119674Y78054D01*
X115974Y77463D02*
X116374Y77582D01*
X115974Y77463D02*
X116074Y76912D01*
X114474Y78054D02*
X119674D01*
D67*
X117774Y75255D02*
G03*
X117774Y75255I-300J0D01*
G01*
D68*
X146000Y83500D02*
Y95500D01*
X113500Y83500D02*
Y95500D01*
Y83500D02*
X146000D01*
X113500Y95500D02*
X146000D01*
X102500Y1500D02*
Y15000D01*
X85500Y1500D02*
Y15000D01*
Y1500D02*
X102500D01*
X85500Y15000D02*
X102500D01*
X19500Y8000D02*
Y27000D01*
X1500Y8000D02*
X19500D01*
X1500D02*
Y27000D01*
X19500D01*
X21000Y8000D02*
Y29000D01*
X52000Y8000D02*
Y29000D01*
X21000Y8000D02*
X52000D01*
X21000Y29000D02*
X52000D01*
X2000Y42000D02*
Y87000D01*
Y42000D02*
X27000D01*
Y87000D01*
X2000D02*
X27000D01*
X73500Y27500D02*
Y44500D01*
Y27500D02*
X90500D01*
Y44500D01*
X73500D02*
X90500D01*
X33500Y53500D02*
Y76500D01*
Y53500D02*
X56500D01*
Y76500D01*
X33500D02*
X56500D01*
X71000Y67000D02*
X87000D01*
X71000D02*
Y83000D01*
X87000Y67000D02*
Y83000D01*
X71000D02*
X87000D01*
X101710Y20000D02*
Y52710D01*
X101800Y52800D02*
X134510D01*
Y20000D02*
Y52800D01*
X101710Y20000D02*
X134510D01*
X136408Y70052D02*
Y78552D01*
D69*
X76013Y67277D02*
Y83022D01*
M02*
